<?xml version="1.0" encoding="utf-8" standalone="no"?>
<!DOCTYPE svg PUBLIC "-//W3C//DTD SVG 1.1//EN"
  "http://www.w3.org/Graphics/SVG/1.1/DTD/svg11.dtd">
<!-- Created with matplotlib (https://matplotlib.org/) -->
<svg height="614.754375pt" version="1.1" viewBox="0 0 1052.203125 614.754375" width="1052.203125pt" xmlns="http://www.w3.org/2000/svg" xmlns:xlink="http://www.w3.org/1999/xlink">
 <metadata>
  <rdf:RDF xmlns:cc="http://creativecommons.org/ns#" xmlns:dc="http://purl.org/dc/elements/1.1/" xmlns:rdf="http://www.w3.org/1999/02/22-rdf-syntax-ns#">
   <cc:Work>
    <dc:type rdf:resource="http://purl.org/dc/dcmitype/StillImage"/>
    <dc:date>2021-03-25T00:14:01.011214</dc:date>
    <dc:format>image/svg+xml</dc:format>
    <dc:creator>
     <cc:Agent>
      <dc:title>Matplotlib v3.3.4, https://matplotlib.org/</dc:title>
     </cc:Agent>
    </dc:creator>
   </cc:Work>
  </rdf:RDF>
 </metadata>
 <defs>
  <style type="text/css">*{stroke-linecap:butt;stroke-linejoin:round;}</style>
 </defs>
 <g id="figure_1">
  <g id="patch_1">
   <path d="M 0 614.754375 
L 1052.203125 614.754375 
L 1052.203125 0 
L 0 0 
z
" style="fill:#ffffff;"/>
  </g>
  <g id="axes_1">
   <g id="patch_2">
    <path d="M 40.603125 577.198125 
L 1045.003125 577.198125 
L 1045.003125 22.798125 
L 40.603125 22.798125 
z
" style="fill:#ffffff;"/>
   </g>
   <g id="matplotlib.axis_1">
    <g id="xtick_1">
     <g id="line2d_1">
      <defs>
       <path d="M 0 0 
L 0 3.5 
" id="m91acf6689e" style="stroke:#000000;stroke-width:0.8;"/>
      </defs>
      <g>
       <use style="stroke:#000000;stroke-width:0.8;" x="86.25767" xlink:href="#m91acf6689e" y="577.198125"/>
      </g>
     </g>
     <g id="text_1">
      <!-- 0 -->
      <g transform="translate(83.07642 591.796563)scale(0.1 -0.1)">
       <defs>
        <path d="M 31.78125 66.40625 
Q 24.171875 66.40625 20.328125 58.90625 
Q 16.5 51.421875 16.5 36.375 
Q 16.5 21.390625 20.328125 13.890625 
Q 24.171875 6.390625 31.78125 6.390625 
Q 39.453125 6.390625 43.28125 13.890625 
Q 47.125 21.390625 47.125 36.375 
Q 47.125 51.421875 43.28125 58.90625 
Q 39.453125 66.40625 31.78125 66.40625 
z
M 31.78125 74.21875 
Q 44.046875 74.21875 50.515625 64.515625 
Q 56.984375 54.828125 56.984375 36.375 
Q 56.984375 17.96875 50.515625 8.265625 
Q 44.046875 -1.421875 31.78125 -1.421875 
Q 19.53125 -1.421875 13.0625 8.265625 
Q 6.59375 17.96875 6.59375 36.375 
Q 6.59375 54.828125 13.0625 64.515625 
Q 19.53125 74.21875 31.78125 74.21875 
z
" id="DejaVuSans-48"/>
       </defs>
       <use xlink:href="#DejaVuSans-48"/>
      </g>
     </g>
    </g>
    <g id="xtick_2">
     <g id="line2d_2">
      <g>
       <use style="stroke:#000000;stroke-width:0.8;" x="269.058653" xlink:href="#m91acf6689e" y="577.198125"/>
      </g>
     </g>
     <g id="text_2">
      <!-- 200 -->
      <g transform="translate(259.514903 591.796563)scale(0.1 -0.1)">
       <defs>
        <path d="M 19.1875 8.296875 
L 53.609375 8.296875 
L 53.609375 0 
L 7.328125 0 
L 7.328125 8.296875 
Q 12.9375 14.109375 22.625 23.890625 
Q 32.328125 33.6875 34.8125 36.53125 
Q 39.546875 41.84375 41.421875 45.53125 
Q 43.3125 49.21875 43.3125 52.78125 
Q 43.3125 58.59375 39.234375 62.25 
Q 35.15625 65.921875 28.609375 65.921875 
Q 23.96875 65.921875 18.8125 64.3125 
Q 13.671875 62.703125 7.8125 59.421875 
L 7.8125 69.390625 
Q 13.765625 71.78125 18.9375 73 
Q 24.125 74.21875 28.421875 74.21875 
Q 39.75 74.21875 46.484375 68.546875 
Q 53.21875 62.890625 53.21875 53.421875 
Q 53.21875 48.921875 51.53125 44.890625 
Q 49.859375 40.875 45.40625 35.40625 
Q 44.1875 33.984375 37.640625 27.21875 
Q 31.109375 20.453125 19.1875 8.296875 
z
" id="DejaVuSans-50"/>
       </defs>
       <use xlink:href="#DejaVuSans-50"/>
       <use x="63.623047" xlink:href="#DejaVuSans-48"/>
       <use x="127.246094" xlink:href="#DejaVuSans-48"/>
      </g>
     </g>
    </g>
    <g id="xtick_3">
     <g id="line2d_3">
      <g>
       <use style="stroke:#000000;stroke-width:0.8;" x="451.859636" xlink:href="#m91acf6689e" y="577.198125"/>
      </g>
     </g>
     <g id="text_3">
      <!-- 400 -->
      <g transform="translate(442.315886 591.796563)scale(0.1 -0.1)">
       <defs>
        <path d="M 37.796875 64.3125 
L 12.890625 25.390625 
L 37.796875 25.390625 
z
M 35.203125 72.90625 
L 47.609375 72.90625 
L 47.609375 25.390625 
L 58.015625 25.390625 
L 58.015625 17.1875 
L 47.609375 17.1875 
L 47.609375 0 
L 37.796875 0 
L 37.796875 17.1875 
L 4.890625 17.1875 
L 4.890625 26.703125 
z
" id="DejaVuSans-52"/>
       </defs>
       <use xlink:href="#DejaVuSans-52"/>
       <use x="63.623047" xlink:href="#DejaVuSans-48"/>
       <use x="127.246094" xlink:href="#DejaVuSans-48"/>
      </g>
     </g>
    </g>
    <g id="xtick_4">
     <g id="line2d_4">
      <g>
       <use style="stroke:#000000;stroke-width:0.8;" x="634.660619" xlink:href="#m91acf6689e" y="577.198125"/>
      </g>
     </g>
     <g id="text_4">
      <!-- 600 -->
      <g transform="translate(625.116869 591.796563)scale(0.1 -0.1)">
       <defs>
        <path d="M 33.015625 40.375 
Q 26.375 40.375 22.484375 35.828125 
Q 18.609375 31.296875 18.609375 23.390625 
Q 18.609375 15.53125 22.484375 10.953125 
Q 26.375 6.390625 33.015625 6.390625 
Q 39.65625 6.390625 43.53125 10.953125 
Q 47.40625 15.53125 47.40625 23.390625 
Q 47.40625 31.296875 43.53125 35.828125 
Q 39.65625 40.375 33.015625 40.375 
z
M 52.59375 71.296875 
L 52.59375 62.3125 
Q 48.875 64.0625 45.09375 64.984375 
Q 41.3125 65.921875 37.59375 65.921875 
Q 27.828125 65.921875 22.671875 59.328125 
Q 17.53125 52.734375 16.796875 39.40625 
Q 19.671875 43.65625 24.015625 45.921875 
Q 28.375 48.1875 33.59375 48.1875 
Q 44.578125 48.1875 50.953125 41.515625 
Q 57.328125 34.859375 57.328125 23.390625 
Q 57.328125 12.15625 50.6875 5.359375 
Q 44.046875 -1.421875 33.015625 -1.421875 
Q 20.359375 -1.421875 13.671875 8.265625 
Q 6.984375 17.96875 6.984375 36.375 
Q 6.984375 53.65625 15.1875 63.9375 
Q 23.390625 74.21875 37.203125 74.21875 
Q 40.921875 74.21875 44.703125 73.484375 
Q 48.484375 72.75 52.59375 71.296875 
z
" id="DejaVuSans-54"/>
       </defs>
       <use xlink:href="#DejaVuSans-54"/>
       <use x="63.623047" xlink:href="#DejaVuSans-48"/>
       <use x="127.246094" xlink:href="#DejaVuSans-48"/>
      </g>
     </g>
    </g>
    <g id="xtick_5">
     <g id="line2d_5">
      <g>
       <use style="stroke:#000000;stroke-width:0.8;" x="817.461602" xlink:href="#m91acf6689e" y="577.198125"/>
      </g>
     </g>
     <g id="text_5">
      <!-- 800 -->
      <g transform="translate(807.917852 591.796563)scale(0.1 -0.1)">
       <defs>
        <path d="M 31.78125 34.625 
Q 24.75 34.625 20.71875 30.859375 
Q 16.703125 27.09375 16.703125 20.515625 
Q 16.703125 13.921875 20.71875 10.15625 
Q 24.75 6.390625 31.78125 6.390625 
Q 38.8125 6.390625 42.859375 10.171875 
Q 46.921875 13.96875 46.921875 20.515625 
Q 46.921875 27.09375 42.890625 30.859375 
Q 38.875 34.625 31.78125 34.625 
z
M 21.921875 38.8125 
Q 15.578125 40.375 12.03125 44.71875 
Q 8.5 49.078125 8.5 55.328125 
Q 8.5 64.0625 14.71875 69.140625 
Q 20.953125 74.21875 31.78125 74.21875 
Q 42.671875 74.21875 48.875 69.140625 
Q 55.078125 64.0625 55.078125 55.328125 
Q 55.078125 49.078125 51.53125 44.71875 
Q 48 40.375 41.703125 38.8125 
Q 48.828125 37.15625 52.796875 32.3125 
Q 56.78125 27.484375 56.78125 20.515625 
Q 56.78125 9.90625 50.3125 4.234375 
Q 43.84375 -1.421875 31.78125 -1.421875 
Q 19.734375 -1.421875 13.25 4.234375 
Q 6.78125 9.90625 6.78125 20.515625 
Q 6.78125 27.484375 10.78125 32.3125 
Q 14.796875 37.15625 21.921875 38.8125 
z
M 18.3125 54.390625 
Q 18.3125 48.734375 21.84375 45.5625 
Q 25.390625 42.390625 31.78125 42.390625 
Q 38.140625 42.390625 41.71875 45.5625 
Q 45.3125 48.734375 45.3125 54.390625 
Q 45.3125 60.0625 41.71875 63.234375 
Q 38.140625 66.40625 31.78125 66.40625 
Q 25.390625 66.40625 21.84375 63.234375 
Q 18.3125 60.0625 18.3125 54.390625 
z
" id="DejaVuSans-56"/>
       </defs>
       <use xlink:href="#DejaVuSans-56"/>
       <use x="63.623047" xlink:href="#DejaVuSans-48"/>
       <use x="127.246094" xlink:href="#DejaVuSans-48"/>
      </g>
     </g>
    </g>
    <g id="xtick_6">
     <g id="line2d_6">
      <g>
       <use style="stroke:#000000;stroke-width:0.8;" x="1000.262584" xlink:href="#m91acf6689e" y="577.198125"/>
      </g>
     </g>
     <g id="text_6">
      <!-- 1000 -->
      <g transform="translate(987.537584 591.796563)scale(0.1 -0.1)">
       <defs>
        <path d="M 12.40625 8.296875 
L 28.515625 8.296875 
L 28.515625 63.921875 
L 10.984375 60.40625 
L 10.984375 69.390625 
L 28.421875 72.90625 
L 38.28125 72.90625 
L 38.28125 8.296875 
L 54.390625 8.296875 
L 54.390625 0 
L 12.40625 0 
z
" id="DejaVuSans-49"/>
       </defs>
       <use xlink:href="#DejaVuSans-49"/>
       <use x="63.623047" xlink:href="#DejaVuSans-48"/>
       <use x="127.246094" xlink:href="#DejaVuSans-48"/>
       <use x="190.869141" xlink:href="#DejaVuSans-48"/>
      </g>
     </g>
    </g>
    <g id="text_7">
     <!-- Tiradas -->
     <g transform="translate(524.553906 605.474688)scale(0.1 -0.1)">
      <defs>
       <path d="M -0.296875 72.90625 
L 61.375 72.90625 
L 61.375 64.59375 
L 35.5 64.59375 
L 35.5 0 
L 25.59375 0 
L 25.59375 64.59375 
L -0.296875 64.59375 
z
" id="DejaVuSans-84"/>
       <path d="M 9.421875 54.6875 
L 18.40625 54.6875 
L 18.40625 0 
L 9.421875 0 
z
M 9.421875 75.984375 
L 18.40625 75.984375 
L 18.40625 64.59375 
L 9.421875 64.59375 
z
" id="DejaVuSans-105"/>
       <path d="M 41.109375 46.296875 
Q 39.59375 47.171875 37.8125 47.578125 
Q 36.03125 48 33.890625 48 
Q 26.265625 48 22.1875 43.046875 
Q 18.109375 38.09375 18.109375 28.8125 
L 18.109375 0 
L 9.078125 0 
L 9.078125 54.6875 
L 18.109375 54.6875 
L 18.109375 46.1875 
Q 20.953125 51.171875 25.484375 53.578125 
Q 30.03125 56 36.53125 56 
Q 37.453125 56 38.578125 55.875 
Q 39.703125 55.765625 41.0625 55.515625 
z
" id="DejaVuSans-114"/>
       <path d="M 34.28125 27.484375 
Q 23.390625 27.484375 19.1875 25 
Q 14.984375 22.515625 14.984375 16.5 
Q 14.984375 11.71875 18.140625 8.90625 
Q 21.296875 6.109375 26.703125 6.109375 
Q 34.1875 6.109375 38.703125 11.40625 
Q 43.21875 16.703125 43.21875 25.484375 
L 43.21875 27.484375 
z
M 52.203125 31.203125 
L 52.203125 0 
L 43.21875 0 
L 43.21875 8.296875 
Q 40.140625 3.328125 35.546875 0.953125 
Q 30.953125 -1.421875 24.3125 -1.421875 
Q 15.921875 -1.421875 10.953125 3.296875 
Q 6 8.015625 6 15.921875 
Q 6 25.140625 12.171875 29.828125 
Q 18.359375 34.515625 30.609375 34.515625 
L 43.21875 34.515625 
L 43.21875 35.40625 
Q 43.21875 41.609375 39.140625 45 
Q 35.0625 48.390625 27.6875 48.390625 
Q 23 48.390625 18.546875 47.265625 
Q 14.109375 46.140625 10.015625 43.890625 
L 10.015625 52.203125 
Q 14.9375 54.109375 19.578125 55.046875 
Q 24.21875 56 28.609375 56 
Q 40.484375 56 46.34375 49.84375 
Q 52.203125 43.703125 52.203125 31.203125 
z
" id="DejaVuSans-97"/>
       <path d="M 45.40625 46.390625 
L 45.40625 75.984375 
L 54.390625 75.984375 
L 54.390625 0 
L 45.40625 0 
L 45.40625 8.203125 
Q 42.578125 3.328125 38.25 0.953125 
Q 33.9375 -1.421875 27.875 -1.421875 
Q 17.96875 -1.421875 11.734375 6.484375 
Q 5.515625 14.40625 5.515625 27.296875 
Q 5.515625 40.1875 11.734375 48.09375 
Q 17.96875 56 27.875 56 
Q 33.9375 56 38.25 53.625 
Q 42.578125 51.265625 45.40625 46.390625 
z
M 14.796875 27.296875 
Q 14.796875 17.390625 18.875 11.75 
Q 22.953125 6.109375 30.078125 6.109375 
Q 37.203125 6.109375 41.296875 11.75 
Q 45.40625 17.390625 45.40625 27.296875 
Q 45.40625 37.203125 41.296875 42.84375 
Q 37.203125 48.484375 30.078125 48.484375 
Q 22.953125 48.484375 18.875 42.84375 
Q 14.796875 37.203125 14.796875 27.296875 
z
" id="DejaVuSans-100"/>
       <path d="M 44.28125 53.078125 
L 44.28125 44.578125 
Q 40.484375 46.53125 36.375 47.5 
Q 32.28125 48.484375 27.875 48.484375 
Q 21.1875 48.484375 17.84375 46.4375 
Q 14.5 44.390625 14.5 40.28125 
Q 14.5 37.15625 16.890625 35.375 
Q 19.28125 33.59375 26.515625 31.984375 
L 29.59375 31.296875 
Q 39.15625 29.25 43.1875 25.515625 
Q 47.21875 21.78125 47.21875 15.09375 
Q 47.21875 7.46875 41.1875 3.015625 
Q 35.15625 -1.421875 24.609375 -1.421875 
Q 20.21875 -1.421875 15.453125 -0.5625 
Q 10.6875 0.296875 5.421875 2 
L 5.421875 11.28125 
Q 10.40625 8.6875 15.234375 7.390625 
Q 20.0625 6.109375 24.8125 6.109375 
Q 31.15625 6.109375 34.5625 8.28125 
Q 37.984375 10.453125 37.984375 14.40625 
Q 37.984375 18.0625 35.515625 20.015625 
Q 33.0625 21.96875 24.703125 23.78125 
L 21.578125 24.515625 
Q 13.234375 26.265625 9.515625 29.90625 
Q 5.8125 33.546875 5.8125 39.890625 
Q 5.8125 47.609375 11.28125 51.796875 
Q 16.75 56 26.8125 56 
Q 31.78125 56 36.171875 55.265625 
Q 40.578125 54.546875 44.28125 53.078125 
z
" id="DejaVuSans-115"/>
      </defs>
      <use xlink:href="#DejaVuSans-84"/>
      <use x="57.958984" xlink:href="#DejaVuSans-105"/>
      <use x="85.742188" xlink:href="#DejaVuSans-114"/>
      <use x="126.855469" xlink:href="#DejaVuSans-97"/>
      <use x="188.134766" xlink:href="#DejaVuSans-100"/>
      <use x="251.611328" xlink:href="#DejaVuSans-97"/>
      <use x="312.890625" xlink:href="#DejaVuSans-115"/>
     </g>
    </g>
   </g>
   <g id="matplotlib.axis_2">
    <g id="ytick_1">
     <g id="line2d_7">
      <defs>
       <path d="M 0 0 
L -3.5 0 
" id="m1e14797a51" style="stroke:#000000;stroke-width:0.8;"/>
      </defs>
      <g>
       <use style="stroke:#000000;stroke-width:0.8;" x="40.603125" xlink:href="#m1e14797a51" y="551.998125"/>
      </g>
     </g>
     <g id="text_8">
      <!-- 0 -->
      <g transform="translate(27.240625 555.797344)scale(0.1 -0.1)">
       <use xlink:href="#DejaVuSans-48"/>
      </g>
     </g>
    </g>
    <g id="ytick_2">
     <g id="line2d_8">
      <g>
       <use style="stroke:#000000;stroke-width:0.8;" x="40.603125" xlink:href="#m1e14797a51" y="478.710555"/>
      </g>
     </g>
     <g id="text_9">
      <!-- 2 -->
      <g transform="translate(27.240625 482.509774)scale(0.1 -0.1)">
       <use xlink:href="#DejaVuSans-50"/>
      </g>
     </g>
    </g>
    <g id="ytick_3">
     <g id="line2d_9">
      <g>
       <use style="stroke:#000000;stroke-width:0.8;" x="40.603125" xlink:href="#m1e14797a51" y="405.422985"/>
      </g>
     </g>
     <g id="text_10">
      <!-- 4 -->
      <g transform="translate(27.240625 409.222204)scale(0.1 -0.1)">
       <use xlink:href="#DejaVuSans-52"/>
      </g>
     </g>
    </g>
    <g id="ytick_4">
     <g id="line2d_10">
      <g>
       <use style="stroke:#000000;stroke-width:0.8;" x="40.603125" xlink:href="#m1e14797a51" y="332.135416"/>
      </g>
     </g>
     <g id="text_11">
      <!-- 6 -->
      <g transform="translate(27.240625 335.934634)scale(0.1 -0.1)">
       <use xlink:href="#DejaVuSans-54"/>
      </g>
     </g>
    </g>
    <g id="ytick_5">
     <g id="line2d_11">
      <g>
       <use style="stroke:#000000;stroke-width:0.8;" x="40.603125" xlink:href="#m1e14797a51" y="258.847846"/>
      </g>
     </g>
     <g id="text_12">
      <!-- 8 -->
      <g transform="translate(27.240625 262.647064)scale(0.1 -0.1)">
       <use xlink:href="#DejaVuSans-56"/>
      </g>
     </g>
    </g>
    <g id="ytick_6">
     <g id="line2d_12">
      <g>
       <use style="stroke:#000000;stroke-width:0.8;" x="40.603125" xlink:href="#m1e14797a51" y="185.560276"/>
      </g>
     </g>
     <g id="text_13">
      <!-- 10 -->
      <g transform="translate(20.878125 189.359495)scale(0.1 -0.1)">
       <use xlink:href="#DejaVuSans-49"/>
       <use x="63.623047" xlink:href="#DejaVuSans-48"/>
      </g>
     </g>
    </g>
    <g id="ytick_7">
     <g id="line2d_13">
      <g>
       <use style="stroke:#000000;stroke-width:0.8;" x="40.603125" xlink:href="#m1e14797a51" y="112.272706"/>
      </g>
     </g>
     <g id="text_14">
      <!-- 12 -->
      <g transform="translate(20.878125 116.071925)scale(0.1 -0.1)">
       <use xlink:href="#DejaVuSans-49"/>
       <use x="63.623047" xlink:href="#DejaVuSans-50"/>
      </g>
     </g>
    </g>
    <g id="ytick_8">
     <g id="line2d_14">
      <g>
       <use style="stroke:#000000;stroke-width:0.8;" x="40.603125" xlink:href="#m1e14797a51" y="38.985136"/>
      </g>
     </g>
     <g id="text_15">
      <!-- 14 -->
      <g transform="translate(20.878125 42.784355)scale(0.1 -0.1)">
       <use xlink:href="#DejaVuSans-49"/>
       <use x="63.623047" xlink:href="#DejaVuSans-52"/>
      </g>
     </g>
    </g>
    <g id="text_16">
     <!-- Valor de la desviaci칩n est치ndar -->
     <g transform="translate(14.798437 378.461406)rotate(-90)scale(0.1 -0.1)">
      <defs>
       <path d="M 28.609375 0 
L 0.78125 72.90625 
L 11.078125 72.90625 
L 34.1875 11.53125 
L 57.328125 72.90625 
L 67.578125 72.90625 
L 39.796875 0 
z
" id="DejaVuSans-86"/>
       <path d="M 9.421875 75.984375 
L 18.40625 75.984375 
L 18.40625 0 
L 9.421875 0 
z
" id="DejaVuSans-108"/>
       <path d="M 30.609375 48.390625 
Q 23.390625 48.390625 19.1875 42.75 
Q 14.984375 37.109375 14.984375 27.296875 
Q 14.984375 17.484375 19.15625 11.84375 
Q 23.34375 6.203125 30.609375 6.203125 
Q 37.796875 6.203125 41.984375 11.859375 
Q 46.1875 17.53125 46.1875 27.296875 
Q 46.1875 37.015625 41.984375 42.703125 
Q 37.796875 48.390625 30.609375 48.390625 
z
M 30.609375 56 
Q 42.328125 56 49.015625 48.375 
Q 55.71875 40.765625 55.71875 27.296875 
Q 55.71875 13.875 49.015625 6.21875 
Q 42.328125 -1.421875 30.609375 -1.421875 
Q 18.84375 -1.421875 12.171875 6.21875 
Q 5.515625 13.875 5.515625 27.296875 
Q 5.515625 40.765625 12.171875 48.375 
Q 18.84375 56 30.609375 56 
z
" id="DejaVuSans-111"/>
       <path id="DejaVuSans-32"/>
       <path d="M 56.203125 29.59375 
L 56.203125 25.203125 
L 14.890625 25.203125 
Q 15.484375 15.921875 20.484375 11.0625 
Q 25.484375 6.203125 34.421875 6.203125 
Q 39.59375 6.203125 44.453125 7.46875 
Q 49.3125 8.734375 54.109375 11.28125 
L 54.109375 2.78125 
Q 49.265625 0.734375 44.1875 -0.34375 
Q 39.109375 -1.421875 33.890625 -1.421875 
Q 20.796875 -1.421875 13.15625 6.1875 
Q 5.515625 13.8125 5.515625 26.8125 
Q 5.515625 40.234375 12.765625 48.109375 
Q 20.015625 56 32.328125 56 
Q 43.359375 56 49.78125 48.890625 
Q 56.203125 41.796875 56.203125 29.59375 
z
M 47.21875 32.234375 
Q 47.125 39.59375 43.09375 43.984375 
Q 39.0625 48.390625 32.421875 48.390625 
Q 24.90625 48.390625 20.390625 44.140625 
Q 15.875 39.890625 15.1875 32.171875 
z
" id="DejaVuSans-101"/>
       <path d="M 2.984375 54.6875 
L 12.5 54.6875 
L 29.59375 8.796875 
L 46.6875 54.6875 
L 56.203125 54.6875 
L 35.6875 0 
L 23.484375 0 
z
" id="DejaVuSans-118"/>
       <path d="M 48.78125 52.59375 
L 48.78125 44.1875 
Q 44.96875 46.296875 41.140625 47.34375 
Q 37.3125 48.390625 33.40625 48.390625 
Q 24.65625 48.390625 19.8125 42.84375 
Q 14.984375 37.3125 14.984375 27.296875 
Q 14.984375 17.28125 19.8125 11.734375 
Q 24.65625 6.203125 33.40625 6.203125 
Q 37.3125 6.203125 41.140625 7.25 
Q 44.96875 8.296875 48.78125 10.40625 
L 48.78125 2.09375 
Q 45.015625 0.34375 40.984375 -0.53125 
Q 36.96875 -1.421875 32.421875 -1.421875 
Q 20.0625 -1.421875 12.78125 6.34375 
Q 5.515625 14.109375 5.515625 27.296875 
Q 5.515625 40.671875 12.859375 48.328125 
Q 20.21875 56 33.015625 56 
Q 37.15625 56 41.109375 55.140625 
Q 45.0625 54.296875 48.78125 52.59375 
z
" id="DejaVuSans-99"/>
       <path d="M 30.609375 48.390625 
Q 23.390625 48.390625 19.1875 42.75 
Q 14.984375 37.109375 14.984375 27.296875 
Q 14.984375 17.484375 19.15625 11.84375 
Q 23.34375 6.203125 30.609375 6.203125 
Q 37.796875 6.203125 41.984375 11.859375 
Q 46.1875 17.53125 46.1875 27.296875 
Q 46.1875 37.015625 41.984375 42.703125 
Q 37.796875 48.390625 30.609375 48.390625 
z
M 30.609375 56 
Q 42.328125 56 49.015625 48.375 
Q 55.71875 40.765625 55.71875 27.296875 
Q 55.71875 13.875 49.015625 6.21875 
Q 42.328125 -1.421875 30.609375 -1.421875 
Q 18.84375 -1.421875 12.171875 6.21875 
Q 5.515625 13.875 5.515625 27.296875 
Q 5.515625 40.765625 12.171875 48.375 
Q 18.84375 56 30.609375 56 
z
M 37.40625 79.984375 
L 47.125 79.984375 
L 31.21875 61.625 
L 23.734375 61.625 
z
" id="DejaVuSans-243"/>
       <path d="M 54.890625 33.015625 
L 54.890625 0 
L 45.90625 0 
L 45.90625 32.71875 
Q 45.90625 40.484375 42.875 44.328125 
Q 39.84375 48.1875 33.796875 48.1875 
Q 26.515625 48.1875 22.3125 43.546875 
Q 18.109375 38.921875 18.109375 30.90625 
L 18.109375 0 
L 9.078125 0 
L 9.078125 54.6875 
L 18.109375 54.6875 
L 18.109375 46.1875 
Q 21.34375 51.125 25.703125 53.5625 
Q 30.078125 56 35.796875 56 
Q 45.21875 56 50.046875 50.171875 
Q 54.890625 44.34375 54.890625 33.015625 
z
" id="DejaVuSans-110"/>
       <path d="M 18.3125 70.21875 
L 18.3125 54.6875 
L 36.8125 54.6875 
L 36.8125 47.703125 
L 18.3125 47.703125 
L 18.3125 18.015625 
Q 18.3125 11.328125 20.140625 9.421875 
Q 21.96875 7.515625 27.59375 7.515625 
L 36.8125 7.515625 
L 36.8125 0 
L 27.59375 0 
Q 17.1875 0 13.234375 3.875 
Q 9.28125 7.765625 9.28125 18.015625 
L 9.28125 47.703125 
L 2.6875 47.703125 
L 2.6875 54.6875 
L 9.28125 54.6875 
L 9.28125 70.21875 
z
" id="DejaVuSans-116"/>
       <path d="M 34.28125 27.484375 
Q 23.390625 27.484375 19.1875 25 
Q 14.984375 22.515625 14.984375 16.5 
Q 14.984375 11.71875 18.140625 8.90625 
Q 21.296875 6.109375 26.703125 6.109375 
Q 34.1875 6.109375 38.703125 11.40625 
Q 43.21875 16.703125 43.21875 25.484375 
L 43.21875 27.484375 
z
M 52.203125 31.203125 
L 52.203125 0 
L 43.21875 0 
L 43.21875 8.296875 
Q 40.140625 3.328125 35.546875 0.953125 
Q 30.953125 -1.421875 24.3125 -1.421875 
Q 15.921875 -1.421875 10.953125 3.296875 
Q 6 8.015625 6 15.921875 
Q 6 25.140625 12.171875 29.828125 
Q 18.359375 34.515625 30.609375 34.515625 
L 43.21875 34.515625 
L 43.21875 35.40625 
Q 43.21875 41.609375 39.140625 45 
Q 35.0625 48.390625 27.6875 48.390625 
Q 23 48.390625 18.546875 47.265625 
Q 14.109375 46.140625 10.015625 43.890625 
L 10.015625 52.203125 
Q 14.9375 54.109375 19.578125 55.046875 
Q 24.21875 56 28.609375 56 
Q 40.484375 56 46.34375 49.84375 
Q 52.203125 43.703125 52.203125 31.203125 
z
M 35.78125 79.984375 
L 45.5 79.984375 
L 29.59375 61.625 
L 22.109375 61.625 
z
" id="DejaVuSans-225"/>
      </defs>
      <use xlink:href="#DejaVuSans-86"/>
      <use x="60.658203" xlink:href="#DejaVuSans-97"/>
      <use x="121.9375" xlink:href="#DejaVuSans-108"/>
      <use x="149.720703" xlink:href="#DejaVuSans-111"/>
      <use x="210.902344" xlink:href="#DejaVuSans-114"/>
      <use x="252.015625" xlink:href="#DejaVuSans-32"/>
      <use x="283.802734" xlink:href="#DejaVuSans-100"/>
      <use x="347.279297" xlink:href="#DejaVuSans-101"/>
      <use x="408.802734" xlink:href="#DejaVuSans-32"/>
      <use x="440.589844" xlink:href="#DejaVuSans-108"/>
      <use x="468.373047" xlink:href="#DejaVuSans-97"/>
      <use x="529.652344" xlink:href="#DejaVuSans-32"/>
      <use x="561.439453" xlink:href="#DejaVuSans-100"/>
      <use x="624.916016" xlink:href="#DejaVuSans-101"/>
      <use x="686.439453" xlink:href="#DejaVuSans-115"/>
      <use x="738.539062" xlink:href="#DejaVuSans-118"/>
      <use x="797.71875" xlink:href="#DejaVuSans-105"/>
      <use x="825.501953" xlink:href="#DejaVuSans-97"/>
      <use x="886.78125" xlink:href="#DejaVuSans-99"/>
      <use x="941.761719" xlink:href="#DejaVuSans-105"/>
      <use x="969.544922" xlink:href="#DejaVuSans-243"/>
      <use x="1030.726562" xlink:href="#DejaVuSans-110"/>
      <use x="1094.105469" xlink:href="#DejaVuSans-32"/>
      <use x="1125.892578" xlink:href="#DejaVuSans-101"/>
      <use x="1187.416016" xlink:href="#DejaVuSans-115"/>
      <use x="1239.515625" xlink:href="#DejaVuSans-116"/>
      <use x="1278.724609" xlink:href="#DejaVuSans-225"/>
      <use x="1340.003906" xlink:href="#DejaVuSans-110"/>
      <use x="1403.382812" xlink:href="#DejaVuSans-100"/>
      <use x="1466.859375" xlink:href="#DejaVuSans-97"/>
      <use x="1528.138672" xlink:href="#DejaVuSans-114"/>
     </g>
    </g>
   </g>
   <g id="line2d_15">
    <path clip-path="url(#p3d1bc40005)" d="M 86.25767 551.998125 
L 87.171675 533.676233 
L 88.08568 438.724631 
L 88.999685 399.805056 
L 89.91369 415.675365 
L 90.827695 206.517208 
L 91.7417 136.628586 
L 92.655705 95.878669 
L 93.56971 73.354987 
L 95.39772 47.998125 
L 96.311725 67.679423 
L 97.225729 83.864486 
L 98.139734 96.290024 
L 99.053739 111.567539 
L 99.967744 109.614761 
L 100.881749 118.058819 
L 101.795754 124.972282 
L 102.709759 129.238581 
L 103.623764 136.111345 
L 104.537769 140.998497 
L 106.365779 158.188808 
L 107.279783 133.436551 
L 108.193788 130.314924 
L 109.107793 133.795528 
L 110.021798 138.310561 
L 110.935803 143.893545 
L 111.849808 139.494318 
L 112.763813 129.562049 
L 114.591823 142.001003 
L 115.505828 145.336532 
L 116.419833 150.387404 
L 117.333838 152.043683 
L 118.247842 155.317517 
L 119.161847 160.33113 
L 120.075852 159.330851 
L 120.989857 160.490165 
L 121.903862 160.965198 
L 122.817867 155.347912 
L 123.731872 160.084742 
L 124.645877 160.41004 
L 125.559882 158.611292 
L 127.387892 151.623962 
L 128.301896 149.545078 
L 129.215901 151.667948 
L 130.129906 141.588715 
L 131.043911 145.611446 
L 132.871921 152.433718 
L 133.785926 149.860998 
L 134.699931 148.443812 
L 135.613936 150.320264 
L 136.527941 150.590373 
L 137.441946 144.350473 
L 138.355951 141.696756 
L 140.18396 148.585352 
L 141.097965 149.893954 
L 142.01197 145.935539 
L 142.925975 146.95349 
L 143.83998 146.979406 
L 144.753985 148.896386 
L 145.66799 150.02039 
L 146.581995 149.874558 
L 147.496 146.765274 
L 148.410005 146.635985 
L 149.32401 143.732338 
L 150.238014 140.361288 
L 151.152019 142.738302 
L 152.066024 137.246019 
L 152.980029 133.735989 
L 154.808039 139.048145 
L 155.722044 135.757122 
L 156.636049 134.269449 
L 157.550054 136.897715 
L 159.378064 135.365595 
L 160.292068 136.741435 
L 161.206073 139.034438 
L 162.120078 140.475616 
L 163.034083 140.68983 
L 163.948088 141.777386 
L 165.776098 144.540657 
L 166.690103 143.203095 
L 167.604108 144.297909 
L 169.432118 148.44919 
L 170.346123 145.489076 
L 172.174132 149.711054 
L 173.088137 148.380615 
L 174.002142 148.753484 
L 174.916147 150.535943 
L 175.830152 149.725048 
L 176.744157 147.972354 
L 177.658162 147.241283 
L 178.572167 148.947871 
L 179.486172 146.358734 
L 180.400177 144.428911 
L 181.314182 141.59456 
L 182.228186 139.314457 
L 183.142191 141.215055 
L 184.056196 142.286378 
L 184.970201 143.059603 
L 186.798211 146.393032 
L 187.712216 147.140583 
L 188.626221 148.502808 
L 189.540226 147.59689 
L 190.454231 149.0703 
L 191.368236 150.781017 
L 192.28224 152.202122 
L 193.196245 150.496574 
L 194.11025 149.971164 
L 195.024255 151.231419 
L 195.93826 152.801271 
L 196.852265 150.271952 
L 197.76627 149.139936 
L 198.680275 150.74801 
L 199.59428 150.039382 
L 201.42229 152.819439 
L 202.336295 153.769455 
L 203.250299 154.070435 
L 205.078309 156.936168 
L 206.906319 158.98931 
L 207.820324 156.938847 
L 208.734329 156.732382 
L 209.648334 154.804406 
L 210.562339 155.126408 
L 211.476344 156.415177 
L 212.390349 155.629641 
L 213.304354 155.696266 
L 214.218358 156.427373 
L 215.132363 154.605762 
L 216.046368 154.66512 
L 216.960373 154.202827 
L 217.874378 153.464173 
L 218.788383 154.198653 
L 219.702388 153.433964 
L 220.616393 153.27568 
L 221.530398 154.547804 
L 222.444403 155.528403 
L 223.358408 154.81754 
L 224.272412 155.804235 
L 225.186417 157.080833 
L 226.100422 158.013572 
L 227.014427 157.810439 
L 227.928432 156.455832 
L 228.842437 156.929091 
L 229.756442 155.271943 
L 230.670447 155.773773 
L 232.498457 157.704376 
L 233.412462 157.327233 
L 234.326467 157.55754 
L 235.240471 158.043346 
L 236.154476 158.058849 
L 237.068481 158.694403 
L 237.982486 157.172947 
L 238.896491 157.494771 
L 240.724501 159.18129 
L 241.638506 158.628111 
L 242.552511 159.524864 
L 243.466516 158.993642 
L 245.294525 161.113949 
L 246.20853 161.056369 
L 248.03654 163.174999 
L 248.950545 164.028644 
L 249.86455 163.929466 
L 250.778555 164.994057 
L 251.69256 163.621162 
L 252.606565 162.828702 
L 253.52057 163.878822 
L 254.434575 163.795829 
L 255.34858 164.611528 
L 256.262584 162.683172 
L 257.176589 162.371829 
L 258.090594 162.681953 
L 259.004599 163.553273 
L 259.918604 162.778601 
L 260.832609 162.703568 
L 261.746614 163.678503 
L 262.660619 163.787205 
L 263.574624 164.705381 
L 264.488629 163.142743 
L 265.402634 163.248801 
L 266.316639 163.675311 
L 267.230643 164.576323 
L 268.144648 162.772859 
L 269.058653 162.03329 
L 269.972658 162.466096 
L 270.886663 161.972906 
L 271.800668 161.903723 
L 272.714673 160.150761 
L 273.628678 160.70622 
L 274.542683 160.008185 
L 275.456688 160.823347 
L 276.370693 159.095164 
L 277.284697 159.371991 
L 278.198702 157.685778 
L 279.112707 156.291307 
L 280.026712 154.649483 
L 280.940717 155.20037 
L 282.768727 156.804328 
L 283.682732 156.91458 
L 284.596737 157.180024 
L 287.338752 159.68076 
L 288.252756 158.08872 
L 289.166761 157.457979 
L 290.080766 157.241497 
L 291.908776 158.682192 
L 292.822781 159.070104 
L 293.736786 159.903999 
L 294.650791 160.150678 
L 295.564796 160.735164 
L 296.478801 161.553837 
L 297.392806 161.153301 
L 298.306811 159.892961 
L 299.220815 160.697797 
L 300.13482 161.256196 
L 301.048825 162.075819 
L 301.96283 162.709721 
L 302.876835 162.931006 
L 303.79084 162.883588 
L 304.704845 161.839793 
L 305.61885 161.942935 
L 306.532855 162.394572 
L 308.360865 162.847419 
L 309.274869 161.3608 
L 310.188874 161.907048 
L 312.016884 163.267866 
L 312.930889 162.678427 
L 313.844894 161.693298 
L 315.672904 163.107283 
L 316.586909 163.049279 
L 317.500914 163.38013 
L 318.414919 162.197249 
L 319.328924 162.135485 
L 320.242928 160.957883 
L 321.156933 160.590898 
L 322.070938 161.180486 
L 322.984943 160.032447 
L 323.898948 160.759642 
L 324.812953 160.9868 
L 325.726958 159.651035 
L 326.640963 159.999264 
L 328.468973 161.250238 
L 329.382978 160.578121 
L 330.296982 160.637864 
L 331.210987 159.35801 
L 332.124992 159.800654 
L 333.038997 158.417374 
L 333.953002 158.123606 
L 334.867007 157.309841 
L 335.781012 157.832566 
L 336.695017 158.506958 
L 337.609022 158.524388 
L 338.523027 158.782146 
L 339.437032 158.213027 
L 340.351037 158.917115 
L 341.265041 158.800368 
L 342.179046 157.839872 
L 344.007056 158.56194 
L 344.921061 159.184177 
L 345.835066 158.950132 
L 346.749071 159.626428 
L 347.663076 159.040733 
L 348.577081 158.789238 
L 349.491086 159.39687 
L 352.2331 160.662713 
L 353.147105 161.295356 
L 354.06111 161.542579 
L 354.975115 160.821032 
L 356.803125 161.942269 
L 357.71713 161.230224 
L 359.54514 162.26265 
L 360.459145 162.376314 
L 361.37315 163.021185 
L 362.287154 163.433793 
L 363.201159 162.741009 
L 364.115164 163.350152 
L 365.029169 163.500782 
L 365.943174 164.105621 
L 366.857179 164.257005 
L 368.685189 165.407175 
L 369.599194 165.200284 
L 370.513199 164.859795 
L 371.427204 165.198503 
L 372.341209 164.719879 
L 373.255213 165.249415 
L 374.169218 165.588284 
L 375.083223 164.975639 
L 375.997228 165.532699 
L 376.911233 165.366939 
L 377.825238 165.544135 
L 378.739243 166.139489 
L 379.653248 166.5539 
L 380.567253 166.26413 
L 381.481258 165.455087 
L 382.395263 166.05011 
L 383.309268 165.857089 
L 384.223272 165.536521 
L 385.137277 165.494861 
L 386.051282 164.397924 
L 388.793297 164.8601 
L 390.621307 165.752898 
L 391.535312 166.19292 
L 392.449317 166.007874 
L 393.363322 165.278523 
L 394.277326 165.827607 
L 395.191331 164.765779 
L 396.105336 164.364767 
L 397.019341 163.508742 
L 397.933346 163.810331 
L 398.847351 162.881016 
L 399.761356 162.134625 
L 400.675361 161.115876 
L 401.589366 161.347505 
L 402.503371 161.838724 
L 404.331381 161.868531 
L 405.245385 160.977279 
L 406.15939 161.512197 
L 407.073395 161.49238 
L 407.9874 160.670803 
L 409.81541 161.698279 
L 410.729415 161.460207 
L 411.64342 161.874477 
L 412.557425 161.86501 
L 413.47143 162.301963 
L 414.385435 162.122446 
L 415.299439 162.113278 
L 416.213444 161.683965 
L 417.127449 160.73321 
L 418.041454 161.236581 
L 418.955459 160.673063 
L 422.611479 162.677546 
L 423.525484 161.743314 
L 424.439489 161.525323 
L 425.353494 160.964361 
L 426.267498 160.628195 
L 427.181503 160.530116 
L 428.095508 160.803945 
L 429.009513 160.808524 
L 430.837523 159.044856 
L 431.751528 158.480511 
L 432.665533 158.988282 
L 433.579538 158.911005 
L 434.493543 159.370706 
L 435.407548 159.186948 
L 436.321553 159.51257 
L 437.235557 158.809945 
L 439.063567 159.728211 
L 439.977572 160.099982 
L 440.891577 160.023042 
L 441.805582 160.471179 
L 442.719587 160.575155 
L 443.633592 159.582154 
L 444.547597 159.598237 
L 445.461602 158.618426 
L 446.375607 158.218979 
L 447.289611 158.337129 
L 448.203616 157.502106 
L 449.117621 156.825142 
L 450.031626 156.541458 
L 450.945631 156.856545 
L 451.859636 156.200145 
L 453.687646 157.077764 
L 455.515656 156.754191 
L 456.429661 157.012026 
L 458.25767 157.924666 
L 459.171675 157.395783 
L 460.08568 157.791128 
L 460.999685 157.395913 
L 461.91369 157.849587 
L 462.827695 157.685918 
L 463.7417 157.052373 
L 464.655705 156.793384 
L 466.483715 157.712714 
L 467.39772 157.537775 
L 468.311725 157.841776 
L 470.139734 158.726047 
L 471.053739 158.820739 
L 471.967744 158.430897 
L 472.881749 158.361015 
L 473.795754 158.815286 
L 475.623764 159.398609 
L 476.537769 159.019739 
L 477.451774 159.430334 
L 479.279783 159.193118 
L 480.193788 158.574939 
L 481.107793 157.69155 
L 482.021798 158.119771 
L 482.935803 158.063117 
L 484.763813 158.954876 
L 485.677818 159.281289 
L 487.505828 159.730651 
L 488.419833 159.459281 
L 491.161847 159.241448 
L 492.075852 159.68207 
L 492.989857 159.425278 
L 493.903862 159.855575 
L 494.817867 158.983957 
L 495.731872 158.828911 
L 496.645877 159.190357 
L 497.559882 158.835591 
L 498.473887 158.9934 
L 499.387892 158.735858 
L 500.301896 158.757295 
L 501.215901 158.599902 
L 502.129906 158.13676 
L 503.043911 158.543598 
L 503.957916 158.074579 
L 504.871921 158.346507 
L 506.699931 157.431272 
L 507.613936 157.092787 
L 508.527941 157.510122 
L 510.355951 157.120386 
L 511.269955 157.47361 
L 512.18396 157.243664 
L 513.097965 156.538422 
L 514.01197 156.811983 
L 514.925975 156.826361 
L 516.753985 157.616395 
L 517.66799 157.270367 
L 519.496 158.058425 
L 520.410005 157.909373 
L 521.32401 158.249628 
L 522.238014 158.189444 
L 523.152019 157.748378 
L 524.066024 157.509992 
L 524.980029 156.957699 
L 525.894034 156.724206 
L 526.808039 157.125634 
L 527.722044 157.07019 
L 529.550054 157.482895 
L 530.464059 157.345767 
L 531.378064 157.370688 
L 532.292068 157.624044 
L 533.206073 157.573055 
L 534.120078 157.934593 
L 535.034083 157.288661 
L 535.948088 157.688707 
L 537.776098 158.225149 
L 538.690103 158.603113 
L 539.604108 157.844559 
L 540.518113 157.540239 
L 541.432118 157.929987 
L 542.346123 157.934031 
L 543.260127 157.266043 
L 544.174132 157.509622 
L 545.088137 157.465943 
L 546.916147 158.17516 
L 547.830152 158.205322 
L 548.744157 157.544249 
L 550.572167 158.282121 
L 552.400177 157.315988 
L 553.314182 157.631477 
L 554.228186 157.211287 
L 557.884206 157.776717 
L 558.798211 157.045745 
L 559.712216 157.417777 
L 560.626221 156.895165 
L 561.540226 156.598537 
L 562.454231 156.081028 
L 563.368236 156.096862 
L 564.28224 155.97525 
L 566.11025 156.690854 
L 567.024255 156.38066 
L 567.93826 156.748903 
L 568.852265 156.99013 
L 569.76627 156.855911 
L 570.680275 156.943409 
L 571.59428 156.347379 
L 572.508285 156.65109 
L 574.336295 156.806927 
L 575.250299 157.167978 
L 577.078309 157.44522 
L 577.992314 157.060507 
L 578.906319 157.085789 
L 579.820324 157.433025 
L 580.734329 157.52105 
L 581.648334 157.460923 
L 583.476344 158.053921 
L 586.218358 157.28629 
L 588.046368 157.700501 
L 588.960373 157.093175 
L 589.874378 156.727666 
L 590.788383 156.231489 
L 591.702388 156.303563 
L 595.358408 157.615655 
L 598.100422 157.795119 
L 599.014427 158.112024 
L 599.928432 158.298906 
L 601.756442 158.842162 
L 602.670447 158.179956 
L 603.584452 158.429148 
L 604.498457 158.492996 
L 605.412462 158.005105 
L 606.326467 158.218298 
L 608.154476 158.387516 
L 609.982486 157.684496 
L 611.810496 158.240728 
L 613.638506 158.920763 
L 614.552511 158.62121 
L 616.380521 159.2759 
L 617.294525 159.013786 
L 618.20853 159.319566 
L 619.122535 159.319227 
L 620.03654 159.499934 
L 620.950545 158.919765 
L 621.86455 158.946091 
L 622.778555 159.149718 
L 623.69256 158.857325 
L 624.606565 158.751618 
L 625.52057 159.076146 
L 626.434575 158.605288 
L 627.34858 158.721254 
L 628.262584 158.158797 
L 630.090594 158.639682 
L 631.004599 158.458009 
L 631.918604 158.115245 
L 632.832609 157.557868 
L 633.746614 157.879118 
L 634.660619 157.958747 
L 635.574624 158.195928 
L 636.488629 157.856627 
L 637.402634 158.03146 
L 638.316639 157.513522 
L 639.230643 157.541881 
L 641.058653 158.108735 
L 641.972658 158.011698 
L 642.886663 158.326186 
L 643.800668 158.263558 
L 644.714673 158.493923 
L 645.628678 158.433063 
L 646.542683 158.71562 
L 647.456688 158.825758 
L 648.370693 158.495719 
L 649.284697 158.605279 
L 651.112707 159.170091 
L 652.026712 159.340112 
L 652.940717 159.641938 
L 653.854722 159.768677 
L 655.682732 160.38938 
L 656.596737 160.259381 
L 657.510742 160.564468 
L 658.424747 160.02137 
L 659.338752 160.212301 
L 660.252756 159.856768 
L 662.080766 160.179585 
L 662.994771 160.07733 
L 663.908776 159.832813 
L 664.822781 159.856148 
L 665.736786 159.581912 
L 666.650791 159.523098 
L 667.564796 159.17243 
L 668.478801 158.580261 
L 669.392806 158.38912 
L 671.220815 158.93901 
L 672.13482 158.773094 
L 673.048825 159.071408 
L 673.96283 158.755453 
L 675.79084 159.258777 
L 677.61885 158.714864 
L 679.44686 159.114701 
L 680.360865 159.053989 
L 681.274869 159.347496 
L 683.102879 158.657103 
L 684.016884 158.803477 
L 684.930889 159.103015 
L 685.844894 159.007851 
L 686.758899 159.203587 
L 687.672904 159.227301 
L 689.500914 159.684075 
L 690.414919 159.297103 
L 691.328924 159.475907 
L 692.242928 159.416856 
L 693.156933 159.188792 
L 694.070938 159.098911 
L 695.898948 159.617273 
L 696.812953 159.643399 
L 697.726958 159.090735 
L 698.640963 159.086102 
L 700.468973 159.617276 
L 701.382978 159.531224 
L 702.296982 159.188717 
L 703.210987 159.216442 
L 704.124992 159.481 
L 705.038997 159.140411 
L 705.953002 159.429702 
L 706.867007 158.975126 
L 708.695017 159.51364 
L 709.609022 159.224206 
L 710.523027 159.383231 
L 711.437032 159.258541 
L 713.265041 159.815464 
L 714.179046 159.843557 
L 715.093051 159.652514 
L 716.007056 159.879215 
L 716.921061 159.873342 
L 717.835066 159.508695 
L 718.749071 159.772272 
L 720.577081 159.228536 
L 721.491086 159.084899 
L 722.405091 159.363575 
L 723.319096 159.154648 
L 725.147105 158.332012 
L 726.06111 158.19053 
L 726.975115 158.414402 
L 727.88912 158.008413 
L 728.803125 158.141062 
L 729.71713 157.862104 
L 730.631135 157.460272 
L 731.54514 157.735874 
L 732.459145 157.852515 
L 734.287154 157.807845 
L 736.115164 158.158968 
L 737.029169 157.978248 
L 737.943174 158.230076 
L 739.771184 158.322115 
L 740.685189 158.572279 
L 741.599194 158.432502 
L 742.513199 158.671785 
L 743.427204 158.593111 
L 744.341209 158.744321 
L 745.255213 158.496964 
L 747.997228 158.794416 
L 749.825238 159.282577 
L 750.739243 159.080617 
L 751.653248 159.075238 
L 752.567253 158.572266 
L 753.481258 158.438048 
L 755.309268 158.777837 
L 756.223272 158.661327 
L 758.051282 158.152356 
L 758.965287 158.416566 
L 759.879292 157.922962 
L 760.793297 157.953459 
L 761.707302 157.761731 
L 762.621307 158.025085 
L 763.535312 158.147193 
L 764.449317 157.678695 
L 766.277326 157.651444 
L 767.191331 157.774615 
L 768.105336 157.369757 
L 769.019341 157.492443 
L 769.933346 157.031323 
L 770.847351 157.284231 
L 771.761356 157.407636 
L 772.675361 157.667043 
L 773.589366 157.595095 
L 774.503371 157.216066 
L 776.331381 157.658923 
L 777.245385 157.549707 
L 778.15939 157.317937 
L 779.073395 157.211643 
L 780.901405 157.651127 
L 781.81541 157.629341 
L 785.47143 156.943895 
L 787.299439 156.179676 
L 789.127449 156.411511 
L 790.041454 156.052806 
L 792.783469 156.680614 
L 793.697474 156.582373 
L 794.611479 156.766469 
L 795.525484 156.689494 
L 796.439489 156.213513 
L 799.181503 155.773638 
L 800.095508 156.026868 
L 801.009513 155.812239 
L 801.923518 156.064774 
L 802.837523 156.114606 
L 804.665533 155.887397 
L 805.579538 156.098533 
L 807.407548 155.285558 
L 808.321553 155.308569 
L 809.235557 155.552992 
L 811.063567 154.795067 
L 812.891577 155.28837 
L 813.805582 155.082634 
L 814.719587 155.182802 
L 815.633592 155.430916 
L 816.547597 155.405751 
L 818.375607 155.785597 
L 819.289611 155.835754 
L 820.203616 156.070519 
L 821.117621 155.733479 
L 822.945631 156.127827 
L 824.773641 156.163916 
L 825.687646 156.036315 
L 826.601651 156.042244 
L 828.429661 156.445718 
L 829.343666 156.354099 
L 830.25767 156.595994 
L 831.171675 156.616025 
L 832.08568 156.489245 
L 832.999685 156.574565 
L 833.91369 156.16915 
L 836.655705 156.85202 
L 837.56971 156.871652 
L 840.311725 157.377097 
L 842.139734 157.310085 
L 843.053739 157.0445 
L 843.967744 156.918341 
L 845.795754 157.228753 
L 846.709759 156.965721 
L 847.623764 157.201785 
L 848.537769 156.89388 
L 849.451774 156.940748 
L 853.107793 157.727998 
L 854.021798 157.281761 
L 854.935803 157.516007 
L 855.849808 157.072957 
L 857.677818 157.495297 
L 859.505828 157.742821 
L 860.419833 157.947787 
L 861.333838 157.508943 
L 863.161847 157.646457 
L 865.903862 156.56103 
L 866.817867 156.605697 
L 868.645877 157.01047 
L 869.559882 156.970098 
L 871.387892 157.179419 
L 872.301896 157.272732 
L 873.215901 157.203875 
L 875.957916 157.597434 
L 876.871921 157.507873 
L 877.785926 157.692154 
L 879.613936 157.413034 
L 880.527941 157.577248 
L 881.441946 157.552376 
L 884.18396 158.168169 
L 885.097965 158.211483 
L 887.83998 157.549791 
L 888.753985 157.768825 
L 889.66799 157.682568 
L 891.496 157.990306 
L 893.32401 157.469732 
L 894.238014 157.560041 
L 895.152019 157.42246 
L 896.066024 157.111565 
L 897.894034 156.939693 
L 899.722044 157.342049 
L 900.636049 157.452292 
L 901.550054 157.279885 
L 906.120078 157.471415 
L 907.034083 157.245726 
L 907.948088 157.381002 
L 908.862093 157.033373 
L 909.776098 157.075749 
L 911.604108 156.488959 
L 913.432118 156.58477 
L 914.346123 156.343333 
L 915.260127 156.501471 
L 916.174132 156.157748 
L 917.088137 156.044492 
L 918.002142 156.2366 
L 918.916147 156.053104 
L 919.830152 156.269793 
L 920.744157 156.233934 
L 921.658162 156.368243 
L 922.572167 156.089343 
L 923.486172 156.144199 
L 924.400177 156.014758 
L 925.314182 156.101995 
L 926.228186 155.989898 
L 927.142191 155.995045 
L 928.056196 156.189489 
L 928.970201 156.232083 
L 929.884206 156.436288 
L 930.798211 156.161217 
L 931.712216 156.374827 
L 932.626221 156.293987 
L 933.540226 156.494211 
L 934.454231 156.512228 
L 935.368236 156.217692 
L 938.11025 156.705174 
L 940.852265 155.892449 
L 942.680275 156.24247 
L 943.59428 156.13461 
L 944.508285 156.304934 
L 945.42229 156.070014 
L 946.336295 156.267053 
L 949.078309 155.214075 
L 951.820324 155.52283 
L 958.218358 156.529594 
L 959.132363 156.733179 
L 960.046368 156.807434 
L 961.874378 156.242352 
L 962.788383 156.371754 
L 963.702388 155.979675 
L 964.616393 156.055138 
L 965.530398 156.260483 
L 966.444403 156.186766 
L 968.272412 156.586172 
L 969.186417 156.426276 
L 970.100422 156.037908 
L 971.928432 156.347866 
L 972.842437 156.363859 
L 977.412462 157.275371 
L 980.154476 156.665089 
L 981.068481 156.680304 
L 981.982486 156.881608 
L 982.896491 156.619766 
L 984.724501 156.979381 
L 985.638506 156.916923 
L 986.552511 156.538392 
L 989.294525 156.573678 
L 990.20853 156.259821 
L 991.122535 156.298508 
L 992.03654 156.043629 
L 994.778555 156.228987 
L 995.69256 155.918337 
L 996.606565 156.079265 
L 997.52057 155.770246 
L 999.34858 156.158866 
L 999.34858 156.158866 
" style="fill:none;stroke:#1f77b4;stroke-linecap:square;stroke-width:1.5;"/>
   </g>
   <g id="patch_3">
    <path d="M 40.603125 577.198125 
L 40.603125 22.798125 
" style="fill:none;stroke:#000000;stroke-linecap:square;stroke-linejoin:miter;stroke-width:0.8;"/>
   </g>
   <g id="patch_4">
    <path d="M 1045.003125 577.198125 
L 1045.003125 22.798125 
" style="fill:none;stroke:#000000;stroke-linecap:square;stroke-linejoin:miter;stroke-width:0.8;"/>
   </g>
   <g id="patch_5">
    <path d="M 40.603125 577.198125 
L 1045.003125 577.198125 
" style="fill:none;stroke:#000000;stroke-linecap:square;stroke-linejoin:miter;stroke-width:0.8;"/>
   </g>
   <g id="patch_6">
    <path d="M 40.603125 22.798125 
L 1045.003125 22.798125 
" style="fill:none;stroke:#000000;stroke-linecap:square;stroke-linejoin:miter;stroke-width:0.8;"/>
   </g>
   <g id="text_17">
    <!-- Desviaci칩n est치ndar a lo largo de 1000 tiradas -->
    <g transform="translate(402.335625 16.798125)scale(0.12 -0.12)">
     <defs>
      <path d="M 19.671875 64.796875 
L 19.671875 8.109375 
L 31.59375 8.109375 
Q 46.6875 8.109375 53.6875 14.9375 
Q 60.6875 21.78125 60.6875 36.53125 
Q 60.6875 51.171875 53.6875 57.984375 
Q 46.6875 64.796875 31.59375 64.796875 
z
M 9.8125 72.90625 
L 30.078125 72.90625 
Q 51.265625 72.90625 61.171875 64.09375 
Q 71.09375 55.28125 71.09375 36.53125 
Q 71.09375 17.671875 61.125 8.828125 
Q 51.171875 0 30.078125 0 
L 9.8125 0 
z
" id="DejaVuSans-68"/>
      <path d="M 45.40625 27.984375 
Q 45.40625 37.75 41.375 43.109375 
Q 37.359375 48.484375 30.078125 48.484375 
Q 22.859375 48.484375 18.828125 43.109375 
Q 14.796875 37.75 14.796875 27.984375 
Q 14.796875 18.265625 18.828125 12.890625 
Q 22.859375 7.515625 30.078125 7.515625 
Q 37.359375 7.515625 41.375 12.890625 
Q 45.40625 18.265625 45.40625 27.984375 
z
M 54.390625 6.78125 
Q 54.390625 -7.171875 48.1875 -13.984375 
Q 42 -20.796875 29.203125 -20.796875 
Q 24.46875 -20.796875 20.265625 -20.09375 
Q 16.0625 -19.390625 12.109375 -17.921875 
L 12.109375 -9.1875 
Q 16.0625 -11.328125 19.921875 -12.34375 
Q 23.78125 -13.375 27.78125 -13.375 
Q 36.625 -13.375 41.015625 -8.765625 
Q 45.40625 -4.15625 45.40625 5.171875 
L 45.40625 9.625 
Q 42.625 4.78125 38.28125 2.390625 
Q 33.9375 0 27.875 0 
Q 17.828125 0 11.671875 7.65625 
Q 5.515625 15.328125 5.515625 27.984375 
Q 5.515625 40.671875 11.671875 48.328125 
Q 17.828125 56 27.875 56 
Q 33.9375 56 38.28125 53.609375 
Q 42.625 51.21875 45.40625 46.390625 
L 45.40625 54.6875 
L 54.390625 54.6875 
z
" id="DejaVuSans-103"/>
     </defs>
     <use xlink:href="#DejaVuSans-68"/>
     <use x="77.001953" xlink:href="#DejaVuSans-101"/>
     <use x="138.525391" xlink:href="#DejaVuSans-115"/>
     <use x="190.625" xlink:href="#DejaVuSans-118"/>
     <use x="249.804688" xlink:href="#DejaVuSans-105"/>
     <use x="277.587891" xlink:href="#DejaVuSans-97"/>
     <use x="338.867188" xlink:href="#DejaVuSans-99"/>
     <use x="393.847656" xlink:href="#DejaVuSans-105"/>
     <use x="421.630859" xlink:href="#DejaVuSans-243"/>
     <use x="482.8125" xlink:href="#DejaVuSans-110"/>
     <use x="546.191406" xlink:href="#DejaVuSans-32"/>
     <use x="577.978516" xlink:href="#DejaVuSans-101"/>
     <use x="639.501953" xlink:href="#DejaVuSans-115"/>
     <use x="691.601562" xlink:href="#DejaVuSans-116"/>
     <use x="730.810547" xlink:href="#DejaVuSans-225"/>
     <use x="792.089844" xlink:href="#DejaVuSans-110"/>
     <use x="855.46875" xlink:href="#DejaVuSans-100"/>
     <use x="918.945312" xlink:href="#DejaVuSans-97"/>
     <use x="980.224609" xlink:href="#DejaVuSans-114"/>
     <use x="1021.337891" xlink:href="#DejaVuSans-32"/>
     <use x="1053.125" xlink:href="#DejaVuSans-97"/>
     <use x="1114.404297" xlink:href="#DejaVuSans-32"/>
     <use x="1146.191406" xlink:href="#DejaVuSans-108"/>
     <use x="1173.974609" xlink:href="#DejaVuSans-111"/>
     <use x="1235.15625" xlink:href="#DejaVuSans-32"/>
     <use x="1266.943359" xlink:href="#DejaVuSans-108"/>
     <use x="1294.726562" xlink:href="#DejaVuSans-97"/>
     <use x="1356.005859" xlink:href="#DejaVuSans-114"/>
     <use x="1395.369141" xlink:href="#DejaVuSans-103"/>
     <use x="1458.845703" xlink:href="#DejaVuSans-111"/>
     <use x="1520.027344" xlink:href="#DejaVuSans-32"/>
     <use x="1551.814453" xlink:href="#DejaVuSans-100"/>
     <use x="1615.291016" xlink:href="#DejaVuSans-101"/>
     <use x="1676.814453" xlink:href="#DejaVuSans-32"/>
     <use x="1708.601562" xlink:href="#DejaVuSans-49"/>
     <use x="1772.224609" xlink:href="#DejaVuSans-48"/>
     <use x="1835.847656" xlink:href="#DejaVuSans-48"/>
     <use x="1899.470703" xlink:href="#DejaVuSans-48"/>
     <use x="1963.09375" xlink:href="#DejaVuSans-32"/>
     <use x="1994.880859" xlink:href="#DejaVuSans-116"/>
     <use x="2034.089844" xlink:href="#DejaVuSans-105"/>
     <use x="2061.873047" xlink:href="#DejaVuSans-114"/>
     <use x="2102.986328" xlink:href="#DejaVuSans-97"/>
     <use x="2164.265625" xlink:href="#DejaVuSans-100"/>
     <use x="2227.742188" xlink:href="#DejaVuSans-97"/>
     <use x="2289.021484" xlink:href="#DejaVuSans-115"/>
    </g>
   </g>
  </g>
 </g>
 <defs>
  <clipPath id="p3d1bc40005">
   <rect height="554.4" width="1004.4" x="40.603125" y="22.798125"/>
  </clipPath>
 </defs>
</svg>
