<?xml version="1.0" encoding="utf-8" standalone="no"?>
<!DOCTYPE svg PUBLIC "-//W3C//DTD SVG 1.1//EN"
  "http://www.w3.org/Graphics/SVG/1.1/DTD/svg11.dtd">
<!-- Created with matplotlib (https://matplotlib.org/) -->
<svg height="614.754375pt" version="1.1" viewBox="0 0 1052.203125 614.754375" width="1052.203125pt" xmlns="http://www.w3.org/2000/svg" xmlns:xlink="http://www.w3.org/1999/xlink">
 <metadata>
  <rdf:RDF xmlns:cc="http://creativecommons.org/ns#" xmlns:dc="http://purl.org/dc/elements/1.1/" xmlns:rdf="http://www.w3.org/1999/02/22-rdf-syntax-ns#">
   <cc:Work>
    <dc:type rdf:resource="http://purl.org/dc/dcmitype/StillImage"/>
    <dc:date>2021-03-25T00:13:56.408930</dc:date>
    <dc:format>image/svg+xml</dc:format>
    <dc:creator>
     <cc:Agent>
      <dc:title>Matplotlib v3.3.4, https://matplotlib.org/</dc:title>
     </cc:Agent>
    </dc:creator>
   </cc:Work>
  </rdf:RDF>
 </metadata>
 <defs>
  <style type="text/css">*{stroke-linecap:butt;stroke-linejoin:round;}</style>
 </defs>
 <g id="figure_1">
  <g id="patch_1">
   <path d="M 0 614.754375 
L 1052.203125 614.754375 
L 1052.203125 0 
L 0 0 
z
" style="fill:#ffffff;"/>
  </g>
  <g id="axes_1">
   <g id="patch_2">
    <path d="M 40.603125 577.198125 
L 1045.003125 577.198125 
L 1045.003125 22.798125 
L 40.603125 22.798125 
z
" style="fill:#ffffff;"/>
   </g>
   <g id="matplotlib.axis_1">
    <g id="xtick_1">
     <g id="line2d_1">
      <defs>
       <path d="M 0 0 
L 0 3.5 
" id="m8380d6c449" style="stroke:#000000;stroke-width:0.8;"/>
      </defs>
      <g>
       <use style="stroke:#000000;stroke-width:0.8;" x="86.25767" xlink:href="#m8380d6c449" y="577.198125"/>
      </g>
     </g>
     <g id="text_1">
      <!-- 0 -->
      <g transform="translate(83.07642 591.796563)scale(0.1 -0.1)">
       <defs>
        <path d="M 31.78125 66.40625 
Q 24.171875 66.40625 20.328125 58.90625 
Q 16.5 51.421875 16.5 36.375 
Q 16.5 21.390625 20.328125 13.890625 
Q 24.171875 6.390625 31.78125 6.390625 
Q 39.453125 6.390625 43.28125 13.890625 
Q 47.125 21.390625 47.125 36.375 
Q 47.125 51.421875 43.28125 58.90625 
Q 39.453125 66.40625 31.78125 66.40625 
z
M 31.78125 74.21875 
Q 44.046875 74.21875 50.515625 64.515625 
Q 56.984375 54.828125 56.984375 36.375 
Q 56.984375 17.96875 50.515625 8.265625 
Q 44.046875 -1.421875 31.78125 -1.421875 
Q 19.53125 -1.421875 13.0625 8.265625 
Q 6.59375 17.96875 6.59375 36.375 
Q 6.59375 54.828125 13.0625 64.515625 
Q 19.53125 74.21875 31.78125 74.21875 
z
" id="DejaVuSans-48"/>
       </defs>
       <use xlink:href="#DejaVuSans-48"/>
      </g>
     </g>
    </g>
    <g id="xtick_2">
     <g id="line2d_2">
      <g>
       <use style="stroke:#000000;stroke-width:0.8;" x="269.241821" xlink:href="#m8380d6c449" y="577.198125"/>
      </g>
     </g>
     <g id="text_2">
      <!-- 100 -->
      <g transform="translate(259.698071 591.796563)scale(0.1 -0.1)">
       <defs>
        <path d="M 12.40625 8.296875 
L 28.515625 8.296875 
L 28.515625 63.921875 
L 10.984375 60.40625 
L 10.984375 69.390625 
L 28.421875 72.90625 
L 38.28125 72.90625 
L 38.28125 8.296875 
L 54.390625 8.296875 
L 54.390625 0 
L 12.40625 0 
z
" id="DejaVuSans-49"/>
       </defs>
       <use xlink:href="#DejaVuSans-49"/>
       <use x="63.623047" xlink:href="#DejaVuSans-48"/>
       <use x="127.246094" xlink:href="#DejaVuSans-48"/>
      </g>
     </g>
    </g>
    <g id="xtick_3">
     <g id="line2d_3">
      <g>
       <use style="stroke:#000000;stroke-width:0.8;" x="452.225971" xlink:href="#m8380d6c449" y="577.198125"/>
      </g>
     </g>
     <g id="text_3">
      <!-- 200 -->
      <g transform="translate(442.682221 591.796563)scale(0.1 -0.1)">
       <defs>
        <path d="M 19.1875 8.296875 
L 53.609375 8.296875 
L 53.609375 0 
L 7.328125 0 
L 7.328125 8.296875 
Q 12.9375 14.109375 22.625 23.890625 
Q 32.328125 33.6875 34.8125 36.53125 
Q 39.546875 41.84375 41.421875 45.53125 
Q 43.3125 49.21875 43.3125 52.78125 
Q 43.3125 58.59375 39.234375 62.25 
Q 35.15625 65.921875 28.609375 65.921875 
Q 23.96875 65.921875 18.8125 64.3125 
Q 13.671875 62.703125 7.8125 59.421875 
L 7.8125 69.390625 
Q 13.765625 71.78125 18.9375 73 
Q 24.125 74.21875 28.421875 74.21875 
Q 39.75 74.21875 46.484375 68.546875 
Q 53.21875 62.890625 53.21875 53.421875 
Q 53.21875 48.921875 51.53125 44.890625 
Q 49.859375 40.875 45.40625 35.40625 
Q 44.1875 33.984375 37.640625 27.21875 
Q 31.109375 20.453125 19.1875 8.296875 
z
" id="DejaVuSans-50"/>
       </defs>
       <use xlink:href="#DejaVuSans-50"/>
       <use x="63.623047" xlink:href="#DejaVuSans-48"/>
       <use x="127.246094" xlink:href="#DejaVuSans-48"/>
      </g>
     </g>
    </g>
    <g id="xtick_4">
     <g id="line2d_4">
      <g>
       <use style="stroke:#000000;stroke-width:0.8;" x="635.210121" xlink:href="#m8380d6c449" y="577.198125"/>
      </g>
     </g>
     <g id="text_4">
      <!-- 300 -->
      <g transform="translate(625.666371 591.796563)scale(0.1 -0.1)">
       <defs>
        <path d="M 40.578125 39.3125 
Q 47.65625 37.796875 51.625 33 
Q 55.609375 28.21875 55.609375 21.1875 
Q 55.609375 10.40625 48.1875 4.484375 
Q 40.765625 -1.421875 27.09375 -1.421875 
Q 22.515625 -1.421875 17.65625 -0.515625 
Q 12.796875 0.390625 7.625 2.203125 
L 7.625 11.71875 
Q 11.71875 9.328125 16.59375 8.109375 
Q 21.484375 6.890625 26.8125 6.890625 
Q 36.078125 6.890625 40.9375 10.546875 
Q 45.796875 14.203125 45.796875 21.1875 
Q 45.796875 27.640625 41.28125 31.265625 
Q 36.765625 34.90625 28.71875 34.90625 
L 20.21875 34.90625 
L 20.21875 43.015625 
L 29.109375 43.015625 
Q 36.375 43.015625 40.234375 45.921875 
Q 44.09375 48.828125 44.09375 54.296875 
Q 44.09375 59.90625 40.109375 62.90625 
Q 36.140625 65.921875 28.71875 65.921875 
Q 24.65625 65.921875 20.015625 65.03125 
Q 15.375 64.15625 9.8125 62.3125 
L 9.8125 71.09375 
Q 15.4375 72.65625 20.34375 73.4375 
Q 25.25 74.21875 29.59375 74.21875 
Q 40.828125 74.21875 47.359375 69.109375 
Q 53.90625 64.015625 53.90625 55.328125 
Q 53.90625 49.265625 50.4375 45.09375 
Q 46.96875 40.921875 40.578125 39.3125 
z
" id="DejaVuSans-51"/>
       </defs>
       <use xlink:href="#DejaVuSans-51"/>
       <use x="63.623047" xlink:href="#DejaVuSans-48"/>
       <use x="127.246094" xlink:href="#DejaVuSans-48"/>
      </g>
     </g>
    </g>
    <g id="xtick_5">
     <g id="line2d_5">
      <g>
       <use style="stroke:#000000;stroke-width:0.8;" x="818.194271" xlink:href="#m8380d6c449" y="577.198125"/>
      </g>
     </g>
     <g id="text_5">
      <!-- 400 -->
      <g transform="translate(808.650521 591.796563)scale(0.1 -0.1)">
       <defs>
        <path d="M 37.796875 64.3125 
L 12.890625 25.390625 
L 37.796875 25.390625 
z
M 35.203125 72.90625 
L 47.609375 72.90625 
L 47.609375 25.390625 
L 58.015625 25.390625 
L 58.015625 17.1875 
L 47.609375 17.1875 
L 47.609375 0 
L 37.796875 0 
L 37.796875 17.1875 
L 4.890625 17.1875 
L 4.890625 26.703125 
z
" id="DejaVuSans-52"/>
       </defs>
       <use xlink:href="#DejaVuSans-52"/>
       <use x="63.623047" xlink:href="#DejaVuSans-48"/>
       <use x="127.246094" xlink:href="#DejaVuSans-48"/>
      </g>
     </g>
    </g>
    <g id="xtick_6">
     <g id="line2d_6">
      <g>
       <use style="stroke:#000000;stroke-width:0.8;" x="1001.178421" xlink:href="#m8380d6c449" y="577.198125"/>
      </g>
     </g>
     <g id="text_6">
      <!-- 500 -->
      <g transform="translate(991.634671 591.796563)scale(0.1 -0.1)">
       <defs>
        <path d="M 10.796875 72.90625 
L 49.515625 72.90625 
L 49.515625 64.59375 
L 19.828125 64.59375 
L 19.828125 46.734375 
Q 21.96875 47.46875 24.109375 47.828125 
Q 26.265625 48.1875 28.421875 48.1875 
Q 40.625 48.1875 47.75 41.5 
Q 54.890625 34.8125 54.890625 23.390625 
Q 54.890625 11.625 47.5625 5.09375 
Q 40.234375 -1.421875 26.90625 -1.421875 
Q 22.3125 -1.421875 17.546875 -0.640625 
Q 12.796875 0.140625 7.71875 1.703125 
L 7.71875 11.625 
Q 12.109375 9.234375 16.796875 8.0625 
Q 21.484375 6.890625 26.703125 6.890625 
Q 35.15625 6.890625 40.078125 11.328125 
Q 45.015625 15.765625 45.015625 23.390625 
Q 45.015625 31 40.078125 35.4375 
Q 35.15625 39.890625 26.703125 39.890625 
Q 22.75 39.890625 18.8125 39.015625 
Q 14.890625 38.140625 10.796875 36.28125 
z
" id="DejaVuSans-53"/>
       </defs>
       <use xlink:href="#DejaVuSans-53"/>
       <use x="63.623047" xlink:href="#DejaVuSans-48"/>
       <use x="127.246094" xlink:href="#DejaVuSans-48"/>
      </g>
     </g>
    </g>
    <g id="text_7">
     <!-- Tiradas -->
     <g transform="translate(524.553906 605.474688)scale(0.1 -0.1)">
      <defs>
       <path d="M -0.296875 72.90625 
L 61.375 72.90625 
L 61.375 64.59375 
L 35.5 64.59375 
L 35.5 0 
L 25.59375 0 
L 25.59375 64.59375 
L -0.296875 64.59375 
z
" id="DejaVuSans-84"/>
       <path d="M 9.421875 54.6875 
L 18.40625 54.6875 
L 18.40625 0 
L 9.421875 0 
z
M 9.421875 75.984375 
L 18.40625 75.984375 
L 18.40625 64.59375 
L 9.421875 64.59375 
z
" id="DejaVuSans-105"/>
       <path d="M 41.109375 46.296875 
Q 39.59375 47.171875 37.8125 47.578125 
Q 36.03125 48 33.890625 48 
Q 26.265625 48 22.1875 43.046875 
Q 18.109375 38.09375 18.109375 28.8125 
L 18.109375 0 
L 9.078125 0 
L 9.078125 54.6875 
L 18.109375 54.6875 
L 18.109375 46.1875 
Q 20.953125 51.171875 25.484375 53.578125 
Q 30.03125 56 36.53125 56 
Q 37.453125 56 38.578125 55.875 
Q 39.703125 55.765625 41.0625 55.515625 
z
" id="DejaVuSans-114"/>
       <path d="M 34.28125 27.484375 
Q 23.390625 27.484375 19.1875 25 
Q 14.984375 22.515625 14.984375 16.5 
Q 14.984375 11.71875 18.140625 8.90625 
Q 21.296875 6.109375 26.703125 6.109375 
Q 34.1875 6.109375 38.703125 11.40625 
Q 43.21875 16.703125 43.21875 25.484375 
L 43.21875 27.484375 
z
M 52.203125 31.203125 
L 52.203125 0 
L 43.21875 0 
L 43.21875 8.296875 
Q 40.140625 3.328125 35.546875 0.953125 
Q 30.953125 -1.421875 24.3125 -1.421875 
Q 15.921875 -1.421875 10.953125 3.296875 
Q 6 8.015625 6 15.921875 
Q 6 25.140625 12.171875 29.828125 
Q 18.359375 34.515625 30.609375 34.515625 
L 43.21875 34.515625 
L 43.21875 35.40625 
Q 43.21875 41.609375 39.140625 45 
Q 35.0625 48.390625 27.6875 48.390625 
Q 23 48.390625 18.546875 47.265625 
Q 14.109375 46.140625 10.015625 43.890625 
L 10.015625 52.203125 
Q 14.9375 54.109375 19.578125 55.046875 
Q 24.21875 56 28.609375 56 
Q 40.484375 56 46.34375 49.84375 
Q 52.203125 43.703125 52.203125 31.203125 
z
" id="DejaVuSans-97"/>
       <path d="M 45.40625 46.390625 
L 45.40625 75.984375 
L 54.390625 75.984375 
L 54.390625 0 
L 45.40625 0 
L 45.40625 8.203125 
Q 42.578125 3.328125 38.25 0.953125 
Q 33.9375 -1.421875 27.875 -1.421875 
Q 17.96875 -1.421875 11.734375 6.484375 
Q 5.515625 14.40625 5.515625 27.296875 
Q 5.515625 40.1875 11.734375 48.09375 
Q 17.96875 56 27.875 56 
Q 33.9375 56 38.25 53.625 
Q 42.578125 51.265625 45.40625 46.390625 
z
M 14.796875 27.296875 
Q 14.796875 17.390625 18.875 11.75 
Q 22.953125 6.109375 30.078125 6.109375 
Q 37.203125 6.109375 41.296875 11.75 
Q 45.40625 17.390625 45.40625 27.296875 
Q 45.40625 37.203125 41.296875 42.84375 
Q 37.203125 48.484375 30.078125 48.484375 
Q 22.953125 48.484375 18.875 42.84375 
Q 14.796875 37.203125 14.796875 27.296875 
z
" id="DejaVuSans-100"/>
       <path d="M 44.28125 53.078125 
L 44.28125 44.578125 
Q 40.484375 46.53125 36.375 47.5 
Q 32.28125 48.484375 27.875 48.484375 
Q 21.1875 48.484375 17.84375 46.4375 
Q 14.5 44.390625 14.5 40.28125 
Q 14.5 37.15625 16.890625 35.375 
Q 19.28125 33.59375 26.515625 31.984375 
L 29.59375 31.296875 
Q 39.15625 29.25 43.1875 25.515625 
Q 47.21875 21.78125 47.21875 15.09375 
Q 47.21875 7.46875 41.1875 3.015625 
Q 35.15625 -1.421875 24.609375 -1.421875 
Q 20.21875 -1.421875 15.453125 -0.5625 
Q 10.6875 0.296875 5.421875 2 
L 5.421875 11.28125 
Q 10.40625 8.6875 15.234375 7.390625 
Q 20.0625 6.109375 24.8125 6.109375 
Q 31.15625 6.109375 34.5625 8.28125 
Q 37.984375 10.453125 37.984375 14.40625 
Q 37.984375 18.0625 35.515625 20.015625 
Q 33.0625 21.96875 24.703125 23.78125 
L 21.578125 24.515625 
Q 13.234375 26.265625 9.515625 29.90625 
Q 5.8125 33.546875 5.8125 39.890625 
Q 5.8125 47.609375 11.28125 51.796875 
Q 16.75 56 26.8125 56 
Q 31.78125 56 36.171875 55.265625 
Q 40.578125 54.546875 44.28125 53.078125 
z
" id="DejaVuSans-115"/>
      </defs>
      <use xlink:href="#DejaVuSans-84"/>
      <use x="57.958984" xlink:href="#DejaVuSans-105"/>
      <use x="85.742188" xlink:href="#DejaVuSans-114"/>
      <use x="126.855469" xlink:href="#DejaVuSans-97"/>
      <use x="188.134766" xlink:href="#DejaVuSans-100"/>
      <use x="251.611328" xlink:href="#DejaVuSans-97"/>
      <use x="312.890625" xlink:href="#DejaVuSans-115"/>
     </g>
    </g>
   </g>
   <g id="matplotlib.axis_2">
    <g id="ytick_1">
     <g id="line2d_7">
      <defs>
       <path d="M 0 0 
L -3.5 0 
" id="mdc555e5f0b" style="stroke:#000000;stroke-width:0.8;"/>
      </defs>
      <g>
       <use style="stroke:#000000;stroke-width:0.8;" x="40.603125" xlink:href="#mdc555e5f0b" y="551.998125"/>
      </g>
     </g>
     <g id="text_8">
      <!-- 0 -->
      <g transform="translate(27.240625 555.797344)scale(0.1 -0.1)">
       <use xlink:href="#DejaVuSans-48"/>
      </g>
     </g>
    </g>
    <g id="ytick_2">
     <g id="line2d_8">
      <g>
       <use style="stroke:#000000;stroke-width:0.8;" x="40.603125" xlink:href="#mdc555e5f0b" y="470.084411"/>
      </g>
     </g>
     <g id="text_9">
      <!-- 2 -->
      <g transform="translate(27.240625 473.883629)scale(0.1 -0.1)">
       <use xlink:href="#DejaVuSans-50"/>
      </g>
     </g>
    </g>
    <g id="ytick_3">
     <g id="line2d_9">
      <g>
       <use style="stroke:#000000;stroke-width:0.8;" x="40.603125" xlink:href="#mdc555e5f0b" y="388.170696"/>
      </g>
     </g>
     <g id="text_10">
      <!-- 4 -->
      <g transform="translate(27.240625 391.969915)scale(0.1 -0.1)">
       <use xlink:href="#DejaVuSans-52"/>
      </g>
     </g>
    </g>
    <g id="ytick_4">
     <g id="line2d_10">
      <g>
       <use style="stroke:#000000;stroke-width:0.8;" x="40.603125" xlink:href="#mdc555e5f0b" y="306.256982"/>
      </g>
     </g>
     <g id="text_11">
      <!-- 6 -->
      <g transform="translate(27.240625 310.056201)scale(0.1 -0.1)">
       <defs>
        <path d="M 33.015625 40.375 
Q 26.375 40.375 22.484375 35.828125 
Q 18.609375 31.296875 18.609375 23.390625 
Q 18.609375 15.53125 22.484375 10.953125 
Q 26.375 6.390625 33.015625 6.390625 
Q 39.65625 6.390625 43.53125 10.953125 
Q 47.40625 15.53125 47.40625 23.390625 
Q 47.40625 31.296875 43.53125 35.828125 
Q 39.65625 40.375 33.015625 40.375 
z
M 52.59375 71.296875 
L 52.59375 62.3125 
Q 48.875 64.0625 45.09375 64.984375 
Q 41.3125 65.921875 37.59375 65.921875 
Q 27.828125 65.921875 22.671875 59.328125 
Q 17.53125 52.734375 16.796875 39.40625 
Q 19.671875 43.65625 24.015625 45.921875 
Q 28.375 48.1875 33.59375 48.1875 
Q 44.578125 48.1875 50.953125 41.515625 
Q 57.328125 34.859375 57.328125 23.390625 
Q 57.328125 12.15625 50.6875 5.359375 
Q 44.046875 -1.421875 33.015625 -1.421875 
Q 20.359375 -1.421875 13.671875 8.265625 
Q 6.984375 17.96875 6.984375 36.375 
Q 6.984375 53.65625 15.1875 63.9375 
Q 23.390625 74.21875 37.203125 74.21875 
Q 40.921875 74.21875 44.703125 73.484375 
Q 48.484375 72.75 52.59375 71.296875 
z
" id="DejaVuSans-54"/>
       </defs>
       <use xlink:href="#DejaVuSans-54"/>
      </g>
     </g>
    </g>
    <g id="ytick_5">
     <g id="line2d_11">
      <g>
       <use style="stroke:#000000;stroke-width:0.8;" x="40.603125" xlink:href="#mdc555e5f0b" y="224.343267"/>
      </g>
     </g>
     <g id="text_12">
      <!-- 8 -->
      <g transform="translate(27.240625 228.142486)scale(0.1 -0.1)">
       <defs>
        <path d="M 31.78125 34.625 
Q 24.75 34.625 20.71875 30.859375 
Q 16.703125 27.09375 16.703125 20.515625 
Q 16.703125 13.921875 20.71875 10.15625 
Q 24.75 6.390625 31.78125 6.390625 
Q 38.8125 6.390625 42.859375 10.171875 
Q 46.921875 13.96875 46.921875 20.515625 
Q 46.921875 27.09375 42.890625 30.859375 
Q 38.875 34.625 31.78125 34.625 
z
M 21.921875 38.8125 
Q 15.578125 40.375 12.03125 44.71875 
Q 8.5 49.078125 8.5 55.328125 
Q 8.5 64.0625 14.71875 69.140625 
Q 20.953125 74.21875 31.78125 74.21875 
Q 42.671875 74.21875 48.875 69.140625 
Q 55.078125 64.0625 55.078125 55.328125 
Q 55.078125 49.078125 51.53125 44.71875 
Q 48 40.375 41.703125 38.8125 
Q 48.828125 37.15625 52.796875 32.3125 
Q 56.78125 27.484375 56.78125 20.515625 
Q 56.78125 9.90625 50.3125 4.234375 
Q 43.84375 -1.421875 31.78125 -1.421875 
Q 19.734375 -1.421875 13.25 4.234375 
Q 6.78125 9.90625 6.78125 20.515625 
Q 6.78125 27.484375 10.78125 32.3125 
Q 14.796875 37.15625 21.921875 38.8125 
z
M 18.3125 54.390625 
Q 18.3125 48.734375 21.84375 45.5625 
Q 25.390625 42.390625 31.78125 42.390625 
Q 38.140625 42.390625 41.71875 45.5625 
Q 45.3125 48.734375 45.3125 54.390625 
Q 45.3125 60.0625 41.71875 63.234375 
Q 38.140625 66.40625 31.78125 66.40625 
Q 25.390625 66.40625 21.84375 63.234375 
Q 18.3125 60.0625 18.3125 54.390625 
z
" id="DejaVuSans-56"/>
       </defs>
       <use xlink:href="#DejaVuSans-56"/>
      </g>
     </g>
    </g>
    <g id="ytick_6">
     <g id="line2d_12">
      <g>
       <use style="stroke:#000000;stroke-width:0.8;" x="40.603125" xlink:href="#mdc555e5f0b" y="142.429553"/>
      </g>
     </g>
     <g id="text_13">
      <!-- 10 -->
      <g transform="translate(20.878125 146.228772)scale(0.1 -0.1)">
       <use xlink:href="#DejaVuSans-49"/>
       <use x="63.623047" xlink:href="#DejaVuSans-48"/>
      </g>
     </g>
    </g>
    <g id="ytick_7">
     <g id="line2d_13">
      <g>
       <use style="stroke:#000000;stroke-width:0.8;" x="40.603125" xlink:href="#mdc555e5f0b" y="60.515839"/>
      </g>
     </g>
     <g id="text_14">
      <!-- 12 -->
      <g transform="translate(20.878125 64.315057)scale(0.1 -0.1)">
       <use xlink:href="#DejaVuSans-49"/>
       <use x="63.623047" xlink:href="#DejaVuSans-50"/>
      </g>
     </g>
    </g>
    <g id="text_15">
     <!-- Valor de la desviaci칩n est치ndar -->
     <g transform="translate(14.798437 378.461406)rotate(-90)scale(0.1 -0.1)">
      <defs>
       <path d="M 28.609375 0 
L 0.78125 72.90625 
L 11.078125 72.90625 
L 34.1875 11.53125 
L 57.328125 72.90625 
L 67.578125 72.90625 
L 39.796875 0 
z
" id="DejaVuSans-86"/>
       <path d="M 9.421875 75.984375 
L 18.40625 75.984375 
L 18.40625 0 
L 9.421875 0 
z
" id="DejaVuSans-108"/>
       <path d="M 30.609375 48.390625 
Q 23.390625 48.390625 19.1875 42.75 
Q 14.984375 37.109375 14.984375 27.296875 
Q 14.984375 17.484375 19.15625 11.84375 
Q 23.34375 6.203125 30.609375 6.203125 
Q 37.796875 6.203125 41.984375 11.859375 
Q 46.1875 17.53125 46.1875 27.296875 
Q 46.1875 37.015625 41.984375 42.703125 
Q 37.796875 48.390625 30.609375 48.390625 
z
M 30.609375 56 
Q 42.328125 56 49.015625 48.375 
Q 55.71875 40.765625 55.71875 27.296875 
Q 55.71875 13.875 49.015625 6.21875 
Q 42.328125 -1.421875 30.609375 -1.421875 
Q 18.84375 -1.421875 12.171875 6.21875 
Q 5.515625 13.875 5.515625 27.296875 
Q 5.515625 40.765625 12.171875 48.375 
Q 18.84375 56 30.609375 56 
z
" id="DejaVuSans-111"/>
       <path id="DejaVuSans-32"/>
       <path d="M 56.203125 29.59375 
L 56.203125 25.203125 
L 14.890625 25.203125 
Q 15.484375 15.921875 20.484375 11.0625 
Q 25.484375 6.203125 34.421875 6.203125 
Q 39.59375 6.203125 44.453125 7.46875 
Q 49.3125 8.734375 54.109375 11.28125 
L 54.109375 2.78125 
Q 49.265625 0.734375 44.1875 -0.34375 
Q 39.109375 -1.421875 33.890625 -1.421875 
Q 20.796875 -1.421875 13.15625 6.1875 
Q 5.515625 13.8125 5.515625 26.8125 
Q 5.515625 40.234375 12.765625 48.109375 
Q 20.015625 56 32.328125 56 
Q 43.359375 56 49.78125 48.890625 
Q 56.203125 41.796875 56.203125 29.59375 
z
M 47.21875 32.234375 
Q 47.125 39.59375 43.09375 43.984375 
Q 39.0625 48.390625 32.421875 48.390625 
Q 24.90625 48.390625 20.390625 44.140625 
Q 15.875 39.890625 15.1875 32.171875 
z
" id="DejaVuSans-101"/>
       <path d="M 2.984375 54.6875 
L 12.5 54.6875 
L 29.59375 8.796875 
L 46.6875 54.6875 
L 56.203125 54.6875 
L 35.6875 0 
L 23.484375 0 
z
" id="DejaVuSans-118"/>
       <path d="M 48.78125 52.59375 
L 48.78125 44.1875 
Q 44.96875 46.296875 41.140625 47.34375 
Q 37.3125 48.390625 33.40625 48.390625 
Q 24.65625 48.390625 19.8125 42.84375 
Q 14.984375 37.3125 14.984375 27.296875 
Q 14.984375 17.28125 19.8125 11.734375 
Q 24.65625 6.203125 33.40625 6.203125 
Q 37.3125 6.203125 41.140625 7.25 
Q 44.96875 8.296875 48.78125 10.40625 
L 48.78125 2.09375 
Q 45.015625 0.34375 40.984375 -0.53125 
Q 36.96875 -1.421875 32.421875 -1.421875 
Q 20.0625 -1.421875 12.78125 6.34375 
Q 5.515625 14.109375 5.515625 27.296875 
Q 5.515625 40.671875 12.859375 48.328125 
Q 20.21875 56 33.015625 56 
Q 37.15625 56 41.109375 55.140625 
Q 45.0625 54.296875 48.78125 52.59375 
z
" id="DejaVuSans-99"/>
       <path d="M 30.609375 48.390625 
Q 23.390625 48.390625 19.1875 42.75 
Q 14.984375 37.109375 14.984375 27.296875 
Q 14.984375 17.484375 19.15625 11.84375 
Q 23.34375 6.203125 30.609375 6.203125 
Q 37.796875 6.203125 41.984375 11.859375 
Q 46.1875 17.53125 46.1875 27.296875 
Q 46.1875 37.015625 41.984375 42.703125 
Q 37.796875 48.390625 30.609375 48.390625 
z
M 30.609375 56 
Q 42.328125 56 49.015625 48.375 
Q 55.71875 40.765625 55.71875 27.296875 
Q 55.71875 13.875 49.015625 6.21875 
Q 42.328125 -1.421875 30.609375 -1.421875 
Q 18.84375 -1.421875 12.171875 6.21875 
Q 5.515625 13.875 5.515625 27.296875 
Q 5.515625 40.765625 12.171875 48.375 
Q 18.84375 56 30.609375 56 
z
M 37.40625 79.984375 
L 47.125 79.984375 
L 31.21875 61.625 
L 23.734375 61.625 
z
" id="DejaVuSans-243"/>
       <path d="M 54.890625 33.015625 
L 54.890625 0 
L 45.90625 0 
L 45.90625 32.71875 
Q 45.90625 40.484375 42.875 44.328125 
Q 39.84375 48.1875 33.796875 48.1875 
Q 26.515625 48.1875 22.3125 43.546875 
Q 18.109375 38.921875 18.109375 30.90625 
L 18.109375 0 
L 9.078125 0 
L 9.078125 54.6875 
L 18.109375 54.6875 
L 18.109375 46.1875 
Q 21.34375 51.125 25.703125 53.5625 
Q 30.078125 56 35.796875 56 
Q 45.21875 56 50.046875 50.171875 
Q 54.890625 44.34375 54.890625 33.015625 
z
" id="DejaVuSans-110"/>
       <path d="M 18.3125 70.21875 
L 18.3125 54.6875 
L 36.8125 54.6875 
L 36.8125 47.703125 
L 18.3125 47.703125 
L 18.3125 18.015625 
Q 18.3125 11.328125 20.140625 9.421875 
Q 21.96875 7.515625 27.59375 7.515625 
L 36.8125 7.515625 
L 36.8125 0 
L 27.59375 0 
Q 17.1875 0 13.234375 3.875 
Q 9.28125 7.765625 9.28125 18.015625 
L 9.28125 47.703125 
L 2.6875 47.703125 
L 2.6875 54.6875 
L 9.28125 54.6875 
L 9.28125 70.21875 
z
" id="DejaVuSans-116"/>
       <path d="M 34.28125 27.484375 
Q 23.390625 27.484375 19.1875 25 
Q 14.984375 22.515625 14.984375 16.5 
Q 14.984375 11.71875 18.140625 8.90625 
Q 21.296875 6.109375 26.703125 6.109375 
Q 34.1875 6.109375 38.703125 11.40625 
Q 43.21875 16.703125 43.21875 25.484375 
L 43.21875 27.484375 
z
M 52.203125 31.203125 
L 52.203125 0 
L 43.21875 0 
L 43.21875 8.296875 
Q 40.140625 3.328125 35.546875 0.953125 
Q 30.953125 -1.421875 24.3125 -1.421875 
Q 15.921875 -1.421875 10.953125 3.296875 
Q 6 8.015625 6 15.921875 
Q 6 25.140625 12.171875 29.828125 
Q 18.359375 34.515625 30.609375 34.515625 
L 43.21875 34.515625 
L 43.21875 35.40625 
Q 43.21875 41.609375 39.140625 45 
Q 35.0625 48.390625 27.6875 48.390625 
Q 23 48.390625 18.546875 47.265625 
Q 14.109375 46.140625 10.015625 43.890625 
L 10.015625 52.203125 
Q 14.9375 54.109375 19.578125 55.046875 
Q 24.21875 56 28.609375 56 
Q 40.484375 56 46.34375 49.84375 
Q 52.203125 43.703125 52.203125 31.203125 
z
M 35.78125 79.984375 
L 45.5 79.984375 
L 29.59375 61.625 
L 22.109375 61.625 
z
" id="DejaVuSans-225"/>
      </defs>
      <use xlink:href="#DejaVuSans-86"/>
      <use x="60.658203" xlink:href="#DejaVuSans-97"/>
      <use x="121.9375" xlink:href="#DejaVuSans-108"/>
      <use x="149.720703" xlink:href="#DejaVuSans-111"/>
      <use x="210.902344" xlink:href="#DejaVuSans-114"/>
      <use x="252.015625" xlink:href="#DejaVuSans-32"/>
      <use x="283.802734" xlink:href="#DejaVuSans-100"/>
      <use x="347.279297" xlink:href="#DejaVuSans-101"/>
      <use x="408.802734" xlink:href="#DejaVuSans-32"/>
      <use x="440.589844" xlink:href="#DejaVuSans-108"/>
      <use x="468.373047" xlink:href="#DejaVuSans-97"/>
      <use x="529.652344" xlink:href="#DejaVuSans-32"/>
      <use x="561.439453" xlink:href="#DejaVuSans-100"/>
      <use x="624.916016" xlink:href="#DejaVuSans-101"/>
      <use x="686.439453" xlink:href="#DejaVuSans-115"/>
      <use x="738.539062" xlink:href="#DejaVuSans-118"/>
      <use x="797.71875" xlink:href="#DejaVuSans-105"/>
      <use x="825.501953" xlink:href="#DejaVuSans-97"/>
      <use x="886.78125" xlink:href="#DejaVuSans-99"/>
      <use x="941.761719" xlink:href="#DejaVuSans-105"/>
      <use x="969.544922" xlink:href="#DejaVuSans-243"/>
      <use x="1030.726562" xlink:href="#DejaVuSans-110"/>
      <use x="1094.105469" xlink:href="#DejaVuSans-32"/>
      <use x="1125.892578" xlink:href="#DejaVuSans-101"/>
      <use x="1187.416016" xlink:href="#DejaVuSans-115"/>
      <use x="1239.515625" xlink:href="#DejaVuSans-116"/>
      <use x="1278.724609" xlink:href="#DejaVuSans-225"/>
      <use x="1340.003906" xlink:href="#DejaVuSans-110"/>
      <use x="1403.382812" xlink:href="#DejaVuSans-100"/>
      <use x="1466.859375" xlink:href="#DejaVuSans-97"/>
      <use x="1528.138672" xlink:href="#DejaVuSans-114"/>
     </g>
    </g>
   </g>
   <g id="line2d_14">
    <path clip-path="url(#pb5d14e53b0)" d="M 86.25767 551.998125 
L 88.087512 60.515839 
L 89.917353 148.850959 
L 91.747195 126.978219 
L 93.577036 110.119378 
L 95.406878 102.456321 
L 97.236719 47.998125 
L 99.066561 71.109199 
L 100.896402 96.830928 
L 102.726244 59.816656 
L 106.385927 92.76559 
L 108.215768 106.468535 
L 110.04561 95.284285 
L 113.705293 122.935032 
L 115.535134 121.089862 
L 117.364976 115.522169 
L 119.194817 118.572932 
L 121.024659 127.294079 
L 122.8545 107.700214 
L 124.684342 114.36185 
L 126.514183 121.760374 
L 128.344025 124.426631 
L 130.173866 131.596385 
L 132.003708 138.030324 
L 133.833549 126.459301 
L 135.663391 125.510774 
L 137.493232 127.351914 
L 139.323074 132.270817 
L 141.152915 138.392124 
L 142.982757 137.120374 
L 144.812598 134.68007 
L 146.64244 121.91907 
L 148.472281 123.390007 
L 150.302123 114.11881 
L 152.131964 117.961066 
L 153.961806 123.560047 
L 155.791647 123.469765 
L 157.621489 128.764193 
L 159.451331 125.502422 
L 161.281172 126.839242 
L 163.111014 129.03899 
L 164.940855 131.473731 
L 166.770697 131.074542 
L 168.600538 131.763076 
L 170.43038 135.048187 
L 172.260221 139.203397 
L 174.090063 141.548589 
L 175.919904 140.497669 
L 177.749746 140.519224 
L 179.579587 141.307956 
L 181.409429 144.879126 
L 183.23927 145.717473 
L 185.069112 145.490074 
L 186.898953 149.135368 
L 188.728795 152.521442 
L 190.558636 145.845506 
L 192.388478 148.299229 
L 197.878002 157.491019 
L 199.707844 146.357295 
L 201.537685 148.183533 
L 203.367527 140.69993 
L 205.197368 143.789046 
L 207.02721 139.026815 
L 208.857051 138.589251 
L 210.686893 140.045834 
L 212.516734 133.937956 
L 214.346576 136.824457 
L 218.006259 142.034701 
L 219.8361 136.534874 
L 221.665942 136.532713 
L 223.495783 138.636836 
L 225.325625 138.090894 
L 227.155466 131.53777 
L 228.985308 132.288008 
L 230.815149 129.83568 
L 232.644991 132.334416 
L 234.474832 126.37927 
L 236.304674 127.992103 
L 238.134515 126.153415 
L 239.964357 127.682994 
L 241.794198 129.476787 
L 243.62404 130.98527 
L 245.453881 129.408334 
L 247.283723 127.56925 
L 249.113564 124.603077 
L 250.943406 122.472466 
L 252.773247 124.775283 
L 254.603089 126.238967 
L 256.43293 128.476707 
L 258.262772 128.540934 
L 260.092613 128.3371 
L 261.922455 130.464401 
L 263.752296 127.650813 
L 265.582138 129.546132 
L 269.241821 129.451566 
L 271.071662 127.003399 
L 272.901504 129.070918 
L 274.731345 130.917907 
L 276.561187 132.280967 
L 278.391028 133.994607 
L 280.22087 130.10367 
L 282.050711 131.487621 
L 283.880553 127.850322 
L 287.540236 131.560854 
L 289.370077 131.068658 
L 291.199919 128.729071 
L 293.02976 128.72893 
L 294.859602 129.273583 
L 296.689443 127.097906 
L 298.519285 125.745454 
L 300.349126 127.241308 
L 304.008809 130.675227 
L 305.838651 127.893142 
L 307.668492 129.440393 
L 311.328175 123.091299 
L 313.158017 123.423066 
L 314.987858 124.288137 
L 316.8177 125.363526 
L 318.647541 123.259801 
L 320.477383 120.88946 
L 324.137066 123.76997 
L 325.966907 123.545436 
L 327.796749 125.15901 
L 329.62659 126.533981 
L 331.456432 127.564273 
L 333.286273 127.348819 
L 336.945956 130.292646 
L 338.775798 129.409728 
L 340.605639 130.85977 
L 344.265322 133.485186 
L 346.095164 131.785373 
L 347.925005 131.862206 
L 349.754847 132.19158 
L 351.584688 131.668063 
L 353.41453 130.844069 
L 355.244371 129.19986 
L 357.074213 128.365904 
L 358.904054 129.566401 
L 362.563737 131.419439 
L 364.393579 132.580734 
L 366.22342 133.471875 
L 368.053262 133.78007 
L 369.883103 135.068733 
L 371.712945 135.133145 
L 373.542786 134.348019 
L 375.372628 132.770886 
L 377.202469 130.532938 
L 379.032311 130.129832 
L 380.862152 131.031998 
L 382.691994 131.486155 
L 384.521835 132.133071 
L 386.351677 133.406804 
L 388.181518 133.650862 
L 390.01136 130.538483 
L 391.841201 131.794684 
L 393.671043 130.022535 
L 395.500884 131.252393 
L 397.330726 128.757139 
L 399.160567 128.561471 
L 400.990409 129.737041 
L 402.82025 126.897517 
L 404.650092 124.80487 
L 406.479933 125.101787 
L 408.309775 125.905835 
L 410.139616 125.517918 
L 411.969458 126.021034 
L 413.799299 126.343978 
L 415.629141 125.646689 
L 417.458982 126.819523 
L 419.288824 127.585284 
L 421.118665 128.477697 
L 422.948507 129.229943 
L 426.60819 131.441221 
L 428.438031 132.29962 
L 430.267873 131.028566 
L 432.097714 131.098796 
L 433.927556 129.233186 
L 435.757397 130.287157 
L 437.587239 131.030238 
L 439.41708 131.491702 
L 441.246922 128.990953 
L 443.076763 129.96002 
L 444.906605 129.414261 
L 446.736446 128.422905 
L 448.566288 129.305197 
L 450.396129 129.31944 
L 452.225971 128.384193 
L 454.055812 126.986138 
L 455.885654 126.911478 
L 459.545337 127.752372 
L 461.375178 127.237865 
L 463.20502 128.261012 
L 465.034861 128.452108 
L 466.864703 128.175285 
L 468.694544 126.891852 
L 470.524386 127.790462 
L 472.354227 128.280589 
L 474.184069 129.252133 
L 476.01391 128.05603 
L 479.673593 129.595689 
L 481.503435 130.15719 
L 483.333276 130.925221 
L 486.992959 131.821014 
L 488.822801 131.327924 
L 490.652642 131.069215 
L 492.482484 131.9555 
L 494.312325 131.495258 
L 496.142167 131.632485 
L 497.972008 132.5068 
L 499.80185 130.426092 
L 501.631691 129.981378 
L 503.461533 130.538103 
L 505.291374 131.436621 
L 507.121216 130.27406 
L 508.951057 128.87062 
L 510.780899 126.916308 
L 512.61074 127.375265 
L 514.440582 127.557006 
L 516.270423 127.580805 
L 521.759948 130.102153 
L 525.419631 130.659684 
L 527.249472 129.878378 
L 529.079314 129.735565 
L 530.909155 128.753793 
L 532.738997 128.264184 
L 538.228521 130.825274 
L 540.058363 130.860902 
L 543.718046 132.343681 
L 545.547887 131.831774 
L 549.20757 132.71672 
L 551.037412 131.782664 
L 552.867253 131.816997 
L 554.697095 131.694343 
L 556.526936 132.018308 
L 558.356778 132.641369 
L 560.186619 132.166873 
L 562.016461 130.471229 
L 563.846302 130.195357 
L 565.676144 130.400099 
L 567.505985 129.064015 
L 569.335827 129.36165 
L 571.165668 130.096866 
L 574.825351 130.877614 
L 576.655193 131.624425 
L 580.314876 128.416333 
L 582.144717 128.914869 
L 585.8044 125.781655 
L 587.634242 126.501041 
L 589.464083 126.530984 
L 591.293925 126.3061 
L 596.783449 126.302692 
L 598.613291 126.93885 
L 600.443132 127.692992 
L 602.272974 126.150189 
L 604.102815 126.552196 
L 605.932657 125.050406 
L 607.762498 125.797471 
L 609.59234 125.557243 
L 611.422181 124.083183 
L 613.252023 124.762667 
L 615.081864 125.169238 
L 616.911706 125.843697 
L 618.741547 125.444998 
L 620.571389 124.260355 
L 624.231072 125.547688 
L 626.060913 125.445911 
L 627.890755 124.453824 
L 629.720596 123.287908 
L 631.550438 122.884624 
L 633.380279 123.371248 
L 635.210121 122.828715 
L 637.039962 123.443081 
L 638.869804 123.929651 
L 640.699645 123.219898 
L 642.529487 123.380551 
L 646.18917 124.655353 
L 649.848853 123.549478 
L 653.508536 124.755876 
L 655.338377 125.022944 
L 657.168219 125.697493 
L 658.99806 124.600383 
L 662.657743 125.721449 
L 664.487585 124.438009 
L 668.147268 124.667755 
L 669.977109 124.415061 
L 671.806951 124.994947 
L 673.636792 124.668467 
L 675.466634 125.195485 
L 677.296475 124.618541 
L 679.126317 123.784142 
L 680.956158 123.922707 
L 682.786 123.525083 
L 684.615841 122.412867 
L 686.445683 122.093462 
L 688.275524 122.346763 
L 690.105366 122.031634 
L 691.935207 121.940083 
L 695.59489 123.193088 
L 697.424732 123.636727 
L 701.084415 121.935948 
L 704.744098 121.613334 
L 706.573939 122.237425 
L 708.403781 121.943011 
L 710.233622 122.037641 
L 712.063464 122.654723 
L 713.893305 122.272448 
L 715.723147 122.770579 
L 717.552988 121.894255 
L 721.212671 122.850312 
L 723.042513 121.989912 
L 724.872354 122.596474 
L 726.702196 122.629872 
L 728.532037 122.901413 
L 730.361879 122.9791 
L 732.19172 123.558077 
L 734.021562 123.789735 
L 735.851403 123.62724 
L 737.681245 124.210523 
L 743.170769 125.557556 
L 745.000611 125.865344 
L 746.830452 125.421073 
L 748.660294 125.912057 
L 750.490135 125.870997 
L 752.319977 125.362597 
L 754.149818 125.738776 
L 755.97966 125.867295 
L 757.809501 126.243276 
L 759.639343 126.271133 
L 761.469184 125.103086 
L 763.299026 125.542433 
L 765.128867 125.470103 
L 766.958709 125.148632 
L 768.78855 125.588518 
L 770.618392 124.982561 
L 772.448233 123.853845 
L 776.107916 124.837627 
L 777.937758 124.081245 
L 779.767599 123.644177 
L 781.597441 123.961846 
L 783.427282 124.472916 
L 785.257124 124.307859 
L 787.086965 124.62468 
L 788.916807 124.581299 
L 790.746648 124.021533 
L 792.57649 124.459178 
L 794.406331 123.989207 
L 796.236173 122.947416 
L 798.066014 122.484057 
L 799.895856 121.726227 
L 801.725697 120.815256 
L 803.555539 121.364116 
L 805.38538 120.293521 
L 807.215222 120.253989 
L 809.045063 120.672111 
L 810.874905 119.818431 
L 814.534588 120.544644 
L 818.194271 121.411976 
L 820.024112 120.401719 
L 825.513637 121.627853 
L 827.343478 120.9548 
L 829.17332 121.024887 
L 832.833003 121.812874 
L 836.492686 122.777677 
L 838.322527 122.900495 
L 840.152369 123.309143 
L 841.98221 122.743439 
L 843.812052 122.039828 
L 845.641893 122.517168 
L 847.471735 122.348849 
L 849.301576 121.343564 
L 851.131418 121.839606 
L 852.961259 121.44753 
L 854.791101 120.634885 
L 856.620942 119.674211 
L 858.450784 118.841481 
L 860.280625 119.336143 
L 862.110467 119.399716 
L 865.77015 120.17571 
L 867.599991 119.779557 
L 869.429833 120.278406 
L 873.089516 120.541976 
L 874.919357 120.158076 
L 880.408882 120.788347 
L 882.238723 120.152381 
L 884.068565 119.351171 
L 885.898406 119.398402 
L 887.728248 119.730794 
L 891.387931 119.334225 
L 893.217772 119.713438 
L 895.047614 119.216925 
L 896.877455 119.687518 
L 898.707297 118.760615 
L 902.36698 119.691584 
L 904.196821 118.773999 
L 906.026663 119.103399 
L 907.856504 119.547153 
L 909.686346 119.512417 
L 911.516187 119.954494 
L 913.346029 120.078525 
L 915.17587 119.182179 
L 917.005712 119.556075 
L 918.835553 119.67771 
L 922.495236 118.716452 
L 924.325078 118.759683 
L 926.154919 117.881707 
L 931.644444 117.111535 
L 933.474286 117.520356 
L 935.304127 117.504773 
L 937.133969 117.012719 
L 940.793652 117.864865 
L 942.623493 117.023743 
L 944.453335 117.298476 
L 948.113018 116.127608 
L 953.602542 117.446179 
L 957.262225 118.128001 
L 959.092067 117.520212 
L 960.921908 117.206652 
L 962.75175 116.660897 
L 964.581591 117.111415 
L 966.411433 116.374788 
L 968.241274 116.795109 
L 970.071116 116.864752 
L 971.900957 117.257501 
L 973.730799 116.457302 
L 975.56064 116.794337 
L 977.390482 116.940257 
L 982.880006 118.149374 
L 984.709848 118.175462 
L 986.539689 117.449573 
L 988.369531 117.759659 
L 990.199372 116.90343 
L 992.029214 117.23712 
L 997.518738 117.829575 
L 999.34858 117.78469 
L 999.34858 117.78469 
" style="fill:none;stroke:#1f77b4;stroke-linecap:square;stroke-width:1.5;"/>
   </g>
   <g id="patch_3">
    <path d="M 40.603125 577.198125 
L 40.603125 22.798125 
" style="fill:none;stroke:#000000;stroke-linecap:square;stroke-linejoin:miter;stroke-width:0.8;"/>
   </g>
   <g id="patch_4">
    <path d="M 1045.003125 577.198125 
L 1045.003125 22.798125 
" style="fill:none;stroke:#000000;stroke-linecap:square;stroke-linejoin:miter;stroke-width:0.8;"/>
   </g>
   <g id="patch_5">
    <path d="M 40.603125 577.198125 
L 1045.003125 577.198125 
" style="fill:none;stroke:#000000;stroke-linecap:square;stroke-linejoin:miter;stroke-width:0.8;"/>
   </g>
   <g id="patch_6">
    <path d="M 40.603125 22.798125 
L 1045.003125 22.798125 
" style="fill:none;stroke:#000000;stroke-linecap:square;stroke-linejoin:miter;stroke-width:0.8;"/>
   </g>
   <g id="text_16">
    <!-- Desviaci칩n est치ndar a lo largo de 500 tiradas -->
    <g transform="translate(406.153125 16.798125)scale(0.12 -0.12)">
     <defs>
      <path d="M 19.671875 64.796875 
L 19.671875 8.109375 
L 31.59375 8.109375 
Q 46.6875 8.109375 53.6875 14.9375 
Q 60.6875 21.78125 60.6875 36.53125 
Q 60.6875 51.171875 53.6875 57.984375 
Q 46.6875 64.796875 31.59375 64.796875 
z
M 9.8125 72.90625 
L 30.078125 72.90625 
Q 51.265625 72.90625 61.171875 64.09375 
Q 71.09375 55.28125 71.09375 36.53125 
Q 71.09375 17.671875 61.125 8.828125 
Q 51.171875 0 30.078125 0 
L 9.8125 0 
z
" id="DejaVuSans-68"/>
      <path d="M 45.40625 27.984375 
Q 45.40625 37.75 41.375 43.109375 
Q 37.359375 48.484375 30.078125 48.484375 
Q 22.859375 48.484375 18.828125 43.109375 
Q 14.796875 37.75 14.796875 27.984375 
Q 14.796875 18.265625 18.828125 12.890625 
Q 22.859375 7.515625 30.078125 7.515625 
Q 37.359375 7.515625 41.375 12.890625 
Q 45.40625 18.265625 45.40625 27.984375 
z
M 54.390625 6.78125 
Q 54.390625 -7.171875 48.1875 -13.984375 
Q 42 -20.796875 29.203125 -20.796875 
Q 24.46875 -20.796875 20.265625 -20.09375 
Q 16.0625 -19.390625 12.109375 -17.921875 
L 12.109375 -9.1875 
Q 16.0625 -11.328125 19.921875 -12.34375 
Q 23.78125 -13.375 27.78125 -13.375 
Q 36.625 -13.375 41.015625 -8.765625 
Q 45.40625 -4.15625 45.40625 5.171875 
L 45.40625 9.625 
Q 42.625 4.78125 38.28125 2.390625 
Q 33.9375 0 27.875 0 
Q 17.828125 0 11.671875 7.65625 
Q 5.515625 15.328125 5.515625 27.984375 
Q 5.515625 40.671875 11.671875 48.328125 
Q 17.828125 56 27.875 56 
Q 33.9375 56 38.28125 53.609375 
Q 42.625 51.21875 45.40625 46.390625 
L 45.40625 54.6875 
L 54.390625 54.6875 
z
" id="DejaVuSans-103"/>
     </defs>
     <use xlink:href="#DejaVuSans-68"/>
     <use x="77.001953" xlink:href="#DejaVuSans-101"/>
     <use x="138.525391" xlink:href="#DejaVuSans-115"/>
     <use x="190.625" xlink:href="#DejaVuSans-118"/>
     <use x="249.804688" xlink:href="#DejaVuSans-105"/>
     <use x="277.587891" xlink:href="#DejaVuSans-97"/>
     <use x="338.867188" xlink:href="#DejaVuSans-99"/>
     <use x="393.847656" xlink:href="#DejaVuSans-105"/>
     <use x="421.630859" xlink:href="#DejaVuSans-243"/>
     <use x="482.8125" xlink:href="#DejaVuSans-110"/>
     <use x="546.191406" xlink:href="#DejaVuSans-32"/>
     <use x="577.978516" xlink:href="#DejaVuSans-101"/>
     <use x="639.501953" xlink:href="#DejaVuSans-115"/>
     <use x="691.601562" xlink:href="#DejaVuSans-116"/>
     <use x="730.810547" xlink:href="#DejaVuSans-225"/>
     <use x="792.089844" xlink:href="#DejaVuSans-110"/>
     <use x="855.46875" xlink:href="#DejaVuSans-100"/>
     <use x="918.945312" xlink:href="#DejaVuSans-97"/>
     <use x="980.224609" xlink:href="#DejaVuSans-114"/>
     <use x="1021.337891" xlink:href="#DejaVuSans-32"/>
     <use x="1053.125" xlink:href="#DejaVuSans-97"/>
     <use x="1114.404297" xlink:href="#DejaVuSans-32"/>
     <use x="1146.191406" xlink:href="#DejaVuSans-108"/>
     <use x="1173.974609" xlink:href="#DejaVuSans-111"/>
     <use x="1235.15625" xlink:href="#DejaVuSans-32"/>
     <use x="1266.943359" xlink:href="#DejaVuSans-108"/>
     <use x="1294.726562" xlink:href="#DejaVuSans-97"/>
     <use x="1356.005859" xlink:href="#DejaVuSans-114"/>
     <use x="1395.369141" xlink:href="#DejaVuSans-103"/>
     <use x="1458.845703" xlink:href="#DejaVuSans-111"/>
     <use x="1520.027344" xlink:href="#DejaVuSans-32"/>
     <use x="1551.814453" xlink:href="#DejaVuSans-100"/>
     <use x="1615.291016" xlink:href="#DejaVuSans-101"/>
     <use x="1676.814453" xlink:href="#DejaVuSans-32"/>
     <use x="1708.601562" xlink:href="#DejaVuSans-53"/>
     <use x="1772.224609" xlink:href="#DejaVuSans-48"/>
     <use x="1835.847656" xlink:href="#DejaVuSans-48"/>
     <use x="1899.470703" xlink:href="#DejaVuSans-32"/>
     <use x="1931.257812" xlink:href="#DejaVuSans-116"/>
     <use x="1970.466797" xlink:href="#DejaVuSans-105"/>
     <use x="1998.25" xlink:href="#DejaVuSans-114"/>
     <use x="2039.363281" xlink:href="#DejaVuSans-97"/>
     <use x="2100.642578" xlink:href="#DejaVuSans-100"/>
     <use x="2164.119141" xlink:href="#DejaVuSans-97"/>
     <use x="2225.398438" xlink:href="#DejaVuSans-115"/>
    </g>
   </g>
  </g>
 </g>
 <defs>
  <clipPath id="pb5d14e53b0">
   <rect height="554.4" width="1004.4" x="40.603125" y="22.798125"/>
  </clipPath>
 </defs>
</svg>
