<?xml version="1.0" encoding="utf-8" standalone="no"?>
<!DOCTYPE svg PUBLIC "-//W3C//DTD SVG 1.1//EN"
  "http://www.w3.org/Graphics/SVG/1.1/DTD/svg11.dtd">
<!-- Created with matplotlib (https://matplotlib.org/) -->
<svg height="614.274375pt" version="1.1" viewBox="0 0 1052.203125 614.274375" width="1052.203125pt" xmlns="http://www.w3.org/2000/svg" xmlns:xlink="http://www.w3.org/1999/xlink">
 <metadata>
  <rdf:RDF xmlns:cc="http://creativecommons.org/ns#" xmlns:dc="http://purl.org/dc/elements/1.1/" xmlns:rdf="http://www.w3.org/1999/02/22-rdf-syntax-ns#">
   <cc:Work>
    <dc:type rdf:resource="http://purl.org/dc/dcmitype/StillImage"/>
    <dc:date>2021-03-25T00:13:57.093074</dc:date>
    <dc:format>image/svg+xml</dc:format>
    <dc:creator>
     <cc:Agent>
      <dc:title>Matplotlib v3.3.4, https://matplotlib.org/</dc:title>
     </cc:Agent>
    </dc:creator>
   </cc:Work>
  </rdf:RDF>
 </metadata>
 <defs>
  <style type="text/css">*{stroke-linecap:butt;stroke-linejoin:round;}</style>
 </defs>
 <g id="figure_1">
  <g id="patch_1">
   <path d="M 0 614.274375 
L 1052.203125 614.274375 
L 1052.203125 0 
L 0 0 
z
" style="fill:#ffffff;"/>
  </g>
  <g id="axes_1">
   <g id="patch_2">
    <path d="M 40.603125 576.718125 
L 1045.003125 576.718125 
L 1045.003125 22.318125 
L 40.603125 22.318125 
z
" style="fill:#ffffff;"/>
   </g>
   <g id="patch_3">
    <path clip-path="url(#pe746c6dda5)" d="M 40.603125 449.063858 
L 997.174554 449.063858 
L 997.174554 446.6376 
L 40.603125 446.6376 
z
" style="fill:#ffa500;"/>
   </g>
   <g id="matplotlib.axis_1">
    <g id="xtick_1">
     <g id="line2d_1">
      <defs>
       <path d="M 0 0 
L 0 3.5 
" id="maa7882bfa6" style="stroke:#000000;stroke-width:0.8;"/>
      </defs>
      <g>
       <use style="stroke:#000000;stroke-width:0.8;" x="40.603125" xlink:href="#maa7882bfa6" y="576.718125"/>
      </g>
     </g>
     <g id="text_1">
      <!-- 0 -->
      <g transform="translate(37.421875 591.316563)scale(0.1 -0.1)">
       <defs>
        <path d="M 31.78125 66.40625 
Q 24.171875 66.40625 20.328125 58.90625 
Q 16.5 51.421875 16.5 36.375 
Q 16.5 21.390625 20.328125 13.890625 
Q 24.171875 6.390625 31.78125 6.390625 
Q 39.453125 6.390625 43.28125 13.890625 
Q 47.125 21.390625 47.125 36.375 
Q 47.125 51.421875 43.28125 58.90625 
Q 39.453125 66.40625 31.78125 66.40625 
z
M 31.78125 74.21875 
Q 44.046875 74.21875 50.515625 64.515625 
Q 56.984375 54.828125 56.984375 36.375 
Q 56.984375 17.96875 50.515625 8.265625 
Q 44.046875 -1.421875 31.78125 -1.421875 
Q 19.53125 -1.421875 13.0625 8.265625 
Q 6.59375 17.96875 6.59375 36.375 
Q 6.59375 54.828125 13.0625 64.515625 
Q 19.53125 74.21875 31.78125 74.21875 
z
" id="DejaVuSans-48"/>
       </defs>
       <use xlink:href="#DejaVuSans-48"/>
      </g>
     </g>
    </g>
    <g id="xtick_2">
     <g id="line2d_2">
      <g>
       <use style="stroke:#000000;stroke-width:0.8;" x="231.917411" xlink:href="#maa7882bfa6" y="576.718125"/>
      </g>
     </g>
     <g id="text_2">
      <!-- 200 -->
      <g transform="translate(222.373661 591.316563)scale(0.1 -0.1)">
       <defs>
        <path d="M 19.1875 8.296875 
L 53.609375 8.296875 
L 53.609375 0 
L 7.328125 0 
L 7.328125 8.296875 
Q 12.9375 14.109375 22.625 23.890625 
Q 32.328125 33.6875 34.8125 36.53125 
Q 39.546875 41.84375 41.421875 45.53125 
Q 43.3125 49.21875 43.3125 52.78125 
Q 43.3125 58.59375 39.234375 62.25 
Q 35.15625 65.921875 28.609375 65.921875 
Q 23.96875 65.921875 18.8125 64.3125 
Q 13.671875 62.703125 7.8125 59.421875 
L 7.8125 69.390625 
Q 13.765625 71.78125 18.9375 73 
Q 24.125 74.21875 28.421875 74.21875 
Q 39.75 74.21875 46.484375 68.546875 
Q 53.21875 62.890625 53.21875 53.421875 
Q 53.21875 48.921875 51.53125 44.890625 
Q 49.859375 40.875 45.40625 35.40625 
Q 44.1875 33.984375 37.640625 27.21875 
Q 31.109375 20.453125 19.1875 8.296875 
z
" id="DejaVuSans-50"/>
       </defs>
       <use xlink:href="#DejaVuSans-50"/>
       <use x="63.623047" xlink:href="#DejaVuSans-48"/>
       <use x="127.246094" xlink:href="#DejaVuSans-48"/>
      </g>
     </g>
    </g>
    <g id="xtick_3">
     <g id="line2d_3">
      <g>
       <use style="stroke:#000000;stroke-width:0.8;" x="423.231696" xlink:href="#maa7882bfa6" y="576.718125"/>
      </g>
     </g>
     <g id="text_3">
      <!-- 400 -->
      <g transform="translate(413.687946 591.316563)scale(0.1 -0.1)">
       <defs>
        <path d="M 37.796875 64.3125 
L 12.890625 25.390625 
L 37.796875 25.390625 
z
M 35.203125 72.90625 
L 47.609375 72.90625 
L 47.609375 25.390625 
L 58.015625 25.390625 
L 58.015625 17.1875 
L 47.609375 17.1875 
L 47.609375 0 
L 37.796875 0 
L 37.796875 17.1875 
L 4.890625 17.1875 
L 4.890625 26.703125 
z
" id="DejaVuSans-52"/>
       </defs>
       <use xlink:href="#DejaVuSans-52"/>
       <use x="63.623047" xlink:href="#DejaVuSans-48"/>
       <use x="127.246094" xlink:href="#DejaVuSans-48"/>
      </g>
     </g>
    </g>
    <g id="xtick_4">
     <g id="line2d_4">
      <g>
       <use style="stroke:#000000;stroke-width:0.8;" x="614.545982" xlink:href="#maa7882bfa6" y="576.718125"/>
      </g>
     </g>
     <g id="text_4">
      <!-- 600 -->
      <g transform="translate(605.002232 591.316563)scale(0.1 -0.1)">
       <defs>
        <path d="M 33.015625 40.375 
Q 26.375 40.375 22.484375 35.828125 
Q 18.609375 31.296875 18.609375 23.390625 
Q 18.609375 15.53125 22.484375 10.953125 
Q 26.375 6.390625 33.015625 6.390625 
Q 39.65625 6.390625 43.53125 10.953125 
Q 47.40625 15.53125 47.40625 23.390625 
Q 47.40625 31.296875 43.53125 35.828125 
Q 39.65625 40.375 33.015625 40.375 
z
M 52.59375 71.296875 
L 52.59375 62.3125 
Q 48.875 64.0625 45.09375 64.984375 
Q 41.3125 65.921875 37.59375 65.921875 
Q 27.828125 65.921875 22.671875 59.328125 
Q 17.53125 52.734375 16.796875 39.40625 
Q 19.671875 43.65625 24.015625 45.921875 
Q 28.375 48.1875 33.59375 48.1875 
Q 44.578125 48.1875 50.953125 41.515625 
Q 57.328125 34.859375 57.328125 23.390625 
Q 57.328125 12.15625 50.6875 5.359375 
Q 44.046875 -1.421875 33.015625 -1.421875 
Q 20.359375 -1.421875 13.671875 8.265625 
Q 6.984375 17.96875 6.984375 36.375 
Q 6.984375 53.65625 15.1875 63.9375 
Q 23.390625 74.21875 37.203125 74.21875 
Q 40.921875 74.21875 44.703125 73.484375 
Q 48.484375 72.75 52.59375 71.296875 
z
" id="DejaVuSans-54"/>
       </defs>
       <use xlink:href="#DejaVuSans-54"/>
       <use x="63.623047" xlink:href="#DejaVuSans-48"/>
       <use x="127.246094" xlink:href="#DejaVuSans-48"/>
      </g>
     </g>
    </g>
    <g id="xtick_5">
     <g id="line2d_5">
      <g>
       <use style="stroke:#000000;stroke-width:0.8;" x="805.860268" xlink:href="#maa7882bfa6" y="576.718125"/>
      </g>
     </g>
     <g id="text_5">
      <!-- 800 -->
      <g transform="translate(796.316518 591.316563)scale(0.1 -0.1)">
       <defs>
        <path d="M 31.78125 34.625 
Q 24.75 34.625 20.71875 30.859375 
Q 16.703125 27.09375 16.703125 20.515625 
Q 16.703125 13.921875 20.71875 10.15625 
Q 24.75 6.390625 31.78125 6.390625 
Q 38.8125 6.390625 42.859375 10.171875 
Q 46.921875 13.96875 46.921875 20.515625 
Q 46.921875 27.09375 42.890625 30.859375 
Q 38.875 34.625 31.78125 34.625 
z
M 21.921875 38.8125 
Q 15.578125 40.375 12.03125 44.71875 
Q 8.5 49.078125 8.5 55.328125 
Q 8.5 64.0625 14.71875 69.140625 
Q 20.953125 74.21875 31.78125 74.21875 
Q 42.671875 74.21875 48.875 69.140625 
Q 55.078125 64.0625 55.078125 55.328125 
Q 55.078125 49.078125 51.53125 44.71875 
Q 48 40.375 41.703125 38.8125 
Q 48.828125 37.15625 52.796875 32.3125 
Q 56.78125 27.484375 56.78125 20.515625 
Q 56.78125 9.90625 50.3125 4.234375 
Q 43.84375 -1.421875 31.78125 -1.421875 
Q 19.734375 -1.421875 13.25 4.234375 
Q 6.78125 9.90625 6.78125 20.515625 
Q 6.78125 27.484375 10.78125 32.3125 
Q 14.796875 37.15625 21.921875 38.8125 
z
M 18.3125 54.390625 
Q 18.3125 48.734375 21.84375 45.5625 
Q 25.390625 42.390625 31.78125 42.390625 
Q 38.140625 42.390625 41.71875 45.5625 
Q 45.3125 48.734375 45.3125 54.390625 
Q 45.3125 60.0625 41.71875 63.234375 
Q 38.140625 66.40625 31.78125 66.40625 
Q 25.390625 66.40625 21.84375 63.234375 
Q 18.3125 60.0625 18.3125 54.390625 
z
" id="DejaVuSans-56"/>
       </defs>
       <use xlink:href="#DejaVuSans-56"/>
       <use x="63.623047" xlink:href="#DejaVuSans-48"/>
       <use x="127.246094" xlink:href="#DejaVuSans-48"/>
      </g>
     </g>
    </g>
    <g id="xtick_6">
     <g id="line2d_6">
      <g>
       <use style="stroke:#000000;stroke-width:0.8;" x="997.174554" xlink:href="#maa7882bfa6" y="576.718125"/>
      </g>
     </g>
     <g id="text_6">
      <!-- 1000 -->
      <g transform="translate(984.449554 591.316563)scale(0.1 -0.1)">
       <defs>
        <path d="M 12.40625 8.296875 
L 28.515625 8.296875 
L 28.515625 63.921875 
L 10.984375 60.40625 
L 10.984375 69.390625 
L 28.421875 72.90625 
L 38.28125 72.90625 
L 38.28125 8.296875 
L 54.390625 8.296875 
L 54.390625 0 
L 12.40625 0 
z
" id="DejaVuSans-49"/>
       </defs>
       <use xlink:href="#DejaVuSans-49"/>
       <use x="63.623047" xlink:href="#DejaVuSans-48"/>
       <use x="127.246094" xlink:href="#DejaVuSans-48"/>
       <use x="190.869141" xlink:href="#DejaVuSans-48"/>
      </g>
     </g>
    </g>
    <g id="text_7">
     <!-- Tirada -->
     <g transform="translate(527.158594 604.994688)scale(0.1 -0.1)">
      <defs>
       <path d="M -0.296875 72.90625 
L 61.375 72.90625 
L 61.375 64.59375 
L 35.5 64.59375 
L 35.5 0 
L 25.59375 0 
L 25.59375 64.59375 
L -0.296875 64.59375 
z
" id="DejaVuSans-84"/>
       <path d="M 9.421875 54.6875 
L 18.40625 54.6875 
L 18.40625 0 
L 9.421875 0 
z
M 9.421875 75.984375 
L 18.40625 75.984375 
L 18.40625 64.59375 
L 9.421875 64.59375 
z
" id="DejaVuSans-105"/>
       <path d="M 41.109375 46.296875 
Q 39.59375 47.171875 37.8125 47.578125 
Q 36.03125 48 33.890625 48 
Q 26.265625 48 22.1875 43.046875 
Q 18.109375 38.09375 18.109375 28.8125 
L 18.109375 0 
L 9.078125 0 
L 9.078125 54.6875 
L 18.109375 54.6875 
L 18.109375 46.1875 
Q 20.953125 51.171875 25.484375 53.578125 
Q 30.03125 56 36.53125 56 
Q 37.453125 56 38.578125 55.875 
Q 39.703125 55.765625 41.0625 55.515625 
z
" id="DejaVuSans-114"/>
       <path d="M 34.28125 27.484375 
Q 23.390625 27.484375 19.1875 25 
Q 14.984375 22.515625 14.984375 16.5 
Q 14.984375 11.71875 18.140625 8.90625 
Q 21.296875 6.109375 26.703125 6.109375 
Q 34.1875 6.109375 38.703125 11.40625 
Q 43.21875 16.703125 43.21875 25.484375 
L 43.21875 27.484375 
z
M 52.203125 31.203125 
L 52.203125 0 
L 43.21875 0 
L 43.21875 8.296875 
Q 40.140625 3.328125 35.546875 0.953125 
Q 30.953125 -1.421875 24.3125 -1.421875 
Q 15.921875 -1.421875 10.953125 3.296875 
Q 6 8.015625 6 15.921875 
Q 6 25.140625 12.171875 29.828125 
Q 18.359375 34.515625 30.609375 34.515625 
L 43.21875 34.515625 
L 43.21875 35.40625 
Q 43.21875 41.609375 39.140625 45 
Q 35.0625 48.390625 27.6875 48.390625 
Q 23 48.390625 18.546875 47.265625 
Q 14.109375 46.140625 10.015625 43.890625 
L 10.015625 52.203125 
Q 14.9375 54.109375 19.578125 55.046875 
Q 24.21875 56 28.609375 56 
Q 40.484375 56 46.34375 49.84375 
Q 52.203125 43.703125 52.203125 31.203125 
z
" id="DejaVuSans-97"/>
       <path d="M 45.40625 46.390625 
L 45.40625 75.984375 
L 54.390625 75.984375 
L 54.390625 0 
L 45.40625 0 
L 45.40625 8.203125 
Q 42.578125 3.328125 38.25 0.953125 
Q 33.9375 -1.421875 27.875 -1.421875 
Q 17.96875 -1.421875 11.734375 6.484375 
Q 5.515625 14.40625 5.515625 27.296875 
Q 5.515625 40.1875 11.734375 48.09375 
Q 17.96875 56 27.875 56 
Q 33.9375 56 38.25 53.625 
Q 42.578125 51.265625 45.40625 46.390625 
z
M 14.796875 27.296875 
Q 14.796875 17.390625 18.875 11.75 
Q 22.953125 6.109375 30.078125 6.109375 
Q 37.203125 6.109375 41.296875 11.75 
Q 45.40625 17.390625 45.40625 27.296875 
Q 45.40625 37.203125 41.296875 42.84375 
Q 37.203125 48.484375 30.078125 48.484375 
Q 22.953125 48.484375 18.875 42.84375 
Q 14.796875 37.203125 14.796875 27.296875 
z
" id="DejaVuSans-100"/>
      </defs>
      <use xlink:href="#DejaVuSans-84"/>
      <use x="57.958984" xlink:href="#DejaVuSans-105"/>
      <use x="85.742188" xlink:href="#DejaVuSans-114"/>
      <use x="126.855469" xlink:href="#DejaVuSans-97"/>
      <use x="188.134766" xlink:href="#DejaVuSans-100"/>
      <use x="251.611328" xlink:href="#DejaVuSans-97"/>
     </g>
    </g>
   </g>
   <g id="matplotlib.axis_2">
    <g id="ytick_1">
     <g id="line2d_7">
      <defs>
       <path d="M 0 0 
L -3.5 0 
" id="m6fd787a4ca" style="stroke:#000000;stroke-width:0.8;"/>
      </defs>
      <g>
       <use style="stroke:#000000;stroke-width:0.8;" x="40.603125" xlink:href="#m6fd787a4ca" y="520.638475"/>
      </g>
     </g>
     <g id="text_8">
      <!-- 15 -->
      <g transform="translate(20.878125 524.437694)scale(0.1 -0.1)">
       <defs>
        <path d="M 10.796875 72.90625 
L 49.515625 72.90625 
L 49.515625 64.59375 
L 19.828125 64.59375 
L 19.828125 46.734375 
Q 21.96875 47.46875 24.109375 47.828125 
Q 26.265625 48.1875 28.421875 48.1875 
Q 40.625 48.1875 47.75 41.5 
Q 54.890625 34.8125 54.890625 23.390625 
Q 54.890625 11.625 47.5625 5.09375 
Q 40.234375 -1.421875 26.90625 -1.421875 
Q 22.3125 -1.421875 17.546875 -0.640625 
Q 12.796875 0.140625 7.71875 1.703125 
L 7.71875 11.625 
Q 12.109375 9.234375 16.796875 8.0625 
Q 21.484375 6.890625 26.703125 6.890625 
Q 35.15625 6.890625 40.078125 11.328125 
Q 45.015625 15.765625 45.015625 23.390625 
Q 45.015625 31 40.078125 35.4375 
Q 35.15625 39.890625 26.703125 39.890625 
Q 22.75 39.890625 18.8125 39.015625 
Q 14.890625 38.140625 10.796875 36.28125 
z
" id="DejaVuSans-53"/>
       </defs>
       <use xlink:href="#DejaVuSans-49"/>
       <use x="63.623047" xlink:href="#DejaVuSans-53"/>
      </g>
     </g>
    </g>
    <g id="ytick_2">
     <g id="line2d_8">
      <g>
       <use style="stroke:#000000;stroke-width:0.8;" x="40.603125" xlink:href="#m6fd787a4ca" y="399.325565"/>
      </g>
     </g>
     <g id="text_9">
      <!-- 20 -->
      <g transform="translate(20.878125 403.124784)scale(0.1 -0.1)">
       <use xlink:href="#DejaVuSans-50"/>
       <use x="63.623047" xlink:href="#DejaVuSans-48"/>
      </g>
     </g>
    </g>
    <g id="ytick_3">
     <g id="line2d_9">
      <g>
       <use style="stroke:#000000;stroke-width:0.8;" x="40.603125" xlink:href="#m6fd787a4ca" y="278.012655"/>
      </g>
     </g>
     <g id="text_10">
      <!-- 25 -->
      <g transform="translate(20.878125 281.811873)scale(0.1 -0.1)">
       <use xlink:href="#DejaVuSans-50"/>
       <use x="63.623047" xlink:href="#DejaVuSans-53"/>
      </g>
     </g>
    </g>
    <g id="ytick_4">
     <g id="line2d_10">
      <g>
       <use style="stroke:#000000;stroke-width:0.8;" x="40.603125" xlink:href="#m6fd787a4ca" y="156.699744"/>
      </g>
     </g>
     <g id="text_11">
      <!-- 30 -->
      <g transform="translate(20.878125 160.498963)scale(0.1 -0.1)">
       <defs>
        <path d="M 40.578125 39.3125 
Q 47.65625 37.796875 51.625 33 
Q 55.609375 28.21875 55.609375 21.1875 
Q 55.609375 10.40625 48.1875 4.484375 
Q 40.765625 -1.421875 27.09375 -1.421875 
Q 22.515625 -1.421875 17.65625 -0.515625 
Q 12.796875 0.390625 7.625 2.203125 
L 7.625 11.71875 
Q 11.71875 9.328125 16.59375 8.109375 
Q 21.484375 6.890625 26.8125 6.890625 
Q 36.078125 6.890625 40.9375 10.546875 
Q 45.796875 14.203125 45.796875 21.1875 
Q 45.796875 27.640625 41.28125 31.265625 
Q 36.765625 34.90625 28.71875 34.90625 
L 20.21875 34.90625 
L 20.21875 43.015625 
L 29.109375 43.015625 
Q 36.375 43.015625 40.234375 45.921875 
Q 44.09375 48.828125 44.09375 54.296875 
Q 44.09375 59.90625 40.109375 62.90625 
Q 36.140625 65.921875 28.71875 65.921875 
Q 24.65625 65.921875 20.015625 65.03125 
Q 15.375 64.15625 9.8125 62.3125 
L 9.8125 71.09375 
Q 15.4375 72.65625 20.34375 73.4375 
Q 25.25 74.21875 29.59375 74.21875 
Q 40.828125 74.21875 47.359375 69.109375 
Q 53.90625 64.015625 53.90625 55.328125 
Q 53.90625 49.265625 50.4375 45.09375 
Q 46.96875 40.921875 40.578125 39.3125 
z
" id="DejaVuSans-51"/>
       </defs>
       <use xlink:href="#DejaVuSans-51"/>
       <use x="63.623047" xlink:href="#DejaVuSans-48"/>
      </g>
     </g>
    </g>
    <g id="ytick_5">
     <g id="line2d_11">
      <g>
       <use style="stroke:#000000;stroke-width:0.8;" x="40.603125" xlink:href="#m6fd787a4ca" y="35.386834"/>
      </g>
     </g>
     <g id="text_12">
      <!-- 35 -->
      <g transform="translate(20.878125 39.186053)scale(0.1 -0.1)">
       <use xlink:href="#DejaVuSans-51"/>
       <use x="63.623047" xlink:href="#DejaVuSans-53"/>
      </g>
     </g>
    </g>
    <g id="text_13">
     <!-- Valor de la media -->
     <g transform="translate(14.798438 343.164219)rotate(-90)scale(0.1 -0.1)">
      <defs>
       <path d="M 28.609375 0 
L 0.78125 72.90625 
L 11.078125 72.90625 
L 34.1875 11.53125 
L 57.328125 72.90625 
L 67.578125 72.90625 
L 39.796875 0 
z
" id="DejaVuSans-86"/>
       <path d="M 9.421875 75.984375 
L 18.40625 75.984375 
L 18.40625 0 
L 9.421875 0 
z
" id="DejaVuSans-108"/>
       <path d="M 30.609375 48.390625 
Q 23.390625 48.390625 19.1875 42.75 
Q 14.984375 37.109375 14.984375 27.296875 
Q 14.984375 17.484375 19.15625 11.84375 
Q 23.34375 6.203125 30.609375 6.203125 
Q 37.796875 6.203125 41.984375 11.859375 
Q 46.1875 17.53125 46.1875 27.296875 
Q 46.1875 37.015625 41.984375 42.703125 
Q 37.796875 48.390625 30.609375 48.390625 
z
M 30.609375 56 
Q 42.328125 56 49.015625 48.375 
Q 55.71875 40.765625 55.71875 27.296875 
Q 55.71875 13.875 49.015625 6.21875 
Q 42.328125 -1.421875 30.609375 -1.421875 
Q 18.84375 -1.421875 12.171875 6.21875 
Q 5.515625 13.875 5.515625 27.296875 
Q 5.515625 40.765625 12.171875 48.375 
Q 18.84375 56 30.609375 56 
z
" id="DejaVuSans-111"/>
       <path id="DejaVuSans-32"/>
       <path d="M 56.203125 29.59375 
L 56.203125 25.203125 
L 14.890625 25.203125 
Q 15.484375 15.921875 20.484375 11.0625 
Q 25.484375 6.203125 34.421875 6.203125 
Q 39.59375 6.203125 44.453125 7.46875 
Q 49.3125 8.734375 54.109375 11.28125 
L 54.109375 2.78125 
Q 49.265625 0.734375 44.1875 -0.34375 
Q 39.109375 -1.421875 33.890625 -1.421875 
Q 20.796875 -1.421875 13.15625 6.1875 
Q 5.515625 13.8125 5.515625 26.8125 
Q 5.515625 40.234375 12.765625 48.109375 
Q 20.015625 56 32.328125 56 
Q 43.359375 56 49.78125 48.890625 
Q 56.203125 41.796875 56.203125 29.59375 
z
M 47.21875 32.234375 
Q 47.125 39.59375 43.09375 43.984375 
Q 39.0625 48.390625 32.421875 48.390625 
Q 24.90625 48.390625 20.390625 44.140625 
Q 15.875 39.890625 15.1875 32.171875 
z
" id="DejaVuSans-101"/>
       <path d="M 52 44.1875 
Q 55.375 50.25 60.0625 53.125 
Q 64.75 56 71.09375 56 
Q 79.640625 56 84.28125 50.015625 
Q 88.921875 44.046875 88.921875 33.015625 
L 88.921875 0 
L 79.890625 0 
L 79.890625 32.71875 
Q 79.890625 40.578125 77.09375 44.375 
Q 74.3125 48.1875 68.609375 48.1875 
Q 61.625 48.1875 57.5625 43.546875 
Q 53.515625 38.921875 53.515625 30.90625 
L 53.515625 0 
L 44.484375 0 
L 44.484375 32.71875 
Q 44.484375 40.625 41.703125 44.40625 
Q 38.921875 48.1875 33.109375 48.1875 
Q 26.21875 48.1875 22.15625 43.53125 
Q 18.109375 38.875 18.109375 30.90625 
L 18.109375 0 
L 9.078125 0 
L 9.078125 54.6875 
L 18.109375 54.6875 
L 18.109375 46.1875 
Q 21.1875 51.21875 25.484375 53.609375 
Q 29.78125 56 35.6875 56 
Q 41.65625 56 45.828125 52.96875 
Q 50 49.953125 52 44.1875 
z
" id="DejaVuSans-109"/>
      </defs>
      <use xlink:href="#DejaVuSans-86"/>
      <use x="60.658203" xlink:href="#DejaVuSans-97"/>
      <use x="121.9375" xlink:href="#DejaVuSans-108"/>
      <use x="149.720703" xlink:href="#DejaVuSans-111"/>
      <use x="210.902344" xlink:href="#DejaVuSans-114"/>
      <use x="252.015625" xlink:href="#DejaVuSans-32"/>
      <use x="283.802734" xlink:href="#DejaVuSans-100"/>
      <use x="347.279297" xlink:href="#DejaVuSans-101"/>
      <use x="408.802734" xlink:href="#DejaVuSans-32"/>
      <use x="440.589844" xlink:href="#DejaVuSans-108"/>
      <use x="468.373047" xlink:href="#DejaVuSans-97"/>
      <use x="529.652344" xlink:href="#DejaVuSans-32"/>
      <use x="561.439453" xlink:href="#DejaVuSans-109"/>
      <use x="658.851562" xlink:href="#DejaVuSans-101"/>
      <use x="720.375" xlink:href="#DejaVuSans-100"/>
      <use x="783.851562" xlink:href="#DejaVuSans-105"/>
      <use x="811.634766" xlink:href="#DejaVuSans-97"/>
     </g>
    </g>
   </g>
   <g id="line2d_12">
    <path clip-path="url(#pe746c6dda5)" d="M 40.603125 59.649416 
L 41.559696 47.518125 
L 42.516268 100.087053 
L 43.472839 144.568453 
L 44.429411 142.142195 
L 45.385982 237.575018 
L 46.342554 309.207403 
L 47.299125 368.997337 
L 48.255696 418.196462 
L 50.168839 498.581582 
L 51.125411 490.310248 
L 52.081982 500.108598 
L 53.038554 511.973267 
L 53.995125 514.168453 
L 54.951696 534.286178 
L 55.908268 544.901057 
L 56.864839 534.117687 
L 57.821411 546.178035 
L 58.777982 537.622283 
L 59.734554 547.211779 
L 60.691125 551.518125 
L 61.647696 551.230426 
L 62.604268 528.726002 
L 63.560839 541.989547 
L 64.517411 533.702942 
L 65.473982 526.928774 
L 66.430554 531.903245 
L 67.387125 519.801834 
L 68.343696 505.272173 
L 69.300268 501.854541 
L 70.256839 502.441539 
L 71.213411 508.139569 
L 72.169982 511.361605 
L 73.126554 517.865609 
L 74.083125 522.660357 
L 75.039696 524.572948 
L 75.996268 532.131277 
L 77.909411 544.294493 
L 78.865982 534.840962 
L 79.822554 534.502808 
L 80.779125 540.387088 
L 81.735696 533.321188 
L 82.692268 541.126878 
L 83.648839 533.297214 
L 84.605411 540.255031 
L 85.561982 536.308059 
L 86.518554 526.085177 
L 87.475125 526.946746 
L 88.431696 529.201739 
L 89.388268 527.637297 
L 91.301411 515.24679 
L 92.257982 511.815718 
L 93.214554 507.207403 
L 94.171125 499.355508 
L 95.127696 505.578941 
L 97.040839 505.272173 
L 97.997411 508.706058 
L 98.953982 502.245873 
L 99.910554 498.686615 
L 100.867125 494.480379 
L 101.823696 491.896647 
L 102.780268 488.655981 
L 103.736839 492.754612 
L 104.693411 487.099023 
L 105.649982 491.101419 
L 107.563125 479.973021 
L 108.519696 481.54876 
L 109.476268 475.104588 
L 110.432839 469.490329 
L 111.389411 469.848803 
L 112.345982 470.836333 
L 113.302554 465.496243 
L 114.259125 469.9359 
L 115.215696 470.270583 
L 117.128839 478.104072 
L 118.085411 480.398095 
L 119.041982 479.421318 
L 119.998554 477.312436 
L 120.955125 480.391133 
L 121.911696 478.037895 
L 123.824839 474.043289 
L 124.781411 470.205018 
L 125.737982 472.382895 
L 126.694554 473.44642 
L 127.651125 473.168206 
L 128.607696 468.721767 
L 129.564268 468.757848 
L 130.520839 469.303959 
L 131.477411 472.871517 
L 132.433982 470.362403 
L 133.390554 471.370579 
L 134.347125 474.564077 
L 135.303696 470.900182 
L 136.260268 467.789286 
L 137.216839 468.783153 
L 140.086554 457.093617 
L 141.043125 460.897589 
L 141.999696 461.229162 
L 142.956268 462.902516 
L 143.912839 460.983686 
L 145.825982 459.435565 
L 146.782554 461.281801 
L 147.739125 462.451221 
L 148.695696 459.556361 
L 149.652268 458.610657 
L 150.608839 458.308738 
L 151.565411 459.256216 
L 152.521982 462.449401 
L 153.478554 459.880076 
L 154.435125 458.768891 
L 155.391696 459.28021 
L 156.348268 455.805674 
L 157.304839 452.979405 
L 158.261411 452.742379 
L 159.217982 450.179937 
L 161.131125 451.671608 
L 162.087696 452.968617 
L 163.044268 454.809764 
L 164.000839 455.502774 
L 164.957411 455.629572 
L 165.913982 454.467797 
L 166.870554 455.512597 
L 167.827125 458.533508 
L 168.783696 460.61105 
L 169.740268 457.662803 
L 170.696839 459.362173 
L 171.653411 459.98202 
L 172.609982 457.625582 
L 173.566554 459.462107 
L 174.523125 460.756358 
L 175.479696 463.570148 
L 176.436268 461.763538 
L 177.392839 459.64504 
L 178.349411 461.906294 
L 179.305982 463.139479 
L 180.262554 460.889804 
L 181.219125 458.998402 
L 182.175696 458.597913 
L 183.132268 459.496768 
L 184.088839 457.330811 
L 185.045411 456.47033 
L 186.001982 456.255414 
L 186.958554 457.146134 
L 187.915125 458.964557 
L 188.871696 461.381784 
L 189.828268 460.059289 
L 190.784839 457.52505 
L 191.741411 456.243446 
L 192.697982 457.100838 
L 193.654554 456.440587 
L 194.611125 454.590335 
L 195.567696 456.03749 
L 196.524268 454.80403 
L 197.480839 456.379394 
L 198.437411 455.304896 
L 199.393982 452.935701 
L 200.350554 451.605652 
L 201.307125 450.72204 
L 202.263696 449.991545 
L 203.220268 448.134502 
L 204.176839 447.427544 
L 205.133411 449.25319 
L 206.089982 448.82681 
L 207.046554 448.543946 
L 208.003125 450.056418 
L 209.916268 449.486409 
L 210.872839 450.154997 
L 211.829411 448.659482 
L 212.785982 448.789061 
L 213.742554 446.650931 
L 214.699125 448.513641 
L 215.655696 448.6419 
L 216.612268 447.194983 
L 217.568839 446.546289 
L 218.525411 444.217829 
L 219.481982 445.785828 
L 220.438554 444.641393 
L 221.395125 445.169075 
L 222.351696 446.961524 
L 223.308268 448.356199 
L 224.264839 448.605006 
L 225.221411 447.35047 
L 226.177982 446.979764 
L 227.134554 449.088616 
L 228.091125 447.850729 
L 229.047696 448.831035 
L 230.004268 449.191877 
L 230.960839 451.368803 
L 231.917411 449.661369 
L 232.873982 450.6133 
L 233.830554 449.04593 
L 234.787125 447.731795 
L 235.743696 449.862748 
L 236.700268 450.677438 
L 237.656839 449.022834 
L 238.613411 449.483787 
L 239.569982 447.386373 
L 240.526554 448.428409 
L 241.483125 446.355878 
L 242.439696 448.308514 
L 243.396268 446.256005 
L 244.352839 445.469821 
L 246.265982 444.593253 
L 248.179125 446.737766 
L 249.135696 446.964425 
L 250.092268 446.747884 
L 251.048839 447.192016 
L 252.005411 445.227747 
L 252.961982 446.762721 
L 253.918554 448.067359 
L 254.875125 447.527228 
L 255.831696 447.958085 
L 256.788268 448.812682 
L 257.744839 449.021292 
L 258.701411 448.062629 
L 259.657982 447.428771 
L 260.614554 447.220532 
L 261.571125 445.863707 
L 262.527696 444.102004 
L 263.484268 444.325397 
L 264.440839 444.959868 
L 265.397411 445.074925 
L 266.353982 445.598506 
L 267.310554 446.525462 
L 268.267125 445.414319 
L 269.223696 447.041976 
L 270.180268 446.038586 
L 271.136839 446.747884 
L 272.093411 445.853809 
L 273.049982 446.756924 
L 274.006554 448.543946 
L 274.963125 449.132898 
L 276.876268 449.905222 
L 278.789411 446.977276 
L 279.745982 447.367411 
L 280.702554 447.176768 
L 281.659125 448.234327 
L 282.615696 447.468641 
L 283.572268 445.852634 
L 284.528839 446.902972 
L 285.485411 448.511577 
L 286.441982 447.286483 
L 287.398554 447.757051 
L 288.355125 446.171012 
L 289.311696 445.991527 
L 290.268268 445.165176 
L 291.224839 443.51483 
L 292.181411 442.796024 
L 293.137982 443.272883 
L 294.094554 443.016455 
L 295.051125 441.671495 
L 296.007696 442.599872 
L 296.964268 440.995873 
L 297.920839 440.392231 
L 298.877411 442.03129 
L 299.833982 440.893077 
L 300.790554 439.49658 
L 301.747125 438.995772 
L 302.703696 438.763289 
L 303.660268 437.829228 
L 304.616839 437.077091 
L 305.573411 438.337702 
L 306.529982 438.284836 
L 307.486554 437.279175 
L 308.443125 435.848953 
L 310.356268 437.134041 
L 311.312839 437.42807 
L 312.269411 438.486224 
L 313.225982 438.603801 
L 315.139125 436.309153 
L 316.095696 436.013275 
L 317.052268 436.556079 
L 318.008839 435.927879 
L 318.965411 436.384166 
L 319.921982 436.588916 
L 320.878554 437.287428 
L 321.835125 438.556926 
L 323.748268 437.884281 
L 324.704839 439.138996 
L 326.617982 439.924952 
L 327.574554 439.145218 
L 328.531125 439.174044 
L 329.487696 439.683127 
L 330.444268 440.907161 
L 331.400839 441.089026 
L 332.357411 441.824728 
L 333.313982 442.002419 
L 334.270554 442.730379 
L 335.227125 442.66843 
L 336.183696 442.998213 
L 338.096839 444.973436 
L 339.053411 445.525242 
L 340.009982 446.614419 
L 340.966554 446.310248 
L 341.923125 446.852585 
L 342.879696 445.707662 
L 343.836268 445.943293 
L 344.792839 445.036574 
L 345.749411 444.362983 
L 346.705982 444.449432 
L 347.662554 444.007898 
L 348.619125 443.043282 
L 349.575696 444.256272 
L 350.532268 444.267332 
L 352.445411 446.144186 
L 353.401982 445.335705 
L 354.358554 444.015914 
L 356.271696 445.285199 
L 357.228268 444.562126 
L 358.184839 444.863444 
L 359.141411 444.436533 
L 360.097982 444.808853 
L 361.054554 445.684427 
L 362.011125 444.538922 
L 362.967696 444.692286 
L 363.924268 443.413325 
L 364.880839 442.427328 
L 365.837411 441.233661 
L 366.793982 441.749612 
L 368.707125 444.112599 
L 369.663696 442.85756 
L 370.620268 443.432976 
L 371.576839 443.166023 
L 372.533411 443.876685 
L 373.489982 443.123349 
L 374.446554 444.315324 
L 375.403125 444.463645 
L 376.359696 443.715062 
L 377.316268 442.558324 
L 378.272839 442.641813 
L 379.229411 442.383105 
L 380.185982 441.51247 
L 381.142554 441.870036 
L 382.099125 441.141244 
L 383.055696 440.822014 
L 384.012268 441.650291 
L 384.968839 440.928164 
L 385.925411 441.885619 
L 386.881982 440.698949 
L 387.838554 440.51863 
L 388.795125 441.53581 
L 389.751696 441.354191 
L 390.708268 441.305782 
L 391.664839 441.125774 
L 392.621411 441.341256 
L 393.577982 440.178507 
L 394.534554 439.349016 
L 395.491125 440.3502 
L 397.404268 438.703606 
L 398.360839 439.1809 
L 399.317411 438.494148 
L 402.187125 435.239308 
L 403.143696 435.336345 
L 404.100268 436.069685 
L 405.056839 435.846467 
L 406.013411 435.054276 
L 406.969982 434.645313 
L 407.926554 435.687928 
L 408.883125 435.593725 
L 409.839696 435.311927 
L 410.796268 435.656905 
L 411.752839 434.939792 
L 412.709411 435.159532 
L 413.665982 435.750464 
L 414.622554 436.89543 
L 415.579125 436.244201 
L 416.535696 437.382102 
L 417.492268 438.268545 
L 418.448839 438.844164 
L 420.361982 436.755779 
L 421.318554 435.932268 
L 422.275125 435.537469 
L 423.231696 434.539587 
L 425.144839 434.966876 
L 427.057982 433.472903 
L 428.014554 433.030235 
L 429.927696 433.340753 
L 430.884268 434.266056 
L 431.840839 434.535897 
L 432.797411 435.394756 
L 433.753982 435.24832 
L 434.710554 434.515121 
L 435.667125 433.551043 
L 436.623696 432.767003 
L 437.580268 432.803262 
L 438.536839 432.955715 
L 439.493411 433.687882 
L 440.449982 433.316342 
L 441.406554 433.29318 
L 442.363125 433.500651 
L 443.319696 434.052104 
L 444.276268 434.887742 
L 445.232839 435.547769 
L 446.189411 435.633805 
L 447.145982 435.263803 
L 448.102554 435.634206 
L 449.059125 434.812425 
L 450.015696 434.616593 
L 451.928839 435.97276 
L 453.841982 437.932768 
L 454.798554 437.787907 
L 455.755125 438.424576 
L 456.711696 438.446196 
L 457.668268 438.356675 
L 458.624839 438.045987 
L 459.581411 438.510464 
L 460.537982 438.145696 
L 462.451125 436.7624 
L 464.364268 435.500856 
L 465.320839 435.474086 
L 466.277411 434.740231 
L 467.233982 434.823839 
L 468.190554 435.827753 
L 469.147125 436.502973 
L 470.103696 436.743858 
L 471.060268 437.521647 
L 472.016839 437.061395 
L 472.973411 436.335375 
L 473.929982 436.895158 
L 474.886554 436.226019 
L 475.843125 437.049623 
L 476.799696 436.913985 
L 477.756268 436.090263 
L 478.712839 435.745868 
L 481.582554 433.356199 
L 482.539125 433.439908 
L 483.495696 434.098446 
L 484.452268 433.397535 
L 485.408839 433.168222 
L 486.365411 432.472304 
L 487.321982 433.386497 
L 488.278554 433.05521 
L 489.235125 433.602915 
L 491.148268 433.868902 
L 492.104839 434.616593 
L 493.061411 434.644513 
L 494.017982 434.467999 
L 494.974554 435.107776 
L 495.931125 435.337951 
L 496.887696 435.922472 
L 497.844268 436.707163 
L 498.800839 436.02272 
L 499.757411 435.189797 
L 500.713982 435.87045 
L 501.670554 435.794788 
L 502.627125 436.371119 
L 503.583696 436.044607 
L 504.540268 436.468283 
L 506.453411 437.608737 
L 507.409982 437.282365 
L 508.366554 437.848603 
L 509.323125 438.017218 
L 510.279696 438.875546 
L 511.236268 438.893751 
L 512.192839 439.255685 
L 513.149411 439.027972 
L 514.105982 439.143593 
L 515.062554 440.039837 
L 516.019125 440.737602 
L 516.975696 440.80048 
L 517.932268 440.280803 
L 518.888839 439.424203 
L 519.845411 439.102666 
L 520.801982 439.650652 
L 521.758554 439.570641 
L 522.715125 439.779216 
L 523.671696 440.274666 
L 524.628268 439.428215 
L 525.584839 439.444795 
L 526.541411 439.604311 
L 528.454554 438.069727 
L 529.411125 437.851891 
L 530.367696 437.114655 
L 531.324268 436.710711 
L 532.280839 437.015013 
L 534.193982 437.901662 
L 535.150554 438.76397 
L 536.107125 438.687981 
L 537.063696 437.912402 
L 538.020268 438.583447 
L 538.976839 437.81104 
L 539.933411 437.319933 
L 540.889982 437.895662 
L 541.846554 438.053267 
L 542.803125 438.071894 
L 543.759696 437.399863 
L 544.716268 437.465609 
L 545.672839 437.76043 
L 546.629411 437.184349 
L 547.585982 437.615666 
L 548.542554 438.410213 
L 549.499125 438.200321 
L 551.412268 437.329385 
L 552.368839 437.258482 
L 553.325411 437.639661 
L 554.281982 437.252761 
L 555.238554 437.947634 
L 556.195125 438.41528 
L 557.151696 438.522416 
L 558.108268 438.942512 
L 559.064839 438.422727 
L 560.021411 438.66306 
L 560.977982 438.501844 
L 563.847696 440.36829 
L 564.804268 440.072561 
L 565.760839 440.395499 
L 566.717411 439.616423 
L 567.673982 440.290649 
L 568.630554 439.558454 
L 569.587125 439.135469 
L 570.543696 439.06374 
L 571.500268 439.210457 
L 572.456839 439.225969 
L 573.413411 439.024019 
L 575.326554 439.835412 
L 576.283125 439.373962 
L 577.239696 439.518561 
L 578.196268 439.835027 
L 579.152839 439.978295 
L 580.109411 440.249885 
L 581.065982 441.034915 
L 582.022554 440.790189 
L 582.979125 440.375462 
L 583.935696 439.663707 
L 584.892268 439.380108 
L 586.805411 440.173234 
L 588.718554 441.468064 
L 589.675125 441.225989 
L 590.631696 441.363858 
L 592.544839 441.344327 
L 593.501411 440.727 
L 595.414554 440.584482 
L 596.371125 441.180603 
L 597.327696 441.316895 
L 598.284268 440.871082 
L 599.240839 441.173335 
L 600.197411 440.439462 
L 601.153982 440.86542 
L 602.110554 440.588459 
L 603.067125 439.982897 
L 604.023696 440.489708 
L 604.980268 440.420057 
L 605.936839 439.735879 
L 606.893411 439.381328 
L 607.849982 438.660357 
L 608.806554 438.390361 
L 609.763125 438.56907 
L 611.676268 439.736153 
L 612.632839 439.020607 
L 613.589411 438.954449 
L 614.545982 439.332584 
L 615.502554 439.104914 
L 616.459125 439.722965 
L 617.415696 440.017611 
L 618.372268 440.712316 
L 619.328839 441.124469 
L 620.285411 441.335406 
L 621.241982 441.386028 
L 622.198554 441.874724 
L 623.155125 441.804971 
L 624.111696 441.33835 
L 625.068268 441.111123 
L 626.024839 440.647156 
L 626.981411 440.500826 
L 627.937982 440.157715 
L 628.894554 440.761013 
L 629.851125 440.418593 
L 630.807696 440.312839 
L 631.764268 440.481803 
L 632.720839 440.76762 
L 633.677411 440.857167 
L 634.633982 441.180469 
L 636.547125 441.124084 
L 637.503696 440.630185 
L 638.460268 440.564203 
L 639.416839 439.87929 
L 640.373411 439.621541 
L 641.329982 439.017452 
L 643.243125 439.583764 
L 646.112839 441.000568 
L 648.982554 439.39501 
L 649.939125 440.092787 
L 650.895696 439.573354 
L 652.808839 439.826287 
L 653.765411 440.330084 
L 654.721982 440.266314 
L 655.678554 440.843213 
L 656.635125 440.816461 
L 657.591696 441.052699 
L 659.504839 442.159506 
L 660.461411 442.317813 
L 661.417982 442.027709 
L 662.374554 441.589417 
L 663.331125 441.524596 
L 665.244268 440.356782 
L 666.200839 440.071886 
L 667.157411 440.083744 
L 668.113982 440.538718 
L 669.070554 440.77107 
L 670.027125 441.149985 
L 670.983696 441.380707 
L 671.940268 441.243672 
L 672.896839 441.840059 
L 673.853411 441.592959 
L 674.809982 441.163903 
L 676.723125 442.131171 
L 677.679696 442.139746 
L 678.636268 442.329902 
L 679.592839 442.700824 
L 680.549411 443.360341 
L 681.505982 442.969285 
L 682.462554 442.904339 
L 683.419125 443.055895 
L 684.375696 443.494983 
L 685.332268 442.926323 
L 686.288839 443.292522 
L 687.245411 443.40677 
L 688.201982 442.840756 
L 689.158554 442.848135 
L 690.115125 443.462056 
L 692.028268 443.297048 
L 692.984839 443.836568 
L 693.941411 444.090738 
L 694.897982 443.635769 
L 696.811125 443.75399 
L 697.767696 444.112599 
L 698.724268 443.625025 
L 699.680839 443.455334 
L 700.637411 443.07546 
L 701.593982 443.643345 
L 702.550554 443.544383 
L 703.507125 444.074996 
L 704.463696 443.556776 
L 705.420268 444.016125 
L 706.376839 444.056437 
L 707.333411 444.548515 
L 709.246554 443.379482 
L 710.203125 443.835808 
L 711.159696 443.668717 
L 712.116268 443.087946 
L 713.072839 442.819 
L 714.029411 443.342363 
L 714.985982 442.764522 
L 715.942554 442.806034 
L 717.855696 443.47046 
L 718.812268 443.852529 
L 719.768839 444.0629 
L 720.725411 443.829683 
L 721.681982 443.358919 
L 722.638554 443.467153 
L 724.551696 442.801672 
L 725.508268 442.910231 
L 726.464839 443.356407 
L 727.421411 443.227678 
L 728.377982 443.638475 
L 729.334554 443.879876 
L 730.291125 443.381306 
L 731.247696 443.085464 
L 732.204268 443.293117 
L 733.160839 443.63406 
L 735.073982 443.412045 
L 736.030554 443.88473 
L 736.987125 443.524068 
L 737.943696 444.128251 
L 738.900268 444.564825 
L 739.856839 444.337295 
L 740.813411 444.54069 
L 742.726554 443.625409 
L 743.683125 444.125631 
L 744.639696 444.163607 
L 745.596268 444.760373 
L 746.552839 445.092871 
L 747.509411 445.55562 
L 748.465982 445.59146 
L 749.422554 445.332914 
L 750.379125 444.748515 
L 751.335696 444.361352 
L 752.292268 444.691708 
L 753.248839 444.435754 
L 754.205411 444.992486 
L 755.161982 444.736815 
L 756.118554 444.157893 
L 757.075125 444.227517 
L 758.031696 443.973885 
L 758.988268 444.011304 
L 759.944839 444.403058 
L 760.901411 443.860596 
L 761.857982 443.673066 
L 762.814554 443.710685 
L 765.684268 442.416422 
L 767.597411 442.685764 
L 768.553982 443.042789 
L 772.380268 441.29413 
L 773.336839 441.840441 
L 774.293411 441.311205 
L 775.249982 441.572115 
L 776.206554 441.328191 
L 777.163125 440.801678 
L 778.119696 440.96795 
L 780.032839 440.703612 
L 780.989411 440.305849 
L 781.945982 440.127974 
L 782.902554 440.512625 
L 783.859125 441.083402 
L 785.772268 440.22979 
L 786.728839 440.643406 
L 787.685411 440.652623 
L 788.641982 440.197015 
L 789.598554 440.206778 
L 790.555125 439.907438 
L 791.511696 439.485386 
L 792.468268 439.865966 
L 793.424839 439.999259 
L 794.381411 440.531978 
L 795.337982 439.988424 
L 796.294554 440.305097 
L 797.251125 440.253355 
L 799.164268 439.202982 
L 801.077411 439.163749 
L 802.033982 438.718013 
L 802.990554 438.972691 
L 803.947125 438.983803 
L 804.903696 439.328497 
L 805.860268 439.308846 
L 806.816839 439.531265 
L 807.773411 439.239476 
L 808.729982 439.310541 
L 809.686554 438.808773 
L 810.643125 438.880196 
L 812.556268 439.35282 
L 814.469411 440.092693 
L 815.425982 439.773174 
L 816.382554 439.962402 
L 817.339125 439.972105 
L 818.295696 439.594297 
L 819.252268 439.574658 
L 821.165411 440.277952 
L 822.121982 440.020262 
L 823.078554 439.49658 
L 824.035125 439.447591 
L 825.948268 439.615619 
L 826.904839 439.920432 
L 827.861411 440.047835 
L 828.817982 439.851429 
L 829.774554 440.037355 
L 830.731125 440.369522 
L 832.644268 439.568086 
L 833.600839 439.958082 
L 835.513982 439.597952 
L 836.470554 439.141831 
L 837.427125 439.123181 
L 838.383696 439.598545 
L 839.340268 439.318194 
L 840.296839 439.183451 
L 842.209982 439.464378 
L 843.166554 439.387709 
L 844.123125 439.917067 
L 845.079696 439.926489 
L 846.036268 440.453951 
L 846.992839 440.433968 
L 847.949411 440.29918 
L 849.862554 440.718045 
L 850.819125 440.61201 
L 851.775696 441.134938 
L 852.732268 440.857396 
L 853.688839 441.0937 
L 854.645411 440.589041 
L 855.601982 441.052655 
L 856.558554 440.549226 
L 857.515125 440.273993 
L 858.471696 440.424565 
L 859.428268 440.404919 
L 860.384839 440.07426 
L 862.297982 440.51553 
L 865.167696 441.271999 
L 867.080839 440.866471 
L 868.037411 440.510317 
L 868.993982 440.378861 
L 870.907125 439.614294 
L 871.863696 439.456433 
L 872.820268 439.772487 
L 873.776839 439.670455 
L 874.733411 439.763202 
L 875.689982 439.689174 
L 876.646554 439.421215 
L 877.603125 439.015382 
L 879.516268 439.864526 
L 880.472839 439.818407 
L 881.429411 439.46911 
L 882.385982 439.313385 
L 883.342554 439.488116 
L 885.255696 440.357873 
L 886.212268 440.585662 
L 890.038554 439.062707 
L 890.995125 439.072581 
L 892.908268 438.738661 
L 893.864839 439.129241 
L 895.777982 439.636693 
L 897.691125 439.168133 
L 899.604268 439.916136 
L 900.560839 439.736243 
L 901.517411 440.203034 
L 902.473982 439.942526 
L 903.430554 440.381185 
L 904.387125 439.933183 
L 905.343696 440.210026 
L 906.300268 439.977441 
L 907.256839 439.558115 
L 908.213411 439.406923 
L 910.126554 440.225346 
L 911.083125 440.127185 
L 912.039696 439.736598 
L 912.996268 439.745485 
L 913.952839 439.435807 
L 914.909411 439.259388 
L 915.865982 439.692568 
L 916.822554 439.939593 
L 917.779125 439.578193 
L 918.735696 439.798403 
L 919.692268 440.149996 
L 920.648839 439.868577 
L 921.605411 439.956179 
L 922.561982 439.701866 
L 923.518554 439.763202 
L 924.475125 440.191622 
L 925.431696 440.199893 
L 926.388268 439.867894 
L 927.344839 439.798062 
L 928.301411 440.067899 
L 929.257982 439.632758 
L 930.214554 439.771889 
L 931.171125 439.676426 
L 932.127696 439.841216 
L 934.997411 441.111123 
L 936.910554 440.892696 
L 937.867125 441.23601 
L 938.823696 441.113991 
L 939.780268 440.708609 
L 940.736839 440.638921 
L 943.606554 439.275382 
L 945.519696 438.806704 
L 948.389411 439.116199 
L 949.345982 439.380511 
L 953.172268 439.009495 
L 954.128839 439.044122 
L 955.085411 438.82515 
L 956.998554 437.983777 
L 957.955125 437.81714 
L 958.911696 438.282031 
L 959.868268 438.064989 
L 960.824839 438.075151 
L 961.781411 437.758099 
L 963.694554 437.829228 
L 965.607696 438.652002 
L 966.564268 438.686534 
L 968.477411 439.130192 
L 970.390554 438.998502 
L 971.347125 439.157052 
L 973.260268 439.125149 
L 975.173411 438.324316 
L 977.086554 438.913186 
L 978.043125 438.922297 
L 978.999696 439.326706 
L 979.956268 439.409424 
L 980.912839 439.319374 
L 981.869411 439.62362 
L 982.825982 440.074891 
L 983.782554 440.353173 
L 984.739125 440.041517 
L 985.695696 440.196608 
L 986.652268 440.62097 
L 987.608839 440.383436 
L 988.565411 440.782295 
L 990.478554 440.308337 
L 991.435125 440.486609 
L 992.391696 440.908123 
L 993.348268 440.793408 
L 994.304839 441.21377 
L 996.217982 441.202781 
L 996.217982 441.202781 
" style="fill:none;stroke:#1f77b4;stroke-linecap:square;stroke-width:1.5;"/>
   </g>
   <g id="patch_4">
    <path d="M 40.603125 576.718125 
L 40.603125 22.318125 
" style="fill:none;stroke:#000000;stroke-linecap:square;stroke-linejoin:miter;stroke-width:0.8;"/>
   </g>
   <g id="patch_5">
    <path d="M 1045.003125 576.718125 
L 1045.003125 22.318125 
" style="fill:none;stroke:#000000;stroke-linecap:square;stroke-linejoin:miter;stroke-width:0.8;"/>
   </g>
   <g id="patch_6">
    <path d="M 40.603125 576.718125 
L 1045.003125 576.718125 
" style="fill:none;stroke:#000000;stroke-linecap:square;stroke-linejoin:miter;stroke-width:0.8;"/>
   </g>
   <g id="patch_7">
    <path d="M 40.603125 22.318125 
L 1045.003125 22.318125 
" style="fill:none;stroke:#000000;stroke-linecap:square;stroke-linejoin:miter;stroke-width:0.8;"/>
   </g>
   <g id="text_14">
    <!-- Media a lo largo de 1000 tiradas -->
    <g transform="translate(445.594688 16.318125)scale(0.12 -0.12)">
     <defs>
      <path d="M 9.8125 72.90625 
L 24.515625 72.90625 
L 43.109375 23.296875 
L 61.8125 72.90625 
L 76.515625 72.90625 
L 76.515625 0 
L 66.890625 0 
L 66.890625 64.015625 
L 48.09375 14.015625 
L 38.1875 14.015625 
L 19.390625 64.015625 
L 19.390625 0 
L 9.8125 0 
z
" id="DejaVuSans-77"/>
      <path d="M 45.40625 27.984375 
Q 45.40625 37.75 41.375 43.109375 
Q 37.359375 48.484375 30.078125 48.484375 
Q 22.859375 48.484375 18.828125 43.109375 
Q 14.796875 37.75 14.796875 27.984375 
Q 14.796875 18.265625 18.828125 12.890625 
Q 22.859375 7.515625 30.078125 7.515625 
Q 37.359375 7.515625 41.375 12.890625 
Q 45.40625 18.265625 45.40625 27.984375 
z
M 54.390625 6.78125 
Q 54.390625 -7.171875 48.1875 -13.984375 
Q 42 -20.796875 29.203125 -20.796875 
Q 24.46875 -20.796875 20.265625 -20.09375 
Q 16.0625 -19.390625 12.109375 -17.921875 
L 12.109375 -9.1875 
Q 16.0625 -11.328125 19.921875 -12.34375 
Q 23.78125 -13.375 27.78125 -13.375 
Q 36.625 -13.375 41.015625 -8.765625 
Q 45.40625 -4.15625 45.40625 5.171875 
L 45.40625 9.625 
Q 42.625 4.78125 38.28125 2.390625 
Q 33.9375 0 27.875 0 
Q 17.828125 0 11.671875 7.65625 
Q 5.515625 15.328125 5.515625 27.984375 
Q 5.515625 40.671875 11.671875 48.328125 
Q 17.828125 56 27.875 56 
Q 33.9375 56 38.28125 53.609375 
Q 42.625 51.21875 45.40625 46.390625 
L 45.40625 54.6875 
L 54.390625 54.6875 
z
" id="DejaVuSans-103"/>
      <path d="M 18.3125 70.21875 
L 18.3125 54.6875 
L 36.8125 54.6875 
L 36.8125 47.703125 
L 18.3125 47.703125 
L 18.3125 18.015625 
Q 18.3125 11.328125 20.140625 9.421875 
Q 21.96875 7.515625 27.59375 7.515625 
L 36.8125 7.515625 
L 36.8125 0 
L 27.59375 0 
Q 17.1875 0 13.234375 3.875 
Q 9.28125 7.765625 9.28125 18.015625 
L 9.28125 47.703125 
L 2.6875 47.703125 
L 2.6875 54.6875 
L 9.28125 54.6875 
L 9.28125 70.21875 
z
" id="DejaVuSans-116"/>
      <path d="M 44.28125 53.078125 
L 44.28125 44.578125 
Q 40.484375 46.53125 36.375 47.5 
Q 32.28125 48.484375 27.875 48.484375 
Q 21.1875 48.484375 17.84375 46.4375 
Q 14.5 44.390625 14.5 40.28125 
Q 14.5 37.15625 16.890625 35.375 
Q 19.28125 33.59375 26.515625 31.984375 
L 29.59375 31.296875 
Q 39.15625 29.25 43.1875 25.515625 
Q 47.21875 21.78125 47.21875 15.09375 
Q 47.21875 7.46875 41.1875 3.015625 
Q 35.15625 -1.421875 24.609375 -1.421875 
Q 20.21875 -1.421875 15.453125 -0.5625 
Q 10.6875 0.296875 5.421875 2 
L 5.421875 11.28125 
Q 10.40625 8.6875 15.234375 7.390625 
Q 20.0625 6.109375 24.8125 6.109375 
Q 31.15625 6.109375 34.5625 8.28125 
Q 37.984375 10.453125 37.984375 14.40625 
Q 37.984375 18.0625 35.515625 20.015625 
Q 33.0625 21.96875 24.703125 23.78125 
L 21.578125 24.515625 
Q 13.234375 26.265625 9.515625 29.90625 
Q 5.8125 33.546875 5.8125 39.890625 
Q 5.8125 47.609375 11.28125 51.796875 
Q 16.75 56 26.8125 56 
Q 31.78125 56 36.171875 55.265625 
Q 40.578125 54.546875 44.28125 53.078125 
z
" id="DejaVuSans-115"/>
     </defs>
     <use xlink:href="#DejaVuSans-77"/>
     <use x="86.279297" xlink:href="#DejaVuSans-101"/>
     <use x="147.802734" xlink:href="#DejaVuSans-100"/>
     <use x="211.279297" xlink:href="#DejaVuSans-105"/>
     <use x="239.0625" xlink:href="#DejaVuSans-97"/>
     <use x="300.341797" xlink:href="#DejaVuSans-32"/>
     <use x="332.128906" xlink:href="#DejaVuSans-97"/>
     <use x="393.408203" xlink:href="#DejaVuSans-32"/>
     <use x="425.195312" xlink:href="#DejaVuSans-108"/>
     <use x="452.978516" xlink:href="#DejaVuSans-111"/>
     <use x="514.160156" xlink:href="#DejaVuSans-32"/>
     <use x="545.947266" xlink:href="#DejaVuSans-108"/>
     <use x="573.730469" xlink:href="#DejaVuSans-97"/>
     <use x="635.009766" xlink:href="#DejaVuSans-114"/>
     <use x="674.373047" xlink:href="#DejaVuSans-103"/>
     <use x="737.849609" xlink:href="#DejaVuSans-111"/>
     <use x="799.03125" xlink:href="#DejaVuSans-32"/>
     <use x="830.818359" xlink:href="#DejaVuSans-100"/>
     <use x="894.294922" xlink:href="#DejaVuSans-101"/>
     <use x="955.818359" xlink:href="#DejaVuSans-32"/>
     <use x="987.605469" xlink:href="#DejaVuSans-49"/>
     <use x="1051.228516" xlink:href="#DejaVuSans-48"/>
     <use x="1114.851562" xlink:href="#DejaVuSans-48"/>
     <use x="1178.474609" xlink:href="#DejaVuSans-48"/>
     <use x="1242.097656" xlink:href="#DejaVuSans-32"/>
     <use x="1273.884766" xlink:href="#DejaVuSans-116"/>
     <use x="1313.09375" xlink:href="#DejaVuSans-105"/>
     <use x="1340.876953" xlink:href="#DejaVuSans-114"/>
     <use x="1381.990234" xlink:href="#DejaVuSans-97"/>
     <use x="1443.269531" xlink:href="#DejaVuSans-100"/>
     <use x="1506.746094" xlink:href="#DejaVuSans-97"/>
     <use x="1568.025391" xlink:href="#DejaVuSans-115"/>
    </g>
   </g>
   <g id="legend_1">
    <g id="patch_8">
     <path d="M 886.4625 59.674375 
L 1038.003125 59.674375 
Q 1040.003125 59.674375 1040.003125 57.674375 
L 1040.003125 29.318125 
Q 1040.003125 27.318125 1038.003125 27.318125 
L 886.4625 27.318125 
Q 884.4625 27.318125 884.4625 29.318125 
L 884.4625 57.674375 
Q 884.4625 59.674375 886.4625 59.674375 
z
" style="fill:#ffffff;opacity:0.8;stroke:#cccccc;stroke-linejoin:miter;"/>
    </g>
    <g id="patch_9">
     <path d="M 888.4625 38.916563 
L 908.4625 38.916563 
L 908.4625 31.916563 
L 888.4625 31.916563 
z
" style="fill:#0000ff;stroke:#0000ff;stroke-linejoin:miter;"/>
    </g>
    <g id="text_15">
     <!-- Promedio de la muestra -->
     <g transform="translate(916.4625 38.916563)scale(0.1 -0.1)">
      <defs>
       <path d="M 19.671875 64.796875 
L 19.671875 37.40625 
L 32.078125 37.40625 
Q 38.96875 37.40625 42.71875 40.96875 
Q 46.484375 44.53125 46.484375 51.125 
Q 46.484375 57.671875 42.71875 61.234375 
Q 38.96875 64.796875 32.078125 64.796875 
z
M 9.8125 72.90625 
L 32.078125 72.90625 
Q 44.34375 72.90625 50.609375 67.359375 
Q 56.890625 61.8125 56.890625 51.125 
Q 56.890625 40.328125 50.609375 34.8125 
Q 44.34375 29.296875 32.078125 29.296875 
L 19.671875 29.296875 
L 19.671875 0 
L 9.8125 0 
z
" id="DejaVuSans-80"/>
       <path d="M 8.5 21.578125 
L 8.5 54.6875 
L 17.484375 54.6875 
L 17.484375 21.921875 
Q 17.484375 14.15625 20.5 10.265625 
Q 23.53125 6.390625 29.59375 6.390625 
Q 36.859375 6.390625 41.078125 11.03125 
Q 45.3125 15.671875 45.3125 23.6875 
L 45.3125 54.6875 
L 54.296875 54.6875 
L 54.296875 0 
L 45.3125 0 
L 45.3125 8.40625 
Q 42.046875 3.421875 37.71875 1 
Q 33.40625 -1.421875 27.6875 -1.421875 
Q 18.265625 -1.421875 13.375 4.4375 
Q 8.5 10.296875 8.5 21.578125 
z
M 31.109375 56 
z
" id="DejaVuSans-117"/>
      </defs>
      <use xlink:href="#DejaVuSans-80"/>
      <use x="58.552734" xlink:href="#DejaVuSans-114"/>
      <use x="97.416016" xlink:href="#DejaVuSans-111"/>
      <use x="158.597656" xlink:href="#DejaVuSans-109"/>
      <use x="256.009766" xlink:href="#DejaVuSans-101"/>
      <use x="317.533203" xlink:href="#DejaVuSans-100"/>
      <use x="381.009766" xlink:href="#DejaVuSans-105"/>
      <use x="408.792969" xlink:href="#DejaVuSans-111"/>
      <use x="469.974609" xlink:href="#DejaVuSans-32"/>
      <use x="501.761719" xlink:href="#DejaVuSans-100"/>
      <use x="565.238281" xlink:href="#DejaVuSans-101"/>
      <use x="626.761719" xlink:href="#DejaVuSans-32"/>
      <use x="658.548828" xlink:href="#DejaVuSans-108"/>
      <use x="686.332031" xlink:href="#DejaVuSans-97"/>
      <use x="747.611328" xlink:href="#DejaVuSans-32"/>
      <use x="779.398438" xlink:href="#DejaVuSans-109"/>
      <use x="876.810547" xlink:href="#DejaVuSans-117"/>
      <use x="940.189453" xlink:href="#DejaVuSans-101"/>
      <use x="1001.712891" xlink:href="#DejaVuSans-115"/>
      <use x="1053.8125" xlink:href="#DejaVuSans-116"/>
      <use x="1093.021484" xlink:href="#DejaVuSans-114"/>
      <use x="1134.134766" xlink:href="#DejaVuSans-97"/>
     </g>
    </g>
    <g id="patch_10">
     <path d="M 888.4625 53.594688 
L 908.4625 53.594688 
L 908.4625 46.594688 
L 888.4625 46.594688 
z
" style="fill:#ffa500;stroke:#ffa500;stroke-linejoin:miter;"/>
    </g>
    <g id="text_16">
     <!-- Promedio esperado -->
     <g transform="translate(916.4625 53.594688)scale(0.1 -0.1)">
      <defs>
       <path d="M 18.109375 8.203125 
L 18.109375 -20.796875 
L 9.078125 -20.796875 
L 9.078125 54.6875 
L 18.109375 54.6875 
L 18.109375 46.390625 
Q 20.953125 51.265625 25.265625 53.625 
Q 29.59375 56 35.59375 56 
Q 45.5625 56 51.78125 48.09375 
Q 58.015625 40.1875 58.015625 27.296875 
Q 58.015625 14.40625 51.78125 6.484375 
Q 45.5625 -1.421875 35.59375 -1.421875 
Q 29.59375 -1.421875 25.265625 0.953125 
Q 20.953125 3.328125 18.109375 8.203125 
z
M 48.6875 27.296875 
Q 48.6875 37.203125 44.609375 42.84375 
Q 40.53125 48.484375 33.40625 48.484375 
Q 26.265625 48.484375 22.1875 42.84375 
Q 18.109375 37.203125 18.109375 27.296875 
Q 18.109375 17.390625 22.1875 11.75 
Q 26.265625 6.109375 33.40625 6.109375 
Q 40.53125 6.109375 44.609375 11.75 
Q 48.6875 17.390625 48.6875 27.296875 
z
" id="DejaVuSans-112"/>
      </defs>
      <use xlink:href="#DejaVuSans-80"/>
      <use x="58.552734" xlink:href="#DejaVuSans-114"/>
      <use x="97.416016" xlink:href="#DejaVuSans-111"/>
      <use x="158.597656" xlink:href="#DejaVuSans-109"/>
      <use x="256.009766" xlink:href="#DejaVuSans-101"/>
      <use x="317.533203" xlink:href="#DejaVuSans-100"/>
      <use x="381.009766" xlink:href="#DejaVuSans-105"/>
      <use x="408.792969" xlink:href="#DejaVuSans-111"/>
      <use x="469.974609" xlink:href="#DejaVuSans-32"/>
      <use x="501.761719" xlink:href="#DejaVuSans-101"/>
      <use x="563.285156" xlink:href="#DejaVuSans-115"/>
      <use x="615.384766" xlink:href="#DejaVuSans-112"/>
      <use x="678.861328" xlink:href="#DejaVuSans-101"/>
      <use x="740.384766" xlink:href="#DejaVuSans-114"/>
      <use x="781.498047" xlink:href="#DejaVuSans-97"/>
      <use x="842.777344" xlink:href="#DejaVuSans-100"/>
      <use x="906.253906" xlink:href="#DejaVuSans-111"/>
     </g>
    </g>
   </g>
  </g>
 </g>
 <defs>
  <clipPath id="pe746c6dda5">
   <rect height="554.4" width="1004.4" x="40.603125" y="22.318125"/>
  </clipPath>
 </defs>
</svg>
