<?xml version="1.0" encoding="utf-8" standalone="no"?>
<!DOCTYPE svg PUBLIC "-//W3C//DTD SVG 1.1//EN"
  "http://www.w3.org/Graphics/SVG/1.1/DTD/svg11.dtd">
<!-- Created with matplotlib (https://matplotlib.org/) -->
<svg height="614.274375pt" version="1.1" viewBox="0 0 1052.203125 614.274375" width="1052.203125pt" xmlns="http://www.w3.org/2000/svg" xmlns:xlink="http://www.w3.org/1999/xlink">
 <metadata>
  <rdf:RDF xmlns:cc="http://creativecommons.org/ns#" xmlns:dc="http://purl.org/dc/elements/1.1/" xmlns:rdf="http://www.w3.org/1999/02/22-rdf-syntax-ns#">
   <cc:Work>
    <dc:type rdf:resource="http://purl.org/dc/dcmitype/StillImage"/>
    <dc:date>2021-03-25T00:13:53.273952</dc:date>
    <dc:format>image/svg+xml</dc:format>
    <dc:creator>
     <cc:Agent>
      <dc:title>Matplotlib v3.3.4, https://matplotlib.org/</dc:title>
     </cc:Agent>
    </dc:creator>
   </cc:Work>
  </rdf:RDF>
 </metadata>
 <defs>
  <style type="text/css">*{stroke-linecap:butt;stroke-linejoin:round;}</style>
 </defs>
 <g id="figure_1">
  <g id="patch_1">
   <path d="M 0 614.274375 
L 1052.203125 614.274375 
L 1052.203125 0 
L 0 0 
z
" style="fill:#ffffff;"/>
  </g>
  <g id="axes_1">
   <g id="patch_2">
    <path d="M 40.603125 576.718125 
L 1045.003125 576.718125 
L 1045.003125 22.318125 
L 40.603125 22.318125 
z
" style="fill:#ffffff;"/>
   </g>
   <g id="patch_3">
    <path clip-path="url(#pcc281f3514)" d="M 40.603125 279.870667 
L 997.174554 279.870667 
L 997.174554 276.453718 
L 40.603125 276.453718 
z
" style="fill:#ffa500;"/>
   </g>
   <g id="matplotlib.axis_1">
    <g id="xtick_1">
     <g id="line2d_1">
      <defs>
       <path d="M 0 0 
L 0 3.5 
" id="mcb089b1715" style="stroke:#000000;stroke-width:0.8;"/>
      </defs>
      <g>
       <use style="stroke:#000000;stroke-width:0.8;" x="40.603125" xlink:href="#mcb089b1715" y="576.718125"/>
      </g>
     </g>
     <g id="text_1">
      <!-- 0 -->
      <g transform="translate(37.421875 591.316563)scale(0.1 -0.1)">
       <defs>
        <path d="M 31.78125 66.40625 
Q 24.171875 66.40625 20.328125 58.90625 
Q 16.5 51.421875 16.5 36.375 
Q 16.5 21.390625 20.328125 13.890625 
Q 24.171875 6.390625 31.78125 6.390625 
Q 39.453125 6.390625 43.28125 13.890625 
Q 47.125 21.390625 47.125 36.375 
Q 47.125 51.421875 43.28125 58.90625 
Q 39.453125 66.40625 31.78125 66.40625 
z
M 31.78125 74.21875 
Q 44.046875 74.21875 50.515625 64.515625 
Q 56.984375 54.828125 56.984375 36.375 
Q 56.984375 17.96875 50.515625 8.265625 
Q 44.046875 -1.421875 31.78125 -1.421875 
Q 19.53125 -1.421875 13.0625 8.265625 
Q 6.59375 17.96875 6.59375 36.375 
Q 6.59375 54.828125 13.0625 64.515625 
Q 19.53125 74.21875 31.78125 74.21875 
z
" id="DejaVuSans-48"/>
       </defs>
       <use xlink:href="#DejaVuSans-48"/>
      </g>
     </g>
    </g>
    <g id="xtick_2">
     <g id="line2d_2">
      <g>
       <use style="stroke:#000000;stroke-width:0.8;" x="231.917411" xlink:href="#mcb089b1715" y="576.718125"/>
      </g>
     </g>
     <g id="text_2">
      <!-- 100 -->
      <g transform="translate(222.373661 591.316563)scale(0.1 -0.1)">
       <defs>
        <path d="M 12.40625 8.296875 
L 28.515625 8.296875 
L 28.515625 63.921875 
L 10.984375 60.40625 
L 10.984375 69.390625 
L 28.421875 72.90625 
L 38.28125 72.90625 
L 38.28125 8.296875 
L 54.390625 8.296875 
L 54.390625 0 
L 12.40625 0 
z
" id="DejaVuSans-49"/>
       </defs>
       <use xlink:href="#DejaVuSans-49"/>
       <use x="63.623047" xlink:href="#DejaVuSans-48"/>
       <use x="127.246094" xlink:href="#DejaVuSans-48"/>
      </g>
     </g>
    </g>
    <g id="xtick_3">
     <g id="line2d_3">
      <g>
       <use style="stroke:#000000;stroke-width:0.8;" x="423.231696" xlink:href="#mcb089b1715" y="576.718125"/>
      </g>
     </g>
     <g id="text_3">
      <!-- 200 -->
      <g transform="translate(413.687946 591.316563)scale(0.1 -0.1)">
       <defs>
        <path d="M 19.1875 8.296875 
L 53.609375 8.296875 
L 53.609375 0 
L 7.328125 0 
L 7.328125 8.296875 
Q 12.9375 14.109375 22.625 23.890625 
Q 32.328125 33.6875 34.8125 36.53125 
Q 39.546875 41.84375 41.421875 45.53125 
Q 43.3125 49.21875 43.3125 52.78125 
Q 43.3125 58.59375 39.234375 62.25 
Q 35.15625 65.921875 28.609375 65.921875 
Q 23.96875 65.921875 18.8125 64.3125 
Q 13.671875 62.703125 7.8125 59.421875 
L 7.8125 69.390625 
Q 13.765625 71.78125 18.9375 73 
Q 24.125 74.21875 28.421875 74.21875 
Q 39.75 74.21875 46.484375 68.546875 
Q 53.21875 62.890625 53.21875 53.421875 
Q 53.21875 48.921875 51.53125 44.890625 
Q 49.859375 40.875 45.40625 35.40625 
Q 44.1875 33.984375 37.640625 27.21875 
Q 31.109375 20.453125 19.1875 8.296875 
z
" id="DejaVuSans-50"/>
       </defs>
       <use xlink:href="#DejaVuSans-50"/>
       <use x="63.623047" xlink:href="#DejaVuSans-48"/>
       <use x="127.246094" xlink:href="#DejaVuSans-48"/>
      </g>
     </g>
    </g>
    <g id="xtick_4">
     <g id="line2d_4">
      <g>
       <use style="stroke:#000000;stroke-width:0.8;" x="614.545982" xlink:href="#mcb089b1715" y="576.718125"/>
      </g>
     </g>
     <g id="text_4">
      <!-- 300 -->
      <g transform="translate(605.002232 591.316563)scale(0.1 -0.1)">
       <defs>
        <path d="M 40.578125 39.3125 
Q 47.65625 37.796875 51.625 33 
Q 55.609375 28.21875 55.609375 21.1875 
Q 55.609375 10.40625 48.1875 4.484375 
Q 40.765625 -1.421875 27.09375 -1.421875 
Q 22.515625 -1.421875 17.65625 -0.515625 
Q 12.796875 0.390625 7.625 2.203125 
L 7.625 11.71875 
Q 11.71875 9.328125 16.59375 8.109375 
Q 21.484375 6.890625 26.8125 6.890625 
Q 36.078125 6.890625 40.9375 10.546875 
Q 45.796875 14.203125 45.796875 21.1875 
Q 45.796875 27.640625 41.28125 31.265625 
Q 36.765625 34.90625 28.71875 34.90625 
L 20.21875 34.90625 
L 20.21875 43.015625 
L 29.109375 43.015625 
Q 36.375 43.015625 40.234375 45.921875 
Q 44.09375 48.828125 44.09375 54.296875 
Q 44.09375 59.90625 40.109375 62.90625 
Q 36.140625 65.921875 28.71875 65.921875 
Q 24.65625 65.921875 20.015625 65.03125 
Q 15.375 64.15625 9.8125 62.3125 
L 9.8125 71.09375 
Q 15.4375 72.65625 20.34375 73.4375 
Q 25.25 74.21875 29.59375 74.21875 
Q 40.828125 74.21875 47.359375 69.109375 
Q 53.90625 64.015625 53.90625 55.328125 
Q 53.90625 49.265625 50.4375 45.09375 
Q 46.96875 40.921875 40.578125 39.3125 
z
" id="DejaVuSans-51"/>
       </defs>
       <use xlink:href="#DejaVuSans-51"/>
       <use x="63.623047" xlink:href="#DejaVuSans-48"/>
       <use x="127.246094" xlink:href="#DejaVuSans-48"/>
      </g>
     </g>
    </g>
    <g id="xtick_5">
     <g id="line2d_5">
      <g>
       <use style="stroke:#000000;stroke-width:0.8;" x="805.860268" xlink:href="#mcb089b1715" y="576.718125"/>
      </g>
     </g>
     <g id="text_5">
      <!-- 400 -->
      <g transform="translate(796.316518 591.316563)scale(0.1 -0.1)">
       <defs>
        <path d="M 37.796875 64.3125 
L 12.890625 25.390625 
L 37.796875 25.390625 
z
M 35.203125 72.90625 
L 47.609375 72.90625 
L 47.609375 25.390625 
L 58.015625 25.390625 
L 58.015625 17.1875 
L 47.609375 17.1875 
L 47.609375 0 
L 37.796875 0 
L 37.796875 17.1875 
L 4.890625 17.1875 
L 4.890625 26.703125 
z
" id="DejaVuSans-52"/>
       </defs>
       <use xlink:href="#DejaVuSans-52"/>
       <use x="63.623047" xlink:href="#DejaVuSans-48"/>
       <use x="127.246094" xlink:href="#DejaVuSans-48"/>
      </g>
     </g>
    </g>
    <g id="xtick_6">
     <g id="line2d_6">
      <g>
       <use style="stroke:#000000;stroke-width:0.8;" x="997.174554" xlink:href="#mcb089b1715" y="576.718125"/>
      </g>
     </g>
     <g id="text_6">
      <!-- 500 -->
      <g transform="translate(987.630804 591.316563)scale(0.1 -0.1)">
       <defs>
        <path d="M 10.796875 72.90625 
L 49.515625 72.90625 
L 49.515625 64.59375 
L 19.828125 64.59375 
L 19.828125 46.734375 
Q 21.96875 47.46875 24.109375 47.828125 
Q 26.265625 48.1875 28.421875 48.1875 
Q 40.625 48.1875 47.75 41.5 
Q 54.890625 34.8125 54.890625 23.390625 
Q 54.890625 11.625 47.5625 5.09375 
Q 40.234375 -1.421875 26.90625 -1.421875 
Q 22.3125 -1.421875 17.546875 -0.640625 
Q 12.796875 0.140625 7.71875 1.703125 
L 7.71875 11.625 
Q 12.109375 9.234375 16.796875 8.0625 
Q 21.484375 6.890625 26.703125 6.890625 
Q 35.15625 6.890625 40.078125 11.328125 
Q 45.015625 15.765625 45.015625 23.390625 
Q 45.015625 31 40.078125 35.4375 
Q 35.15625 39.890625 26.703125 39.890625 
Q 22.75 39.890625 18.8125 39.015625 
Q 14.890625 38.140625 10.796875 36.28125 
z
" id="DejaVuSans-53"/>
       </defs>
       <use xlink:href="#DejaVuSans-53"/>
       <use x="63.623047" xlink:href="#DejaVuSans-48"/>
       <use x="127.246094" xlink:href="#DejaVuSans-48"/>
      </g>
     </g>
    </g>
    <g id="text_7">
     <!-- Tirada -->
     <g transform="translate(527.158594 604.994688)scale(0.1 -0.1)">
      <defs>
       <path d="M -0.296875 72.90625 
L 61.375 72.90625 
L 61.375 64.59375 
L 35.5 64.59375 
L 35.5 0 
L 25.59375 0 
L 25.59375 64.59375 
L -0.296875 64.59375 
z
" id="DejaVuSans-84"/>
       <path d="M 9.421875 54.6875 
L 18.40625 54.6875 
L 18.40625 0 
L 9.421875 0 
z
M 9.421875 75.984375 
L 18.40625 75.984375 
L 18.40625 64.59375 
L 9.421875 64.59375 
z
" id="DejaVuSans-105"/>
       <path d="M 41.109375 46.296875 
Q 39.59375 47.171875 37.8125 47.578125 
Q 36.03125 48 33.890625 48 
Q 26.265625 48 22.1875 43.046875 
Q 18.109375 38.09375 18.109375 28.8125 
L 18.109375 0 
L 9.078125 0 
L 9.078125 54.6875 
L 18.109375 54.6875 
L 18.109375 46.1875 
Q 20.953125 51.171875 25.484375 53.578125 
Q 30.03125 56 36.53125 56 
Q 37.453125 56 38.578125 55.875 
Q 39.703125 55.765625 41.0625 55.515625 
z
" id="DejaVuSans-114"/>
       <path d="M 34.28125 27.484375 
Q 23.390625 27.484375 19.1875 25 
Q 14.984375 22.515625 14.984375 16.5 
Q 14.984375 11.71875 18.140625 8.90625 
Q 21.296875 6.109375 26.703125 6.109375 
Q 34.1875 6.109375 38.703125 11.40625 
Q 43.21875 16.703125 43.21875 25.484375 
L 43.21875 27.484375 
z
M 52.203125 31.203125 
L 52.203125 0 
L 43.21875 0 
L 43.21875 8.296875 
Q 40.140625 3.328125 35.546875 0.953125 
Q 30.953125 -1.421875 24.3125 -1.421875 
Q 15.921875 -1.421875 10.953125 3.296875 
Q 6 8.015625 6 15.921875 
Q 6 25.140625 12.171875 29.828125 
Q 18.359375 34.515625 30.609375 34.515625 
L 43.21875 34.515625 
L 43.21875 35.40625 
Q 43.21875 41.609375 39.140625 45 
Q 35.0625 48.390625 27.6875 48.390625 
Q 23 48.390625 18.546875 47.265625 
Q 14.109375 46.140625 10.015625 43.890625 
L 10.015625 52.203125 
Q 14.9375 54.109375 19.578125 55.046875 
Q 24.21875 56 28.609375 56 
Q 40.484375 56 46.34375 49.84375 
Q 52.203125 43.703125 52.203125 31.203125 
z
" id="DejaVuSans-97"/>
       <path d="M 45.40625 46.390625 
L 45.40625 75.984375 
L 54.390625 75.984375 
L 54.390625 0 
L 45.40625 0 
L 45.40625 8.203125 
Q 42.578125 3.328125 38.25 0.953125 
Q 33.9375 -1.421875 27.875 -1.421875 
Q 17.96875 -1.421875 11.734375 6.484375 
Q 5.515625 14.40625 5.515625 27.296875 
Q 5.515625 40.1875 11.734375 48.09375 
Q 17.96875 56 27.875 56 
Q 33.9375 56 38.25 53.625 
Q 42.578125 51.265625 45.40625 46.390625 
z
M 14.796875 27.296875 
Q 14.796875 17.390625 18.875 11.75 
Q 22.953125 6.109375 30.078125 6.109375 
Q 37.203125 6.109375 41.296875 11.75 
Q 45.40625 17.390625 45.40625 27.296875 
Q 45.40625 37.203125 41.296875 42.84375 
Q 37.203125 48.484375 30.078125 48.484375 
Q 22.953125 48.484375 18.875 42.84375 
Q 14.796875 37.203125 14.796875 27.296875 
z
" id="DejaVuSans-100"/>
      </defs>
      <use xlink:href="#DejaVuSans-84"/>
      <use x="57.958984" xlink:href="#DejaVuSans-105"/>
      <use x="85.742188" xlink:href="#DejaVuSans-114"/>
      <use x="126.855469" xlink:href="#DejaVuSans-97"/>
      <use x="188.134766" xlink:href="#DejaVuSans-100"/>
      <use x="251.611328" xlink:href="#DejaVuSans-97"/>
     </g>
    </g>
   </g>
   <g id="matplotlib.axis_2">
    <g id="ytick_1">
     <g id="line2d_7">
      <defs>
       <path d="M 0 0 
L -3.5 0 
" id="mf412eb1a9a" style="stroke:#000000;stroke-width:0.8;"/>
      </defs>
      <g>
       <use style="stroke:#000000;stroke-width:0.8;" x="40.603125" xlink:href="#mf412eb1a9a" y="551.518125"/>
      </g>
     </g>
     <g id="text_8">
      <!-- 10 -->
      <g transform="translate(20.878125 555.317344)scale(0.1 -0.1)">
       <use xlink:href="#DejaVuSans-49"/>
       <use x="63.623047" xlink:href="#DejaVuSans-48"/>
      </g>
     </g>
    </g>
    <g id="ytick_2">
     <g id="line2d_8">
      <g>
       <use style="stroke:#000000;stroke-width:0.8;" x="40.603125" xlink:href="#mf412eb1a9a" y="483.179142"/>
      </g>
     </g>
     <g id="text_9">
      <!-- 12 -->
      <g transform="translate(20.878125 486.978361)scale(0.1 -0.1)">
       <use xlink:href="#DejaVuSans-49"/>
       <use x="63.623047" xlink:href="#DejaVuSans-50"/>
      </g>
     </g>
    </g>
    <g id="ytick_3">
     <g id="line2d_9">
      <g>
       <use style="stroke:#000000;stroke-width:0.8;" x="40.603125" xlink:href="#mf412eb1a9a" y="414.840159"/>
      </g>
     </g>
     <g id="text_10">
      <!-- 14 -->
      <g transform="translate(20.878125 418.639378)scale(0.1 -0.1)">
       <use xlink:href="#DejaVuSans-49"/>
       <use x="63.623047" xlink:href="#DejaVuSans-52"/>
      </g>
     </g>
    </g>
    <g id="ytick_4">
     <g id="line2d_10">
      <g>
       <use style="stroke:#000000;stroke-width:0.8;" x="40.603125" xlink:href="#mf412eb1a9a" y="346.501176"/>
      </g>
     </g>
     <g id="text_11">
      <!-- 16 -->
      <g transform="translate(20.878125 350.300395)scale(0.1 -0.1)">
       <defs>
        <path d="M 33.015625 40.375 
Q 26.375 40.375 22.484375 35.828125 
Q 18.609375 31.296875 18.609375 23.390625 
Q 18.609375 15.53125 22.484375 10.953125 
Q 26.375 6.390625 33.015625 6.390625 
Q 39.65625 6.390625 43.53125 10.953125 
Q 47.40625 15.53125 47.40625 23.390625 
Q 47.40625 31.296875 43.53125 35.828125 
Q 39.65625 40.375 33.015625 40.375 
z
M 52.59375 71.296875 
L 52.59375 62.3125 
Q 48.875 64.0625 45.09375 64.984375 
Q 41.3125 65.921875 37.59375 65.921875 
Q 27.828125 65.921875 22.671875 59.328125 
Q 17.53125 52.734375 16.796875 39.40625 
Q 19.671875 43.65625 24.015625 45.921875 
Q 28.375 48.1875 33.59375 48.1875 
Q 44.578125 48.1875 50.953125 41.515625 
Q 57.328125 34.859375 57.328125 23.390625 
Q 57.328125 12.15625 50.6875 5.359375 
Q 44.046875 -1.421875 33.015625 -1.421875 
Q 20.359375 -1.421875 13.671875 8.265625 
Q 6.984375 17.96875 6.984375 36.375 
Q 6.984375 53.65625 15.1875 63.9375 
Q 23.390625 74.21875 37.203125 74.21875 
Q 40.921875 74.21875 44.703125 73.484375 
Q 48.484375 72.75 52.59375 71.296875 
z
" id="DejaVuSans-54"/>
       </defs>
       <use xlink:href="#DejaVuSans-49"/>
       <use x="63.623047" xlink:href="#DejaVuSans-54"/>
      </g>
     </g>
    </g>
    <g id="ytick_5">
     <g id="line2d_11">
      <g>
       <use style="stroke:#000000;stroke-width:0.8;" x="40.603125" xlink:href="#mf412eb1a9a" y="278.162193"/>
      </g>
     </g>
     <g id="text_12">
      <!-- 18 -->
      <g transform="translate(20.878125 281.961412)scale(0.1 -0.1)">
       <defs>
        <path d="M 31.78125 34.625 
Q 24.75 34.625 20.71875 30.859375 
Q 16.703125 27.09375 16.703125 20.515625 
Q 16.703125 13.921875 20.71875 10.15625 
Q 24.75 6.390625 31.78125 6.390625 
Q 38.8125 6.390625 42.859375 10.171875 
Q 46.921875 13.96875 46.921875 20.515625 
Q 46.921875 27.09375 42.890625 30.859375 
Q 38.875 34.625 31.78125 34.625 
z
M 21.921875 38.8125 
Q 15.578125 40.375 12.03125 44.71875 
Q 8.5 49.078125 8.5 55.328125 
Q 8.5 64.0625 14.71875 69.140625 
Q 20.953125 74.21875 31.78125 74.21875 
Q 42.671875 74.21875 48.875 69.140625 
Q 55.078125 64.0625 55.078125 55.328125 
Q 55.078125 49.078125 51.53125 44.71875 
Q 48 40.375 41.703125 38.8125 
Q 48.828125 37.15625 52.796875 32.3125 
Q 56.78125 27.484375 56.78125 20.515625 
Q 56.78125 9.90625 50.3125 4.234375 
Q 43.84375 -1.421875 31.78125 -1.421875 
Q 19.734375 -1.421875 13.25 4.234375 
Q 6.78125 9.90625 6.78125 20.515625 
Q 6.78125 27.484375 10.78125 32.3125 
Q 14.796875 37.15625 21.921875 38.8125 
z
M 18.3125 54.390625 
Q 18.3125 48.734375 21.84375 45.5625 
Q 25.390625 42.390625 31.78125 42.390625 
Q 38.140625 42.390625 41.71875 45.5625 
Q 45.3125 48.734375 45.3125 54.390625 
Q 45.3125 60.0625 41.71875 63.234375 
Q 38.140625 66.40625 31.78125 66.40625 
Q 25.390625 66.40625 21.84375 63.234375 
Q 18.3125 60.0625 18.3125 54.390625 
z
" id="DejaVuSans-56"/>
       </defs>
       <use xlink:href="#DejaVuSans-49"/>
       <use x="63.623047" xlink:href="#DejaVuSans-56"/>
      </g>
     </g>
    </g>
    <g id="ytick_6">
     <g id="line2d_12">
      <g>
       <use style="stroke:#000000;stroke-width:0.8;" x="40.603125" xlink:href="#mf412eb1a9a" y="209.82321"/>
      </g>
     </g>
     <g id="text_13">
      <!-- 20 -->
      <g transform="translate(20.878125 213.622428)scale(0.1 -0.1)">
       <use xlink:href="#DejaVuSans-50"/>
       <use x="63.623047" xlink:href="#DejaVuSans-48"/>
      </g>
     </g>
    </g>
    <g id="ytick_7">
     <g id="line2d_13">
      <g>
       <use style="stroke:#000000;stroke-width:0.8;" x="40.603125" xlink:href="#mf412eb1a9a" y="141.484227"/>
      </g>
     </g>
     <g id="text_14">
      <!-- 22 -->
      <g transform="translate(20.878125 145.283445)scale(0.1 -0.1)">
       <use xlink:href="#DejaVuSans-50"/>
       <use x="63.623047" xlink:href="#DejaVuSans-50"/>
      </g>
     </g>
    </g>
    <g id="ytick_8">
     <g id="line2d_14">
      <g>
       <use style="stroke:#000000;stroke-width:0.8;" x="40.603125" xlink:href="#mf412eb1a9a" y="73.145244"/>
      </g>
     </g>
     <g id="text_15">
      <!-- 24 -->
      <g transform="translate(20.878125 76.944462)scale(0.1 -0.1)">
       <use xlink:href="#DejaVuSans-50"/>
       <use x="63.623047" xlink:href="#DejaVuSans-52"/>
      </g>
     </g>
    </g>
    <g id="text_16">
     <!-- Valor de la media -->
     <g transform="translate(14.798438 343.164219)rotate(-90)scale(0.1 -0.1)">
      <defs>
       <path d="M 28.609375 0 
L 0.78125 72.90625 
L 11.078125 72.90625 
L 34.1875 11.53125 
L 57.328125 72.90625 
L 67.578125 72.90625 
L 39.796875 0 
z
" id="DejaVuSans-86"/>
       <path d="M 9.421875 75.984375 
L 18.40625 75.984375 
L 18.40625 0 
L 9.421875 0 
z
" id="DejaVuSans-108"/>
       <path d="M 30.609375 48.390625 
Q 23.390625 48.390625 19.1875 42.75 
Q 14.984375 37.109375 14.984375 27.296875 
Q 14.984375 17.484375 19.15625 11.84375 
Q 23.34375 6.203125 30.609375 6.203125 
Q 37.796875 6.203125 41.984375 11.859375 
Q 46.1875 17.53125 46.1875 27.296875 
Q 46.1875 37.015625 41.984375 42.703125 
Q 37.796875 48.390625 30.609375 48.390625 
z
M 30.609375 56 
Q 42.328125 56 49.015625 48.375 
Q 55.71875 40.765625 55.71875 27.296875 
Q 55.71875 13.875 49.015625 6.21875 
Q 42.328125 -1.421875 30.609375 -1.421875 
Q 18.84375 -1.421875 12.171875 6.21875 
Q 5.515625 13.875 5.515625 27.296875 
Q 5.515625 40.765625 12.171875 48.375 
Q 18.84375 56 30.609375 56 
z
" id="DejaVuSans-111"/>
       <path id="DejaVuSans-32"/>
       <path d="M 56.203125 29.59375 
L 56.203125 25.203125 
L 14.890625 25.203125 
Q 15.484375 15.921875 20.484375 11.0625 
Q 25.484375 6.203125 34.421875 6.203125 
Q 39.59375 6.203125 44.453125 7.46875 
Q 49.3125 8.734375 54.109375 11.28125 
L 54.109375 2.78125 
Q 49.265625 0.734375 44.1875 -0.34375 
Q 39.109375 -1.421875 33.890625 -1.421875 
Q 20.796875 -1.421875 13.15625 6.1875 
Q 5.515625 13.8125 5.515625 26.8125 
Q 5.515625 40.234375 12.765625 48.109375 
Q 20.015625 56 32.328125 56 
Q 43.359375 56 49.78125 48.890625 
Q 56.203125 41.796875 56.203125 29.59375 
z
M 47.21875 32.234375 
Q 47.125 39.59375 43.09375 43.984375 
Q 39.0625 48.390625 32.421875 48.390625 
Q 24.90625 48.390625 20.390625 44.140625 
Q 15.875 39.890625 15.1875 32.171875 
z
" id="DejaVuSans-101"/>
       <path d="M 52 44.1875 
Q 55.375 50.25 60.0625 53.125 
Q 64.75 56 71.09375 56 
Q 79.640625 56 84.28125 50.015625 
Q 88.921875 44.046875 88.921875 33.015625 
L 88.921875 0 
L 79.890625 0 
L 79.890625 32.71875 
Q 79.890625 40.578125 77.09375 44.375 
Q 74.3125 48.1875 68.609375 48.1875 
Q 61.625 48.1875 57.5625 43.546875 
Q 53.515625 38.921875 53.515625 30.90625 
L 53.515625 0 
L 44.484375 0 
L 44.484375 32.71875 
Q 44.484375 40.625 41.703125 44.40625 
Q 38.921875 48.1875 33.109375 48.1875 
Q 26.21875 48.1875 22.15625 43.53125 
Q 18.109375 38.875 18.109375 30.90625 
L 18.109375 0 
L 9.078125 0 
L 9.078125 54.6875 
L 18.109375 54.6875 
L 18.109375 46.1875 
Q 21.1875 51.21875 25.484375 53.609375 
Q 29.78125 56 35.6875 56 
Q 41.65625 56 45.828125 52.96875 
Q 50 49.953125 52 44.1875 
z
" id="DejaVuSans-109"/>
      </defs>
      <use xlink:href="#DejaVuSans-86"/>
      <use x="60.658203" xlink:href="#DejaVuSans-97"/>
      <use x="121.9375" xlink:href="#DejaVuSans-108"/>
      <use x="149.720703" xlink:href="#DejaVuSans-111"/>
      <use x="210.902344" xlink:href="#DejaVuSans-114"/>
      <use x="252.015625" xlink:href="#DejaVuSans-32"/>
      <use x="283.802734" xlink:href="#DejaVuSans-100"/>
      <use x="347.279297" xlink:href="#DejaVuSans-101"/>
      <use x="408.802734" xlink:href="#DejaVuSans-32"/>
      <use x="440.589844" xlink:href="#DejaVuSans-108"/>
      <use x="468.373047" xlink:href="#DejaVuSans-97"/>
      <use x="529.652344" xlink:href="#DejaVuSans-32"/>
      <use x="561.439453" xlink:href="#DejaVuSans-109"/>
      <use x="658.851562" xlink:href="#DejaVuSans-101"/>
      <use x="720.375" xlink:href="#DejaVuSans-100"/>
      <use x="783.851562" xlink:href="#DejaVuSans-105"/>
      <use x="811.634766" xlink:href="#DejaVuSans-97"/>
     </g>
    </g>
   </g>
   <g id="line2d_15">
    <path clip-path="url(#pcc281f3514)" d="M 40.603125 551.518125 
L 42.516268 141.484227 
L 44.429411 164.263888 
L 46.342554 47.518125 
L 48.255696 141.484227 
L 50.168839 215.518125 
L 52.081982 312.331684 
L 53.995125 342.229989 
L 55.908268 354.094396 
L 57.821411 288.41304 
L 59.734554 309.225367 
L 63.560839 338.615909 
L 65.473982 302.568972 
L 67.387125 294.107956 
L 69.300268 297.382532 
L 71.213411 274.142253 
L 73.126554 299.043549 
L 75.039696 315.928473 
L 76.952839 324.291006 
L 78.865982 294.433379 
L 80.779125 304.565891 
L 82.692268 312.331684 
L 84.605411 299.518125 
L 86.518554 305.497786 
L 88.431696 299.189572 
L 90.344839 319.924905 
L 92.257982 306.229989 
L 94.171125 317.044718 
L 96.084268 323.721515 
L 97.997411 320.047376 
L 99.910554 308.060498 
L 101.823696 320.615197 
L 103.736839 302.281834 
L 105.649982 311.355413 
L 107.563125 327.518125 
L 109.476268 321.566682 
L 111.389411 323.12205 
L 113.302554 332.482923 
L 115.215696 333.687617 
L 117.128839 344.834371 
L 119.041982 352.196091 
L 120.955125 358.420766 
L 122.868268 352.713811 
L 124.781411 360.928294 
L 126.694554 368.042812 
L 128.607696 371.946542 
L 130.520839 373.552023 
L 132.433982 368.815946 
L 134.347125 376.570328 
L 136.260268 383.350627 
L 138.173411 377.385139 
L 140.086554 375.513008 
L 141.999696 369.913605 
L 143.912839 376.321823 
L 145.825982 376.399481 
L 147.739125 377.673344 
L 149.652268 367.709826 
L 151.565411 370.825221 
L 153.478554 372.697786 
L 157.304839 375.159459 
L 159.217982 363.857108 
L 161.131125 360.382532 
L 163.044268 350.706652 
L 164.957411 350.125213 
L 166.870554 341.911244 
L 168.783696 336.451325 
L 170.696839 340.063446 
L 172.609982 331.368972 
L 174.523125 330.619581 
L 176.436268 328.941854 
L 178.349411 327.778167 
L 180.262554 319.719682 
L 182.175696 315.065244 
L 184.088839 317.277269 
L 186.001982 312.331684 
L 187.915125 304.008347 
L 189.828268 300.220978 
L 191.741411 306.352023 
L 193.654554 307.269537 
L 195.567696 299.41395 
L 197.480839 302.039669 
L 199.393982 296.467278 
L 201.307125 293.839959 
L 203.220268 291.671062 
L 205.133411 289.159271 
L 207.046554 283.986538 
L 208.959696 289.296072 
L 210.872839 295.246939 
L 212.785982 300.691528 
L 214.699125 301.189459 
L 216.612268 303.513751 
L 218.525411 303.971064 
L 220.438554 307.655859 
L 222.351696 303.789311 
L 224.264839 303.172852 
L 226.177982 297.687617 
L 228.091125 296.454951 
L 231.917411 289.326482 
L 233.830554 284.192103 
L 235.743696 284.13356 
L 237.656839 283.090485 
L 239.569982 284.996091 
L 241.483125 286.221035 
L 243.396268 291.893858 
L 245.309411 293.665018 
L 247.222554 299.165458 
L 249.135696 298.974519 
L 251.048839 298.171355 
L 252.961982 294.636769 
L 254.875125 299.329134 
L 256.788268 302.440516 
L 258.701411 299.852392 
L 260.614554 304.378441 
L 262.527696 300.35776 
L 264.440839 301.617522 
L 266.353982 300.846141 
L 268.267125 300.941854 
L 270.180268 296.235312 
L 272.093411 297.207483 
L 274.006554 302.053057 
L 275.919696 297.175861 
L 277.832839 299.757311 
L 279.745982 301.755413 
L 281.659125 303.452998 
L 283.572268 299.251176 
L 285.485411 303.590652 
L 287.398554 304.709259 
L 289.311696 305.549953 
L 291.224839 308.448788 
L 293.137982 308.477982 
L 295.051125 307.486756 
L 296.964268 309.041289 
L 298.877411 311.829192 
L 300.790554 312.581097 
L 302.703696 312.331684 
L 304.616839 309.135976 
L 306.529982 309.646939 
L 308.443125 308.696632 
L 310.356268 309.444122 
L 312.269411 313.048527 
L 314.182554 310.670667 
L 316.095696 312.802988 
L 319.921982 306.985437 
L 321.835125 310.484685 
L 323.748268 313.478312 
L 325.661411 312.559481 
L 329.487696 309.858892 
L 331.400839 310.768374 
L 333.313982 312.109805 
L 335.227125 314.095271 
L 337.140268 313.645896 
L 339.053411 315.813925 
L 340.966554 318.6033 
L 342.879696 315.340319 
L 344.792839 318.952023 
L 346.705982 321.457698 
L 348.619125 322.666901 
L 350.532268 320.926464 
L 352.445411 319.415603 
L 354.358554 319.37267 
L 356.271696 317.477692 
L 358.184839 313.559331 
L 360.097982 313.552023 
L 362.011125 310.309821 
L 363.924268 310.522711 
L 365.837411 306.936501 
L 367.750554 309.153127 
L 369.663696 309.566523 
L 371.576839 305.851264 
L 373.489982 309.207617 
L 375.403125 310.97267 
L 377.316268 312.138636 
L 379.229411 314.443282 
L 381.142554 315.958614 
L 383.055696 317.646939 
L 384.968839 315.16341 
L 386.881982 315.147851 
L 388.795125 314.012151 
L 390.708268 314.931537 
L 392.621411 313.809284 
L 394.534554 313.433926 
L 396.447696 313.245307 
L 398.360839 314.14921 
L 400.273982 311.42773 
L 402.187125 309.634093 
L 404.100268 306.606953 
L 406.013411 306.992701 
L 407.926554 305.9581 
L 409.839696 304.581903 
L 411.752839 301.29231 
L 413.665982 301.871636 
L 415.579125 299.669893 
L 417.492268 302.149866 
L 419.405411 302.887855 
L 421.318554 304.643549 
L 423.231696 307.061763 
L 425.144839 304.381357 
L 427.057982 302.568972 
L 428.971125 301.276849 
L 430.884268 302.664218 
L 432.797411 300.554821 
L 434.710554 300.446644 
L 436.623696 301.982271 
L 438.536839 300.069905 
L 440.449982 297.524905 
L 442.363125 298.080901 
L 444.276268 299.27636 
L 446.189411 299.016812 
L 448.102554 301.474089 
L 450.015696 302.160301 
L 451.928839 302.998351 
L 453.841982 301.93912 
L 455.755125 301.203088 
L 457.668268 302.346079 
L 459.581411 301.148942 
L 461.494554 299.189572 
L 463.407696 297.401771 
L 465.320839 297.009042 
L 467.233982 295.094396 
L 469.147125 296.537786 
L 471.060268 296.154093 
L 472.973411 293.365359 
L 474.886554 295.246939 
L 476.799696 296.216815 
L 478.712839 296.435443 
L 482.539125 291.712164 
L 484.452268 289.014306 
L 486.365411 287.945765 
L 490.191696 285.11192 
L 492.104839 284.650071 
L 494.017982 284.622811 
L 495.931125 285.024685 
L 497.844268 286.277447 
L 499.757411 285.109517 
L 501.670554 283.104061 
L 503.583696 281.536957 
L 505.496839 279.422543 
L 507.409982 281.230474 
L 509.323125 281.079101 
L 513.149411 281.055577 
L 515.062554 279.671688 
L 516.975696 280.212362 
L 518.888839 279.795794 
L 520.801982 278.0266 
L 522.715125 277.081735 
L 524.628268 278.027667 
L 526.541411 276.018225 
L 530.367696 278.826969 
L 532.280839 279.883911 
L 534.193982 280.536906 
L 536.107125 282.236248 
L 538.020268 279.864121 
L 539.933411 281.42264 
L 541.846554 282.579542 
L 543.759696 284.763117 
L 545.672839 283.706676 
L 547.585982 284.071203 
L 551.412268 285.939577 
L 553.325411 285.656617 
L 555.238554 283.350893 
L 557.151696 285.601307 
L 559.064839 284.820219 
L 560.977982 282.542897 
L 562.891125 284.77162 
L 564.804268 285.120344 
L 566.717411 283.857108 
L 568.630554 285.316816 
L 570.543696 284.061961 
L 572.456839 285.387999 
L 574.369982 284.141854 
L 576.283125 283.634175 
L 578.196268 283.614771 
L 580.109411 281.42218 
L 582.022554 280.568495 
L 583.935696 278.401979 
L 585.848839 278.40114 
L 587.761982 279.828997 
L 589.675125 277.687617 
L 591.588268 278.043959 
L 593.501411 277.219586 
L 595.414554 276.870563 
L 597.327696 275.353741 
L 599.240839 273.380796 
L 601.153982 272.932169 
L 603.067125 273.297384 
L 604.980268 274.583631 
L 606.893411 276.436461 
L 608.806554 274.492986 
L 610.719696 275.990887 
L 612.632839 275.314735 
L 614.545982 273.734916 
L 616.459125 273.297 
L 618.372268 272.636433 
L 620.285411 270.968616 
L 622.198554 272.000481 
L 624.111696 272.243948 
L 626.024839 271.81802 
L 627.937982 270.285459 
L 629.851125 271.859083 
L 633.677411 272.668705 
L 635.590554 273.562454 
L 637.503696 273.686317 
L 639.416839 271.850631 
L 643.243125 270.917396 
L 645.156268 269.000026 
L 647.069411 269.995899 
L 648.982554 268.950355 
L 650.895696 270.260498 
L 652.808839 269.859326 
L 654.721982 268.505597 
L 656.635125 268.006554 
L 658.548268 269.514359 
L 660.461411 267.858777 
L 662.374554 268.833712 
L 664.287696 270.22066 
L 666.200839 272.015851 
L 668.113982 270.684371 
L 670.027125 271.535382 
L 671.940268 270.213399 
L 673.853411 271.369463 
L 677.679696 271.717049 
L 679.592839 271.124298 
L 681.505982 269.518125 
L 683.419125 271.166065 
L 687.245411 268.788261 
L 689.158554 268.91633 
L 691.071696 267.640795 
L 692.984839 266.672451 
L 694.897982 266.805569 
L 696.811125 268.129871 
L 698.724268 267.66374 
L 700.637411 269.274175 
L 702.550554 269.792144 
L 704.463696 269.325255 
L 706.376839 270.917086 
L 708.289982 271.035413 
L 710.203125 272.029207 
L 712.116268 271.270051 
L 714.029411 270.321601 
L 715.942554 270.536798 
L 717.855696 271.328294 
L 719.768839 270.19571 
L 721.681982 270.0266 
L 723.595125 270.526552 
L 725.508268 270.167103 
L 729.334554 271.441877 
L 731.247696 270.13897 
L 733.160839 270.537596 
L 735.073982 269.525948 
L 736.987125 270.860219 
L 738.900268 271.440326 
L 740.813411 272.296585 
L 742.726554 272.869636 
L 744.639696 273.809981 
L 746.552839 275.484043 
L 748.465982 275.951767 
L 750.379125 276.968098 
L 752.292268 278.162193 
L 754.205411 277.705381 
L 756.118554 276.33982 
L 758.031696 277.98044 
L 759.944839 278.434099 
L 761.857982 278.61417 
L 763.771125 280.055489 
L 765.684268 281.309383 
L 767.597411 281.928908 
L 769.510554 281.650701 
L 771.423696 282.712177 
L 773.336839 283.32321 
L 775.249982 284.286076 
L 777.163125 285.598041 
L 779.076268 286.020293 
L 780.989411 284.76712 
L 782.902554 286.331249 
L 784.815696 285.083705 
L 788.641982 282.171878 
L 790.555125 282.161675 
L 792.468268 280.590482 
L 794.381411 281.535889 
L 796.294554 281.095937 
L 798.207696 282.551724 
L 800.120839 283.141666 
L 805.860268 281.911464 
L 807.773411 283.432114 
L 809.686554 283.927765 
L 813.512839 283.139971 
L 815.425982 284.474291 
L 817.339125 285.298327 
L 819.252268 284.778344 
L 821.165411 284.427992 
L 823.078554 284.41271 
L 824.991696 284.064952 
L 826.904839 283.304204 
L 828.817982 283.705427 
L 832.644268 281.126293 
L 834.557411 281.365583 
L 836.470554 280.374606 
L 838.383696 278.8979 
L 840.296839 279.059244 
L 842.209982 280.196091 
L 846.036268 283.020414 
L 847.949411 281.635687 
L 849.862554 281.788672 
L 851.775696 282.584127 
L 855.601982 281.763193 
L 857.515125 280.637086 
L 859.428268 280.551668 
L 863.254554 279.113548 
L 865.167696 278.004001 
L 870.907125 276.119878 
L 872.820268 274.870636 
L 874.733411 276.207416 
L 876.646554 276.992005 
L 878.559696 277.461679 
L 880.472839 276.453718 
L 882.385982 277.387374 
L 884.299125 277.77566 
L 886.212268 278.933513 
L 888.125411 279.085693 
L 890.038554 277.701481 
L 891.951696 277.702514 
L 893.864839 277.932867 
L 895.777982 279.306261 
L 897.691125 279.76032 
L 899.604268 279.984566 
L 901.517411 280.813927 
L 903.430554 281.034849 
L 905.343696 280.349644 
L 907.256839 281.699563 
L 909.169982 282.067278 
L 911.083125 281.384316 
L 912.996268 280.255728 
L 914.909411 281.370245 
L 916.822554 280.618823 
L 918.735696 281.950549 
L 924.475125 284.878011 
L 926.388268 285.158102 
L 928.301411 285.951367 
L 930.214554 284.834776 
L 932.127696 284.527815 
L 934.040839 284.441202 
L 935.953982 285.739223 
L 937.867125 286.232009 
L 939.780268 287.375623 
L 941.693411 286.197815 
L 943.606554 286.253066 
L 945.519696 286.524347 
L 947.432839 286.506742 
L 949.345982 286.202073 
L 951.259125 285.755413 
L 953.172268 284.595779 
L 955.085411 285.581039 
L 956.998554 286.704566 
L 958.911696 286.757845 
L 960.824839 285.534863 
L 962.737982 285.731832 
L 964.651125 286.422173 
L 966.564268 286.686953 
L 968.477411 287.934949 
L 970.390554 287.564065 
L 972.303696 288.174974 
L 974.216839 287.874993 
L 976.129982 288.064372 
L 978.043125 287.905021 
L 979.956268 287.190717 
L 981.869411 285.994145 
L 983.782554 286.393305 
L 985.695696 285.13415 
L 987.608839 284.775643 
L 993.348268 283.160936 
L 995.261411 282.39921 
L 995.261411 282.39921 
" style="fill:none;stroke:#1f77b4;stroke-linecap:square;stroke-width:1.5;"/>
   </g>
   <g id="patch_4">
    <path d="M 40.603125 576.718125 
L 40.603125 22.318125 
" style="fill:none;stroke:#000000;stroke-linecap:square;stroke-linejoin:miter;stroke-width:0.8;"/>
   </g>
   <g id="patch_5">
    <path d="M 1045.003125 576.718125 
L 1045.003125 22.318125 
" style="fill:none;stroke:#000000;stroke-linecap:square;stroke-linejoin:miter;stroke-width:0.8;"/>
   </g>
   <g id="patch_6">
    <path d="M 40.603125 576.718125 
L 1045.003125 576.718125 
" style="fill:none;stroke:#000000;stroke-linecap:square;stroke-linejoin:miter;stroke-width:0.8;"/>
   </g>
   <g id="patch_7">
    <path d="M 40.603125 22.318125 
L 1045.003125 22.318125 
" style="fill:none;stroke:#000000;stroke-linecap:square;stroke-linejoin:miter;stroke-width:0.8;"/>
   </g>
   <g id="text_17">
    <!-- Media a lo largo de 500 tiradas -->
    <g transform="translate(449.412188 16.318125)scale(0.12 -0.12)">
     <defs>
      <path d="M 9.8125 72.90625 
L 24.515625 72.90625 
L 43.109375 23.296875 
L 61.8125 72.90625 
L 76.515625 72.90625 
L 76.515625 0 
L 66.890625 0 
L 66.890625 64.015625 
L 48.09375 14.015625 
L 38.1875 14.015625 
L 19.390625 64.015625 
L 19.390625 0 
L 9.8125 0 
z
" id="DejaVuSans-77"/>
      <path d="M 45.40625 27.984375 
Q 45.40625 37.75 41.375 43.109375 
Q 37.359375 48.484375 30.078125 48.484375 
Q 22.859375 48.484375 18.828125 43.109375 
Q 14.796875 37.75 14.796875 27.984375 
Q 14.796875 18.265625 18.828125 12.890625 
Q 22.859375 7.515625 30.078125 7.515625 
Q 37.359375 7.515625 41.375 12.890625 
Q 45.40625 18.265625 45.40625 27.984375 
z
M 54.390625 6.78125 
Q 54.390625 -7.171875 48.1875 -13.984375 
Q 42 -20.796875 29.203125 -20.796875 
Q 24.46875 -20.796875 20.265625 -20.09375 
Q 16.0625 -19.390625 12.109375 -17.921875 
L 12.109375 -9.1875 
Q 16.0625 -11.328125 19.921875 -12.34375 
Q 23.78125 -13.375 27.78125 -13.375 
Q 36.625 -13.375 41.015625 -8.765625 
Q 45.40625 -4.15625 45.40625 5.171875 
L 45.40625 9.625 
Q 42.625 4.78125 38.28125 2.390625 
Q 33.9375 0 27.875 0 
Q 17.828125 0 11.671875 7.65625 
Q 5.515625 15.328125 5.515625 27.984375 
Q 5.515625 40.671875 11.671875 48.328125 
Q 17.828125 56 27.875 56 
Q 33.9375 56 38.28125 53.609375 
Q 42.625 51.21875 45.40625 46.390625 
L 45.40625 54.6875 
L 54.390625 54.6875 
z
" id="DejaVuSans-103"/>
      <path d="M 18.3125 70.21875 
L 18.3125 54.6875 
L 36.8125 54.6875 
L 36.8125 47.703125 
L 18.3125 47.703125 
L 18.3125 18.015625 
Q 18.3125 11.328125 20.140625 9.421875 
Q 21.96875 7.515625 27.59375 7.515625 
L 36.8125 7.515625 
L 36.8125 0 
L 27.59375 0 
Q 17.1875 0 13.234375 3.875 
Q 9.28125 7.765625 9.28125 18.015625 
L 9.28125 47.703125 
L 2.6875 47.703125 
L 2.6875 54.6875 
L 9.28125 54.6875 
L 9.28125 70.21875 
z
" id="DejaVuSans-116"/>
      <path d="M 44.28125 53.078125 
L 44.28125 44.578125 
Q 40.484375 46.53125 36.375 47.5 
Q 32.28125 48.484375 27.875 48.484375 
Q 21.1875 48.484375 17.84375 46.4375 
Q 14.5 44.390625 14.5 40.28125 
Q 14.5 37.15625 16.890625 35.375 
Q 19.28125 33.59375 26.515625 31.984375 
L 29.59375 31.296875 
Q 39.15625 29.25 43.1875 25.515625 
Q 47.21875 21.78125 47.21875 15.09375 
Q 47.21875 7.46875 41.1875 3.015625 
Q 35.15625 -1.421875 24.609375 -1.421875 
Q 20.21875 -1.421875 15.453125 -0.5625 
Q 10.6875 0.296875 5.421875 2 
L 5.421875 11.28125 
Q 10.40625 8.6875 15.234375 7.390625 
Q 20.0625 6.109375 24.8125 6.109375 
Q 31.15625 6.109375 34.5625 8.28125 
Q 37.984375 10.453125 37.984375 14.40625 
Q 37.984375 18.0625 35.515625 20.015625 
Q 33.0625 21.96875 24.703125 23.78125 
L 21.578125 24.515625 
Q 13.234375 26.265625 9.515625 29.90625 
Q 5.8125 33.546875 5.8125 39.890625 
Q 5.8125 47.609375 11.28125 51.796875 
Q 16.75 56 26.8125 56 
Q 31.78125 56 36.171875 55.265625 
Q 40.578125 54.546875 44.28125 53.078125 
z
" id="DejaVuSans-115"/>
     </defs>
     <use xlink:href="#DejaVuSans-77"/>
     <use x="86.279297" xlink:href="#DejaVuSans-101"/>
     <use x="147.802734" xlink:href="#DejaVuSans-100"/>
     <use x="211.279297" xlink:href="#DejaVuSans-105"/>
     <use x="239.0625" xlink:href="#DejaVuSans-97"/>
     <use x="300.341797" xlink:href="#DejaVuSans-32"/>
     <use x="332.128906" xlink:href="#DejaVuSans-97"/>
     <use x="393.408203" xlink:href="#DejaVuSans-32"/>
     <use x="425.195312" xlink:href="#DejaVuSans-108"/>
     <use x="452.978516" xlink:href="#DejaVuSans-111"/>
     <use x="514.160156" xlink:href="#DejaVuSans-32"/>
     <use x="545.947266" xlink:href="#DejaVuSans-108"/>
     <use x="573.730469" xlink:href="#DejaVuSans-97"/>
     <use x="635.009766" xlink:href="#DejaVuSans-114"/>
     <use x="674.373047" xlink:href="#DejaVuSans-103"/>
     <use x="737.849609" xlink:href="#DejaVuSans-111"/>
     <use x="799.03125" xlink:href="#DejaVuSans-32"/>
     <use x="830.818359" xlink:href="#DejaVuSans-100"/>
     <use x="894.294922" xlink:href="#DejaVuSans-101"/>
     <use x="955.818359" xlink:href="#DejaVuSans-32"/>
     <use x="987.605469" xlink:href="#DejaVuSans-53"/>
     <use x="1051.228516" xlink:href="#DejaVuSans-48"/>
     <use x="1114.851562" xlink:href="#DejaVuSans-48"/>
     <use x="1178.474609" xlink:href="#DejaVuSans-32"/>
     <use x="1210.261719" xlink:href="#DejaVuSans-116"/>
     <use x="1249.470703" xlink:href="#DejaVuSans-105"/>
     <use x="1277.253906" xlink:href="#DejaVuSans-114"/>
     <use x="1318.367188" xlink:href="#DejaVuSans-97"/>
     <use x="1379.646484" xlink:href="#DejaVuSans-100"/>
     <use x="1443.123047" xlink:href="#DejaVuSans-97"/>
     <use x="1504.402344" xlink:href="#DejaVuSans-115"/>
    </g>
   </g>
   <g id="legend_1">
    <g id="patch_8">
     <path d="M 886.4625 59.674375 
L 1038.003125 59.674375 
Q 1040.003125 59.674375 1040.003125 57.674375 
L 1040.003125 29.318125 
Q 1040.003125 27.318125 1038.003125 27.318125 
L 886.4625 27.318125 
Q 884.4625 27.318125 884.4625 29.318125 
L 884.4625 57.674375 
Q 884.4625 59.674375 886.4625 59.674375 
z
" style="fill:#ffffff;opacity:0.8;stroke:#cccccc;stroke-linejoin:miter;"/>
    </g>
    <g id="patch_9">
     <path d="M 888.4625 38.916563 
L 908.4625 38.916563 
L 908.4625 31.916563 
L 888.4625 31.916563 
z
" style="fill:#0000ff;stroke:#0000ff;stroke-linejoin:miter;"/>
    </g>
    <g id="text_18">
     <!-- Promedio de la muestra -->
     <g transform="translate(916.4625 38.916563)scale(0.1 -0.1)">
      <defs>
       <path d="M 19.671875 64.796875 
L 19.671875 37.40625 
L 32.078125 37.40625 
Q 38.96875 37.40625 42.71875 40.96875 
Q 46.484375 44.53125 46.484375 51.125 
Q 46.484375 57.671875 42.71875 61.234375 
Q 38.96875 64.796875 32.078125 64.796875 
z
M 9.8125 72.90625 
L 32.078125 72.90625 
Q 44.34375 72.90625 50.609375 67.359375 
Q 56.890625 61.8125 56.890625 51.125 
Q 56.890625 40.328125 50.609375 34.8125 
Q 44.34375 29.296875 32.078125 29.296875 
L 19.671875 29.296875 
L 19.671875 0 
L 9.8125 0 
z
" id="DejaVuSans-80"/>
       <path d="M 8.5 21.578125 
L 8.5 54.6875 
L 17.484375 54.6875 
L 17.484375 21.921875 
Q 17.484375 14.15625 20.5 10.265625 
Q 23.53125 6.390625 29.59375 6.390625 
Q 36.859375 6.390625 41.078125 11.03125 
Q 45.3125 15.671875 45.3125 23.6875 
L 45.3125 54.6875 
L 54.296875 54.6875 
L 54.296875 0 
L 45.3125 0 
L 45.3125 8.40625 
Q 42.046875 3.421875 37.71875 1 
Q 33.40625 -1.421875 27.6875 -1.421875 
Q 18.265625 -1.421875 13.375 4.4375 
Q 8.5 10.296875 8.5 21.578125 
z
M 31.109375 56 
z
" id="DejaVuSans-117"/>
      </defs>
      <use xlink:href="#DejaVuSans-80"/>
      <use x="58.552734" xlink:href="#DejaVuSans-114"/>
      <use x="97.416016" xlink:href="#DejaVuSans-111"/>
      <use x="158.597656" xlink:href="#DejaVuSans-109"/>
      <use x="256.009766" xlink:href="#DejaVuSans-101"/>
      <use x="317.533203" xlink:href="#DejaVuSans-100"/>
      <use x="381.009766" xlink:href="#DejaVuSans-105"/>
      <use x="408.792969" xlink:href="#DejaVuSans-111"/>
      <use x="469.974609" xlink:href="#DejaVuSans-32"/>
      <use x="501.761719" xlink:href="#DejaVuSans-100"/>
      <use x="565.238281" xlink:href="#DejaVuSans-101"/>
      <use x="626.761719" xlink:href="#DejaVuSans-32"/>
      <use x="658.548828" xlink:href="#DejaVuSans-108"/>
      <use x="686.332031" xlink:href="#DejaVuSans-97"/>
      <use x="747.611328" xlink:href="#DejaVuSans-32"/>
      <use x="779.398438" xlink:href="#DejaVuSans-109"/>
      <use x="876.810547" xlink:href="#DejaVuSans-117"/>
      <use x="940.189453" xlink:href="#DejaVuSans-101"/>
      <use x="1001.712891" xlink:href="#DejaVuSans-115"/>
      <use x="1053.8125" xlink:href="#DejaVuSans-116"/>
      <use x="1093.021484" xlink:href="#DejaVuSans-114"/>
      <use x="1134.134766" xlink:href="#DejaVuSans-97"/>
     </g>
    </g>
    <g id="patch_10">
     <path d="M 888.4625 53.594688 
L 908.4625 53.594688 
L 908.4625 46.594688 
L 888.4625 46.594688 
z
" style="fill:#ffa500;stroke:#ffa500;stroke-linejoin:miter;"/>
    </g>
    <g id="text_19">
     <!-- Promedio esperado -->
     <g transform="translate(916.4625 53.594688)scale(0.1 -0.1)">
      <defs>
       <path d="M 18.109375 8.203125 
L 18.109375 -20.796875 
L 9.078125 -20.796875 
L 9.078125 54.6875 
L 18.109375 54.6875 
L 18.109375 46.390625 
Q 20.953125 51.265625 25.265625 53.625 
Q 29.59375 56 35.59375 56 
Q 45.5625 56 51.78125 48.09375 
Q 58.015625 40.1875 58.015625 27.296875 
Q 58.015625 14.40625 51.78125 6.484375 
Q 45.5625 -1.421875 35.59375 -1.421875 
Q 29.59375 -1.421875 25.265625 0.953125 
Q 20.953125 3.328125 18.109375 8.203125 
z
M 48.6875 27.296875 
Q 48.6875 37.203125 44.609375 42.84375 
Q 40.53125 48.484375 33.40625 48.484375 
Q 26.265625 48.484375 22.1875 42.84375 
Q 18.109375 37.203125 18.109375 27.296875 
Q 18.109375 17.390625 22.1875 11.75 
Q 26.265625 6.109375 33.40625 6.109375 
Q 40.53125 6.109375 44.609375 11.75 
Q 48.6875 17.390625 48.6875 27.296875 
z
" id="DejaVuSans-112"/>
      </defs>
      <use xlink:href="#DejaVuSans-80"/>
      <use x="58.552734" xlink:href="#DejaVuSans-114"/>
      <use x="97.416016" xlink:href="#DejaVuSans-111"/>
      <use x="158.597656" xlink:href="#DejaVuSans-109"/>
      <use x="256.009766" xlink:href="#DejaVuSans-101"/>
      <use x="317.533203" xlink:href="#DejaVuSans-100"/>
      <use x="381.009766" xlink:href="#DejaVuSans-105"/>
      <use x="408.792969" xlink:href="#DejaVuSans-111"/>
      <use x="469.974609" xlink:href="#DejaVuSans-32"/>
      <use x="501.761719" xlink:href="#DejaVuSans-101"/>
      <use x="563.285156" xlink:href="#DejaVuSans-115"/>
      <use x="615.384766" xlink:href="#DejaVuSans-112"/>
      <use x="678.861328" xlink:href="#DejaVuSans-101"/>
      <use x="740.384766" xlink:href="#DejaVuSans-114"/>
      <use x="781.498047" xlink:href="#DejaVuSans-97"/>
      <use x="842.777344" xlink:href="#DejaVuSans-100"/>
      <use x="906.253906" xlink:href="#DejaVuSans-111"/>
     </g>
    </g>
   </g>
  </g>
 </g>
 <defs>
  <clipPath id="pcc281f3514">
   <rect height="554.4" width="1004.4" x="40.603125" y="22.318125"/>
  </clipPath>
 </defs>
</svg>
