<?xml version="1.0" encoding="utf-8" standalone="no"?>
<!DOCTYPE svg PUBLIC "-//W3C//DTD SVG 1.1//EN"
  "http://www.w3.org/Graphics/SVG/1.1/DTD/svg11.dtd">
<!-- Created with matplotlib (https://matplotlib.org/) -->
<svg height="614.274375pt" version="1.1" viewBox="0 0 1058.565625 614.274375" width="1058.565625pt" xmlns="http://www.w3.org/2000/svg" xmlns:xlink="http://www.w3.org/1999/xlink">
 <metadata>
  <rdf:RDF xmlns:cc="http://creativecommons.org/ns#" xmlns:dc="http://purl.org/dc/elements/1.1/" xmlns:rdf="http://www.w3.org/1999/02/22-rdf-syntax-ns#">
   <cc:Work>
    <dc:type rdf:resource="http://purl.org/dc/dcmitype/StillImage"/>
    <dc:date>2021-03-25T00:13:56.197469</dc:date>
    <dc:format>image/svg+xml</dc:format>
    <dc:creator>
     <cc:Agent>
      <dc:title>Matplotlib v3.3.4, https://matplotlib.org/</dc:title>
     </cc:Agent>
    </dc:creator>
   </cc:Work>
  </rdf:RDF>
 </metadata>
 <defs>
  <style type="text/css">*{stroke-linecap:butt;stroke-linejoin:round;}</style>
 </defs>
 <g id="figure_1">
  <g id="patch_1">
   <path d="M 0 614.274375 
L 1058.565625 614.274375 
L 1058.565625 0 
L 0 0 
z
" style="fill:#ffffff;"/>
  </g>
  <g id="axes_1">
   <g id="patch_2">
    <path d="M 46.965625 576.718125 
L 1051.365625 576.718125 
L 1051.365625 22.318125 
L 46.965625 22.318125 
z
" style="fill:#ffffff;"/>
   </g>
   <g id="matplotlib.axis_1">
    <g id="xtick_1">
     <g id="line2d_1">
      <defs>
       <path d="M 0 0 
L 0 3.5 
" id="m2a12a5d82f" style="stroke:#000000;stroke-width:0.8;"/>
      </defs>
      <g>
       <use style="stroke:#000000;stroke-width:0.8;" x="92.62017" xlink:href="#m2a12a5d82f" y="576.718125"/>
      </g>
     </g>
     <g id="text_1">
      <!-- 0 -->
      <g transform="translate(89.43892 591.316563)scale(0.1 -0.1)">
       <defs>
        <path d="M 31.78125 66.40625 
Q 24.171875 66.40625 20.328125 58.90625 
Q 16.5 51.421875 16.5 36.375 
Q 16.5 21.390625 20.328125 13.890625 
Q 24.171875 6.390625 31.78125 6.390625 
Q 39.453125 6.390625 43.28125 13.890625 
Q 47.125 21.390625 47.125 36.375 
Q 47.125 51.421875 43.28125 58.90625 
Q 39.453125 66.40625 31.78125 66.40625 
z
M 31.78125 74.21875 
Q 44.046875 74.21875 50.515625 64.515625 
Q 56.984375 54.828125 56.984375 36.375 
Q 56.984375 17.96875 50.515625 8.265625 
Q 44.046875 -1.421875 31.78125 -1.421875 
Q 19.53125 -1.421875 13.0625 8.265625 
Q 6.59375 17.96875 6.59375 36.375 
Q 6.59375 54.828125 13.0625 64.515625 
Q 19.53125 74.21875 31.78125 74.21875 
z
" id="DejaVuSans-48"/>
       </defs>
       <use xlink:href="#DejaVuSans-48"/>
      </g>
     </g>
    </g>
    <g id="xtick_2">
     <g id="line2d_2">
      <g>
       <use style="stroke:#000000;stroke-width:0.8;" x="275.604321" xlink:href="#m2a12a5d82f" y="576.718125"/>
      </g>
     </g>
     <g id="text_2">
      <!-- 100 -->
      <g transform="translate(266.060571 591.316563)scale(0.1 -0.1)">
       <defs>
        <path d="M 12.40625 8.296875 
L 28.515625 8.296875 
L 28.515625 63.921875 
L 10.984375 60.40625 
L 10.984375 69.390625 
L 28.421875 72.90625 
L 38.28125 72.90625 
L 38.28125 8.296875 
L 54.390625 8.296875 
L 54.390625 0 
L 12.40625 0 
z
" id="DejaVuSans-49"/>
       </defs>
       <use xlink:href="#DejaVuSans-49"/>
       <use x="63.623047" xlink:href="#DejaVuSans-48"/>
       <use x="127.246094" xlink:href="#DejaVuSans-48"/>
      </g>
     </g>
    </g>
    <g id="xtick_3">
     <g id="line2d_3">
      <g>
       <use style="stroke:#000000;stroke-width:0.8;" x="458.588471" xlink:href="#m2a12a5d82f" y="576.718125"/>
      </g>
     </g>
     <g id="text_3">
      <!-- 200 -->
      <g transform="translate(449.044721 591.316563)scale(0.1 -0.1)">
       <defs>
        <path d="M 19.1875 8.296875 
L 53.609375 8.296875 
L 53.609375 0 
L 7.328125 0 
L 7.328125 8.296875 
Q 12.9375 14.109375 22.625 23.890625 
Q 32.328125 33.6875 34.8125 36.53125 
Q 39.546875 41.84375 41.421875 45.53125 
Q 43.3125 49.21875 43.3125 52.78125 
Q 43.3125 58.59375 39.234375 62.25 
Q 35.15625 65.921875 28.609375 65.921875 
Q 23.96875 65.921875 18.8125 64.3125 
Q 13.671875 62.703125 7.8125 59.421875 
L 7.8125 69.390625 
Q 13.765625 71.78125 18.9375 73 
Q 24.125 74.21875 28.421875 74.21875 
Q 39.75 74.21875 46.484375 68.546875 
Q 53.21875 62.890625 53.21875 53.421875 
Q 53.21875 48.921875 51.53125 44.890625 
Q 49.859375 40.875 45.40625 35.40625 
Q 44.1875 33.984375 37.640625 27.21875 
Q 31.109375 20.453125 19.1875 8.296875 
z
" id="DejaVuSans-50"/>
       </defs>
       <use xlink:href="#DejaVuSans-50"/>
       <use x="63.623047" xlink:href="#DejaVuSans-48"/>
       <use x="127.246094" xlink:href="#DejaVuSans-48"/>
      </g>
     </g>
    </g>
    <g id="xtick_4">
     <g id="line2d_4">
      <g>
       <use style="stroke:#000000;stroke-width:0.8;" x="641.572621" xlink:href="#m2a12a5d82f" y="576.718125"/>
      </g>
     </g>
     <g id="text_4">
      <!-- 300 -->
      <g transform="translate(632.028871 591.316563)scale(0.1 -0.1)">
       <defs>
        <path d="M 40.578125 39.3125 
Q 47.65625 37.796875 51.625 33 
Q 55.609375 28.21875 55.609375 21.1875 
Q 55.609375 10.40625 48.1875 4.484375 
Q 40.765625 -1.421875 27.09375 -1.421875 
Q 22.515625 -1.421875 17.65625 -0.515625 
Q 12.796875 0.390625 7.625 2.203125 
L 7.625 11.71875 
Q 11.71875 9.328125 16.59375 8.109375 
Q 21.484375 6.890625 26.8125 6.890625 
Q 36.078125 6.890625 40.9375 10.546875 
Q 45.796875 14.203125 45.796875 21.1875 
Q 45.796875 27.640625 41.28125 31.265625 
Q 36.765625 34.90625 28.71875 34.90625 
L 20.21875 34.90625 
L 20.21875 43.015625 
L 29.109375 43.015625 
Q 36.375 43.015625 40.234375 45.921875 
Q 44.09375 48.828125 44.09375 54.296875 
Q 44.09375 59.90625 40.109375 62.90625 
Q 36.140625 65.921875 28.71875 65.921875 
Q 24.65625 65.921875 20.015625 65.03125 
Q 15.375 64.15625 9.8125 62.3125 
L 9.8125 71.09375 
Q 15.4375 72.65625 20.34375 73.4375 
Q 25.25 74.21875 29.59375 74.21875 
Q 40.828125 74.21875 47.359375 69.109375 
Q 53.90625 64.015625 53.90625 55.328125 
Q 53.90625 49.265625 50.4375 45.09375 
Q 46.96875 40.921875 40.578125 39.3125 
z
" id="DejaVuSans-51"/>
       </defs>
       <use xlink:href="#DejaVuSans-51"/>
       <use x="63.623047" xlink:href="#DejaVuSans-48"/>
       <use x="127.246094" xlink:href="#DejaVuSans-48"/>
      </g>
     </g>
    </g>
    <g id="xtick_5">
     <g id="line2d_5">
      <g>
       <use style="stroke:#000000;stroke-width:0.8;" x="824.556771" xlink:href="#m2a12a5d82f" y="576.718125"/>
      </g>
     </g>
     <g id="text_5">
      <!-- 400 -->
      <g transform="translate(815.013021 591.316563)scale(0.1 -0.1)">
       <defs>
        <path d="M 37.796875 64.3125 
L 12.890625 25.390625 
L 37.796875 25.390625 
z
M 35.203125 72.90625 
L 47.609375 72.90625 
L 47.609375 25.390625 
L 58.015625 25.390625 
L 58.015625 17.1875 
L 47.609375 17.1875 
L 47.609375 0 
L 37.796875 0 
L 37.796875 17.1875 
L 4.890625 17.1875 
L 4.890625 26.703125 
z
" id="DejaVuSans-52"/>
       </defs>
       <use xlink:href="#DejaVuSans-52"/>
       <use x="63.623047" xlink:href="#DejaVuSans-48"/>
       <use x="127.246094" xlink:href="#DejaVuSans-48"/>
      </g>
     </g>
    </g>
    <g id="xtick_6">
     <g id="line2d_6">
      <g>
       <use style="stroke:#000000;stroke-width:0.8;" x="1007.540921" xlink:href="#m2a12a5d82f" y="576.718125"/>
      </g>
     </g>
     <g id="text_6">
      <!-- 500 -->
      <g transform="translate(997.997171 591.316563)scale(0.1 -0.1)">
       <defs>
        <path d="M 10.796875 72.90625 
L 49.515625 72.90625 
L 49.515625 64.59375 
L 19.828125 64.59375 
L 19.828125 46.734375 
Q 21.96875 47.46875 24.109375 47.828125 
Q 26.265625 48.1875 28.421875 48.1875 
Q 40.625 48.1875 47.75 41.5 
Q 54.890625 34.8125 54.890625 23.390625 
Q 54.890625 11.625 47.5625 5.09375 
Q 40.234375 -1.421875 26.90625 -1.421875 
Q 22.3125 -1.421875 17.546875 -0.640625 
Q 12.796875 0.140625 7.71875 1.703125 
L 7.71875 11.625 
Q 12.109375 9.234375 16.796875 8.0625 
Q 21.484375 6.890625 26.703125 6.890625 
Q 35.15625 6.890625 40.078125 11.328125 
Q 45.015625 15.765625 45.015625 23.390625 
Q 45.015625 31 40.078125 35.4375 
Q 35.15625 39.890625 26.703125 39.890625 
Q 22.75 39.890625 18.8125 39.015625 
Q 14.890625 38.140625 10.796875 36.28125 
z
" id="DejaVuSans-53"/>
       </defs>
       <use xlink:href="#DejaVuSans-53"/>
       <use x="63.623047" xlink:href="#DejaVuSans-48"/>
       <use x="127.246094" xlink:href="#DejaVuSans-48"/>
      </g>
     </g>
    </g>
    <g id="text_7">
     <!-- Tiradas -->
     <g transform="translate(530.916406 604.994688)scale(0.1 -0.1)">
      <defs>
       <path d="M -0.296875 72.90625 
L 61.375 72.90625 
L 61.375 64.59375 
L 35.5 64.59375 
L 35.5 0 
L 25.59375 0 
L 25.59375 64.59375 
L -0.296875 64.59375 
z
" id="DejaVuSans-84"/>
       <path d="M 9.421875 54.6875 
L 18.40625 54.6875 
L 18.40625 0 
L 9.421875 0 
z
M 9.421875 75.984375 
L 18.40625 75.984375 
L 18.40625 64.59375 
L 9.421875 64.59375 
z
" id="DejaVuSans-105"/>
       <path d="M 41.109375 46.296875 
Q 39.59375 47.171875 37.8125 47.578125 
Q 36.03125 48 33.890625 48 
Q 26.265625 48 22.1875 43.046875 
Q 18.109375 38.09375 18.109375 28.8125 
L 18.109375 0 
L 9.078125 0 
L 9.078125 54.6875 
L 18.109375 54.6875 
L 18.109375 46.1875 
Q 20.953125 51.171875 25.484375 53.578125 
Q 30.03125 56 36.53125 56 
Q 37.453125 56 38.578125 55.875 
Q 39.703125 55.765625 41.0625 55.515625 
z
" id="DejaVuSans-114"/>
       <path d="M 34.28125 27.484375 
Q 23.390625 27.484375 19.1875 25 
Q 14.984375 22.515625 14.984375 16.5 
Q 14.984375 11.71875 18.140625 8.90625 
Q 21.296875 6.109375 26.703125 6.109375 
Q 34.1875 6.109375 38.703125 11.40625 
Q 43.21875 16.703125 43.21875 25.484375 
L 43.21875 27.484375 
z
M 52.203125 31.203125 
L 52.203125 0 
L 43.21875 0 
L 43.21875 8.296875 
Q 40.140625 3.328125 35.546875 0.953125 
Q 30.953125 -1.421875 24.3125 -1.421875 
Q 15.921875 -1.421875 10.953125 3.296875 
Q 6 8.015625 6 15.921875 
Q 6 25.140625 12.171875 29.828125 
Q 18.359375 34.515625 30.609375 34.515625 
L 43.21875 34.515625 
L 43.21875 35.40625 
Q 43.21875 41.609375 39.140625 45 
Q 35.0625 48.390625 27.6875 48.390625 
Q 23 48.390625 18.546875 47.265625 
Q 14.109375 46.140625 10.015625 43.890625 
L 10.015625 52.203125 
Q 14.9375 54.109375 19.578125 55.046875 
Q 24.21875 56 28.609375 56 
Q 40.484375 56 46.34375 49.84375 
Q 52.203125 43.703125 52.203125 31.203125 
z
" id="DejaVuSans-97"/>
       <path d="M 45.40625 46.390625 
L 45.40625 75.984375 
L 54.390625 75.984375 
L 54.390625 0 
L 45.40625 0 
L 45.40625 8.203125 
Q 42.578125 3.328125 38.25 0.953125 
Q 33.9375 -1.421875 27.875 -1.421875 
Q 17.96875 -1.421875 11.734375 6.484375 
Q 5.515625 14.40625 5.515625 27.296875 
Q 5.515625 40.1875 11.734375 48.09375 
Q 17.96875 56 27.875 56 
Q 33.9375 56 38.25 53.625 
Q 42.578125 51.265625 45.40625 46.390625 
z
M 14.796875 27.296875 
Q 14.796875 17.390625 18.875 11.75 
Q 22.953125 6.109375 30.078125 6.109375 
Q 37.203125 6.109375 41.296875 11.75 
Q 45.40625 17.390625 45.40625 27.296875 
Q 45.40625 37.203125 41.296875 42.84375 
Q 37.203125 48.484375 30.078125 48.484375 
Q 22.953125 48.484375 18.875 42.84375 
Q 14.796875 37.203125 14.796875 27.296875 
z
" id="DejaVuSans-100"/>
       <path d="M 44.28125 53.078125 
L 44.28125 44.578125 
Q 40.484375 46.53125 36.375 47.5 
Q 32.28125 48.484375 27.875 48.484375 
Q 21.1875 48.484375 17.84375 46.4375 
Q 14.5 44.390625 14.5 40.28125 
Q 14.5 37.15625 16.890625 35.375 
Q 19.28125 33.59375 26.515625 31.984375 
L 29.59375 31.296875 
Q 39.15625 29.25 43.1875 25.515625 
Q 47.21875 21.78125 47.21875 15.09375 
Q 47.21875 7.46875 41.1875 3.015625 
Q 35.15625 -1.421875 24.609375 -1.421875 
Q 20.21875 -1.421875 15.453125 -0.5625 
Q 10.6875 0.296875 5.421875 2 
L 5.421875 11.28125 
Q 10.40625 8.6875 15.234375 7.390625 
Q 20.0625 6.109375 24.8125 6.109375 
Q 31.15625 6.109375 34.5625 8.28125 
Q 37.984375 10.453125 37.984375 14.40625 
Q 37.984375 18.0625 35.515625 20.015625 
Q 33.0625 21.96875 24.703125 23.78125 
L 21.578125 24.515625 
Q 13.234375 26.265625 9.515625 29.90625 
Q 5.8125 33.546875 5.8125 39.890625 
Q 5.8125 47.609375 11.28125 51.796875 
Q 16.75 56 26.8125 56 
Q 31.78125 56 36.171875 55.265625 
Q 40.578125 54.546875 44.28125 53.078125 
z
" id="DejaVuSans-115"/>
      </defs>
      <use xlink:href="#DejaVuSans-84"/>
      <use x="57.958984" xlink:href="#DejaVuSans-105"/>
      <use x="85.742188" xlink:href="#DejaVuSans-114"/>
      <use x="126.855469" xlink:href="#DejaVuSans-97"/>
      <use x="188.134766" xlink:href="#DejaVuSans-100"/>
      <use x="251.611328" xlink:href="#DejaVuSans-97"/>
      <use x="312.890625" xlink:href="#DejaVuSans-115"/>
     </g>
    </g>
   </g>
   <g id="matplotlib.axis_2">
    <g id="ytick_1">
     <g id="line2d_7">
      <defs>
       <path d="M 0 0 
L -3.5 0 
" id="m7314106967" style="stroke:#000000;stroke-width:0.8;"/>
      </defs>
      <g>
       <use style="stroke:#000000;stroke-width:0.8;" x="46.965625" xlink:href="#m7314106967" y="551.518125"/>
      </g>
     </g>
     <g id="text_8">
      <!-- 0 -->
      <g transform="translate(33.603125 555.317344)scale(0.1 -0.1)">
       <use xlink:href="#DejaVuSans-48"/>
      </g>
     </g>
    </g>
    <g id="ytick_2">
     <g id="line2d_8">
      <g>
       <use style="stroke:#000000;stroke-width:0.8;" x="46.965625" xlink:href="#m7314106967" y="484.952087"/>
      </g>
     </g>
     <g id="text_9">
      <!-- 20 -->
      <g transform="translate(27.240625 488.751306)scale(0.1 -0.1)">
       <use xlink:href="#DejaVuSans-50"/>
       <use x="63.623047" xlink:href="#DejaVuSans-48"/>
      </g>
     </g>
    </g>
    <g id="ytick_3">
     <g id="line2d_9">
      <g>
       <use style="stroke:#000000;stroke-width:0.8;" x="46.965625" xlink:href="#m7314106967" y="418.38605"/>
      </g>
     </g>
     <g id="text_10">
      <!-- 40 -->
      <g transform="translate(27.240625 422.185268)scale(0.1 -0.1)">
       <use xlink:href="#DejaVuSans-52"/>
       <use x="63.623047" xlink:href="#DejaVuSans-48"/>
      </g>
     </g>
    </g>
    <g id="ytick_4">
     <g id="line2d_10">
      <g>
       <use style="stroke:#000000;stroke-width:0.8;" x="46.965625" xlink:href="#m7314106967" y="351.820012"/>
      </g>
     </g>
     <g id="text_11">
      <!-- 60 -->
      <g transform="translate(27.240625 355.619231)scale(0.1 -0.1)">
       <defs>
        <path d="M 33.015625 40.375 
Q 26.375 40.375 22.484375 35.828125 
Q 18.609375 31.296875 18.609375 23.390625 
Q 18.609375 15.53125 22.484375 10.953125 
Q 26.375 6.390625 33.015625 6.390625 
Q 39.65625 6.390625 43.53125 10.953125 
Q 47.40625 15.53125 47.40625 23.390625 
Q 47.40625 31.296875 43.53125 35.828125 
Q 39.65625 40.375 33.015625 40.375 
z
M 52.59375 71.296875 
L 52.59375 62.3125 
Q 48.875 64.0625 45.09375 64.984375 
Q 41.3125 65.921875 37.59375 65.921875 
Q 27.828125 65.921875 22.671875 59.328125 
Q 17.53125 52.734375 16.796875 39.40625 
Q 19.671875 43.65625 24.015625 45.921875 
Q 28.375 48.1875 33.59375 48.1875 
Q 44.578125 48.1875 50.953125 41.515625 
Q 57.328125 34.859375 57.328125 23.390625 
Q 57.328125 12.15625 50.6875 5.359375 
Q 44.046875 -1.421875 33.015625 -1.421875 
Q 20.359375 -1.421875 13.671875 8.265625 
Q 6.984375 17.96875 6.984375 36.375 
Q 6.984375 53.65625 15.1875 63.9375 
Q 23.390625 74.21875 37.203125 74.21875 
Q 40.921875 74.21875 44.703125 73.484375 
Q 48.484375 72.75 52.59375 71.296875 
z
" id="DejaVuSans-54"/>
       </defs>
       <use xlink:href="#DejaVuSans-54"/>
       <use x="63.623047" xlink:href="#DejaVuSans-48"/>
      </g>
     </g>
    </g>
    <g id="ytick_5">
     <g id="line2d_11">
      <g>
       <use style="stroke:#000000;stroke-width:0.8;" x="46.965625" xlink:href="#m7314106967" y="285.253974"/>
      </g>
     </g>
     <g id="text_12">
      <!-- 80 -->
      <g transform="translate(27.240625 289.053193)scale(0.1 -0.1)">
       <defs>
        <path d="M 31.78125 34.625 
Q 24.75 34.625 20.71875 30.859375 
Q 16.703125 27.09375 16.703125 20.515625 
Q 16.703125 13.921875 20.71875 10.15625 
Q 24.75 6.390625 31.78125 6.390625 
Q 38.8125 6.390625 42.859375 10.171875 
Q 46.921875 13.96875 46.921875 20.515625 
Q 46.921875 27.09375 42.890625 30.859375 
Q 38.875 34.625 31.78125 34.625 
z
M 21.921875 38.8125 
Q 15.578125 40.375 12.03125 44.71875 
Q 8.5 49.078125 8.5 55.328125 
Q 8.5 64.0625 14.71875 69.140625 
Q 20.953125 74.21875 31.78125 74.21875 
Q 42.671875 74.21875 48.875 69.140625 
Q 55.078125 64.0625 55.078125 55.328125 
Q 55.078125 49.078125 51.53125 44.71875 
Q 48 40.375 41.703125 38.8125 
Q 48.828125 37.15625 52.796875 32.3125 
Q 56.78125 27.484375 56.78125 20.515625 
Q 56.78125 9.90625 50.3125 4.234375 
Q 43.84375 -1.421875 31.78125 -1.421875 
Q 19.734375 -1.421875 13.25 4.234375 
Q 6.78125 9.90625 6.78125 20.515625 
Q 6.78125 27.484375 10.78125 32.3125 
Q 14.796875 37.15625 21.921875 38.8125 
z
M 18.3125 54.390625 
Q 18.3125 48.734375 21.84375 45.5625 
Q 25.390625 42.390625 31.78125 42.390625 
Q 38.140625 42.390625 41.71875 45.5625 
Q 45.3125 48.734375 45.3125 54.390625 
Q 45.3125 60.0625 41.71875 63.234375 
Q 38.140625 66.40625 31.78125 66.40625 
Q 25.390625 66.40625 21.84375 63.234375 
Q 18.3125 60.0625 18.3125 54.390625 
z
" id="DejaVuSans-56"/>
       </defs>
       <use xlink:href="#DejaVuSans-56"/>
       <use x="63.623047" xlink:href="#DejaVuSans-48"/>
      </g>
     </g>
    </g>
    <g id="ytick_6">
     <g id="line2d_12">
      <g>
       <use style="stroke:#000000;stroke-width:0.8;" x="46.965625" xlink:href="#m7314106967" y="218.687936"/>
      </g>
     </g>
     <g id="text_13">
      <!-- 100 -->
      <g transform="translate(20.878125 222.487155)scale(0.1 -0.1)">
       <use xlink:href="#DejaVuSans-49"/>
       <use x="63.623047" xlink:href="#DejaVuSans-48"/>
       <use x="127.246094" xlink:href="#DejaVuSans-48"/>
      </g>
     </g>
    </g>
    <g id="ytick_7">
     <g id="line2d_13">
      <g>
       <use style="stroke:#000000;stroke-width:0.8;" x="46.965625" xlink:href="#m7314106967" y="152.121899"/>
      </g>
     </g>
     <g id="text_14">
      <!-- 120 -->
      <g transform="translate(20.878125 155.921117)scale(0.1 -0.1)">
       <use xlink:href="#DejaVuSans-49"/>
       <use x="63.623047" xlink:href="#DejaVuSans-50"/>
       <use x="127.246094" xlink:href="#DejaVuSans-48"/>
      </g>
     </g>
    </g>
    <g id="ytick_8">
     <g id="line2d_14">
      <g>
       <use style="stroke:#000000;stroke-width:0.8;" x="46.965625" xlink:href="#m7314106967" y="85.555861"/>
      </g>
     </g>
     <g id="text_15">
      <!-- 140 -->
      <g transform="translate(20.878125 89.35508)scale(0.1 -0.1)">
       <use xlink:href="#DejaVuSans-49"/>
       <use x="63.623047" xlink:href="#DejaVuSans-52"/>
       <use x="127.246094" xlink:href="#DejaVuSans-48"/>
      </g>
     </g>
    </g>
    <g id="text_16">
     <!-- Valor de la varianza -->
     <g transform="translate(14.798438 348.979063)rotate(-90)scale(0.1 -0.1)">
      <defs>
       <path d="M 28.609375 0 
L 0.78125 72.90625 
L 11.078125 72.90625 
L 34.1875 11.53125 
L 57.328125 72.90625 
L 67.578125 72.90625 
L 39.796875 0 
z
" id="DejaVuSans-86"/>
       <path d="M 9.421875 75.984375 
L 18.40625 75.984375 
L 18.40625 0 
L 9.421875 0 
z
" id="DejaVuSans-108"/>
       <path d="M 30.609375 48.390625 
Q 23.390625 48.390625 19.1875 42.75 
Q 14.984375 37.109375 14.984375 27.296875 
Q 14.984375 17.484375 19.15625 11.84375 
Q 23.34375 6.203125 30.609375 6.203125 
Q 37.796875 6.203125 41.984375 11.859375 
Q 46.1875 17.53125 46.1875 27.296875 
Q 46.1875 37.015625 41.984375 42.703125 
Q 37.796875 48.390625 30.609375 48.390625 
z
M 30.609375 56 
Q 42.328125 56 49.015625 48.375 
Q 55.71875 40.765625 55.71875 27.296875 
Q 55.71875 13.875 49.015625 6.21875 
Q 42.328125 -1.421875 30.609375 -1.421875 
Q 18.84375 -1.421875 12.171875 6.21875 
Q 5.515625 13.875 5.515625 27.296875 
Q 5.515625 40.765625 12.171875 48.375 
Q 18.84375 56 30.609375 56 
z
" id="DejaVuSans-111"/>
       <path id="DejaVuSans-32"/>
       <path d="M 56.203125 29.59375 
L 56.203125 25.203125 
L 14.890625 25.203125 
Q 15.484375 15.921875 20.484375 11.0625 
Q 25.484375 6.203125 34.421875 6.203125 
Q 39.59375 6.203125 44.453125 7.46875 
Q 49.3125 8.734375 54.109375 11.28125 
L 54.109375 2.78125 
Q 49.265625 0.734375 44.1875 -0.34375 
Q 39.109375 -1.421875 33.890625 -1.421875 
Q 20.796875 -1.421875 13.15625 6.1875 
Q 5.515625 13.8125 5.515625 26.8125 
Q 5.515625 40.234375 12.765625 48.109375 
Q 20.015625 56 32.328125 56 
Q 43.359375 56 49.78125 48.890625 
Q 56.203125 41.796875 56.203125 29.59375 
z
M 47.21875 32.234375 
Q 47.125 39.59375 43.09375 43.984375 
Q 39.0625 48.390625 32.421875 48.390625 
Q 24.90625 48.390625 20.390625 44.140625 
Q 15.875 39.890625 15.1875 32.171875 
z
" id="DejaVuSans-101"/>
       <path d="M 2.984375 54.6875 
L 12.5 54.6875 
L 29.59375 8.796875 
L 46.6875 54.6875 
L 56.203125 54.6875 
L 35.6875 0 
L 23.484375 0 
z
" id="DejaVuSans-118"/>
       <path d="M 54.890625 33.015625 
L 54.890625 0 
L 45.90625 0 
L 45.90625 32.71875 
Q 45.90625 40.484375 42.875 44.328125 
Q 39.84375 48.1875 33.796875 48.1875 
Q 26.515625 48.1875 22.3125 43.546875 
Q 18.109375 38.921875 18.109375 30.90625 
L 18.109375 0 
L 9.078125 0 
L 9.078125 54.6875 
L 18.109375 54.6875 
L 18.109375 46.1875 
Q 21.34375 51.125 25.703125 53.5625 
Q 30.078125 56 35.796875 56 
Q 45.21875 56 50.046875 50.171875 
Q 54.890625 44.34375 54.890625 33.015625 
z
" id="DejaVuSans-110"/>
       <path d="M 5.515625 54.6875 
L 48.1875 54.6875 
L 48.1875 46.484375 
L 14.40625 7.171875 
L 48.1875 7.171875 
L 48.1875 0 
L 4.296875 0 
L 4.296875 8.203125 
L 38.09375 47.515625 
L 5.515625 47.515625 
z
" id="DejaVuSans-122"/>
      </defs>
      <use xlink:href="#DejaVuSans-86"/>
      <use x="60.658203" xlink:href="#DejaVuSans-97"/>
      <use x="121.9375" xlink:href="#DejaVuSans-108"/>
      <use x="149.720703" xlink:href="#DejaVuSans-111"/>
      <use x="210.902344" xlink:href="#DejaVuSans-114"/>
      <use x="252.015625" xlink:href="#DejaVuSans-32"/>
      <use x="283.802734" xlink:href="#DejaVuSans-100"/>
      <use x="347.279297" xlink:href="#DejaVuSans-101"/>
      <use x="408.802734" xlink:href="#DejaVuSans-32"/>
      <use x="440.589844" xlink:href="#DejaVuSans-108"/>
      <use x="468.373047" xlink:href="#DejaVuSans-97"/>
      <use x="529.652344" xlink:href="#DejaVuSans-32"/>
      <use x="561.439453" xlink:href="#DejaVuSans-118"/>
      <use x="620.619141" xlink:href="#DejaVuSans-97"/>
      <use x="681.898438" xlink:href="#DejaVuSans-114"/>
      <use x="723.011719" xlink:href="#DejaVuSans-105"/>
      <use x="750.794922" xlink:href="#DejaVuSans-97"/>
      <use x="812.074219" xlink:href="#DejaVuSans-110"/>
      <use x="875.453125" xlink:href="#DejaVuSans-122"/>
      <use x="927.943359" xlink:href="#DejaVuSans-97"/>
     </g>
    </g>
   </g>
   <g id="line2d_15">
    <path clip-path="url(#p7a2cc6b888)" d="M 92.62017 551.518125 
L 94.450012 72.242653 
L 96.279853 229.042653 
L 98.109695 193.101616 
L 99.939536 164.103785 
L 101.769378 150.5502 
L 103.599219 47.518125 
L 107.258902 140.452297 
L 109.088744 70.87805 
L 112.748427 133.076616 
L 114.578268 157.675633 
L 116.40811 137.653974 
L 120.067793 186.249994 
L 121.897634 183.101594 
L 123.727476 173.519593 
L 125.557317 178.785192 
L 127.387159 193.634144 
L 129.217 159.8502 
L 131.046842 171.507194 
L 132.876683 184.247247 
L 134.706525 188.785224 
L 136.536366 200.848238 
L 138.366208 211.499592 
L 140.196049 192.225882 
L 142.025891 190.62237 
L 143.855732 193.731608 
L 145.685574 201.972465 
L 147.515415 212.093673 
L 149.345257 210.003149 
L 151.175098 205.973762 
L 153.00494 184.518138 
L 154.834781 187.024238 
L 156.664623 171.085001 
L 158.494464 177.732075 
L 160.324306 187.31339 
L 162.154147 187.15988 
L 163.983989 196.107488 
L 165.813831 190.608235 
L 167.643672 192.867182 
L 169.473514 196.568859 
L 171.303355 200.643589 
L 173.133197 199.977127 
L 174.963038 201.126268 
L 176.79288 206.583103 
L 178.622721 213.423903 
L 180.452563 217.25459 
L 182.282404 215.540694 
L 184.112246 215.575891 
L 185.942087 216.86254 
L 187.771929 222.657253 
L 189.60177 224.010252 
L 191.431612 223.64353 
L 193.261453 229.497488 
L 195.091295 234.887926 
L 196.921136 224.216638 
L 198.750978 228.159398 
L 204.240502 242.716821 
L 206.070344 225.040976 
L 207.900185 227.974029 
L 209.730027 215.870893 
L 211.559868 220.893815 
L 213.38971 213.134588 
L 215.219551 212.417139 
L 217.049393 214.802471 
L 218.879234 204.74371 
L 220.709076 209.515794 
L 224.368759 218.045884 
L 226.1986 209.038535 
L 228.028442 209.034973 
L 229.858283 212.495197 
L 231.688125 211.599086 
L 233.517966 200.750446 
L 235.347808 202.001097 
L 237.177649 197.904771 
L 239.007491 202.078386 
L 240.837332 192.090726 
L 242.667174 194.809581 
L 244.497015 191.709163 
L 246.326857 194.289295 
L 248.156698 197.303282 
L 249.98654 199.827999 
L 251.816381 197.188499 
L 253.646223 194.097748 
L 255.476064 189.08454 
L 257.305906 185.46199 
L 259.135747 189.376544 
L 260.965589 191.853719 
L 262.79543 195.624492 
L 264.625272 195.732426 
L 266.455113 195.389823 
L 268.284955 198.957251 
L 270.114796 194.235106 
L 271.944638 197.419541 
L 275.604321 197.260994 
L 277.434162 193.144083 
L 279.264004 196.622446 
L 281.093845 199.715446 
L 282.923687 201.98937 
L 284.753528 204.837686 
L 286.58337 198.353579 
L 288.413211 200.666768 
L 290.243053 194.570984 
L 292.072894 197.80463 
L 293.902736 200.78896 
L 295.732577 199.9673 
L 297.562419 196.048498 
L 299.39226 196.048261 
L 301.222102 196.962493 
L 303.051943 193.303451 
L 304.881785 191.019436 
L 306.711626 193.545202 
L 310.371309 199.309823 
L 312.201151 194.643052 
L 314.030992 197.242259 
L 317.690675 186.516011 
L 319.520517 187.080465 
L 321.350358 188.5502 
L 323.1802 190.373124 
L 325.010041 186.802747 
L 326.839883 182.758836 
L 330.499566 187.670203 
L 332.329407 187.288548 
L 334.159249 190.026796 
L 335.98909 192.351978 
L 337.818932 194.089366 
L 339.648773 193.726392 
L 343.308456 198.669889 
L 345.138298 197.190837 
L 346.968139 199.618295 
L 350.627822 203.992173 
L 352.457664 201.163448 
L 354.287505 201.291556 
L 356.117347 201.840476 
L 357.947188 200.967805 
L 359.77703 199.592056 
L 361.606871 196.838814 
L 363.436713 195.438246 
L 365.266554 197.453518 
L 368.926237 200.552984 
L 370.756079 202.488466 
L 372.58592 203.970066 
L 374.415762 204.481733 
L 376.245603 206.617098 
L 378.075445 206.723657 
L 379.905286 205.423659 
L 381.735128 202.804876 
L 383.564969 199.071887 
L 385.394811 198.397377 
L 387.224652 199.906061 
L 389.054494 200.664322 
L 390.884335 201.742999 
L 392.714177 203.861987 
L 394.544018 204.267268 
L 396.37386 199.08116 
L 398.203701 201.178974 
L 400.033543 198.217732 
L 401.863384 200.274135 
L 403.693226 196.09564 
L 405.523067 195.766935 
L 407.352909 197.739507 
L 409.18275 192.965492 
L 411.012592 189.426702 
L 412.842433 189.929865 
L 414.672275 191.290665 
L 416.502116 190.634461 
L 418.331958 191.485423 
L 420.161799 192.031115 
L 421.991641 190.852356 
L 423.821482 192.833912 
L 425.651324 194.124752 
L 427.481165 195.626155 
L 429.311007 196.889285 
L 432.97069 200.589337 
L 434.800531 202.020436 
L 436.630373 199.900329 
L 438.460214 200.017638 
L 440.290056 196.894725 
L 442.119897 198.660703 
L 443.949739 199.903122 
L 445.77958 200.673578 
L 447.609422 196.488228 
L 449.439263 198.113042 
L 451.269105 197.198439 
L 453.098946 195.534063 
L 454.928788 197.015523 
L 456.758629 197.039413 
L 458.588471 195.468992 
L 460.418312 193.114972 
L 462.248154 192.989042 
L 464.077995 193.780376 
L 465.907837 194.406103 
L 467.737678 193.539398 
L 469.56752 195.261892 
L 471.397361 195.583148 
L 473.227203 195.117728 
L 475.057044 192.955936 
L 476.886886 194.470225 
L 478.716727 195.294811 
L 480.546569 196.92651 
L 482.37641 194.917134 
L 484.206252 196.288483 
L 486.036093 197.502613 
L 487.865935 198.443176 
L 489.695776 199.727667 
L 493.355459 201.222878 
L 495.185301 200.400232 
L 497.015142 199.96823 
L 498.844984 201.44708 
L 500.674825 200.679512 
L 502.504667 200.90846 
L 504.334508 202.365403 
L 506.16435 198.893166 
L 507.994191 198.14881 
L 509.824033 199.080525 
L 511.653874 200.581659 
L 513.483716 198.638786 
L 515.313557 196.286209 
L 517.143399 192.99719 
L 518.97324 193.770956 
L 520.803082 194.077125 
L 522.632923 194.117209 
L 526.292606 196.977177 
L 528.122448 198.351039 
L 529.952289 198.753315 
L 531.782131 199.283835 
L 533.611972 197.976299 
L 535.441814 197.737034 
L 537.271655 196.090021 
L 539.101497 195.267226 
L 544.591021 199.560645 
L 546.420863 199.620188 
L 550.080546 202.093815 
L 551.910387 201.240819 
L 555.57007 202.71476 
L 557.399912 201.158931 
L 559.229753 201.21618 
L 561.059595 201.011639 
L 562.889436 201.551762 
L 564.719278 202.589377 
L 566.549119 201.799315 
L 568.378961 198.968672 
L 570.208802 198.507064 
L 572.038644 198.849681 
L 573.868485 196.610859 
L 575.698327 197.110208 
L 577.528168 198.342188 
L 579.35801 199.086116 
L 581.187851 199.648116 
L 583.017693 200.895014 
L 586.677376 195.523017 
L 588.507217 196.360503 
L 592.1669 191.080666 
L 593.996742 192.296362 
L 595.826583 192.346919 
L 597.656425 191.967132 
L 599.486266 192.017077 
L 601.316108 191.912126 
L 603.145949 191.961375 
L 604.975791 193.035214 
L 606.805632 194.306129 
L 608.635474 191.703711 
L 610.465315 192.382731 
L 612.295157 189.842817 
L 614.124998 191.107416 
L 615.95484 190.70101 
L 617.784681 188.202258 
L 619.614523 189.355156 
L 621.444364 190.044119 
L 623.274206 191.185592 
L 625.104047 190.511041 
L 626.933889 188.503046 
L 630.593572 190.684841 
L 632.423413 190.512586 
L 634.253255 188.83136 
L 636.083096 186.850565 
L 637.912938 186.164164 
L 639.742779 186.992333 
L 641.572621 186.068954 
L 643.402462 187.114502 
L 645.232304 187.941502 
L 647.062145 186.734855 
L 648.891987 187.008155 
L 652.55167 189.173196 
L 656.211353 187.295421 
L 659.871036 189.343643 
L 661.700877 189.79629 
L 663.530719 190.938306 
L 665.36056 189.079971 
L 669.020243 190.97883 
L 670.850085 188.804529 
L 674.509768 189.194225 
L 676.339609 188.765592 
L 678.169451 189.748852 
L 679.999292 189.195434 
L 681.829134 190.088575 
L 683.658975 189.110767 
L 685.488817 187.694285 
L 687.318658 187.929705 
L 689.1485 187.253943 
L 690.978341 185.360399 
L 692.808183 184.815705 
L 694.638024 185.247702 
L 696.467866 184.710221 
L 698.297707 184.554 
L 701.95739 186.689236 
L 703.787232 187.443745 
L 707.446915 184.546942 
L 711.106598 183.996165 
L 712.936439 185.061262 
L 714.766281 184.558996 
L 716.596122 184.720471 
L 718.425964 185.772576 
L 720.255805 185.120987 
L 722.085647 185.969939 
L 723.915488 184.475786 
L 727.575171 186.105734 
L 729.405013 184.639032 
L 731.234854 185.673328 
L 733.064696 185.730235 
L 734.894537 186.192751 
L 736.724379 186.325022 
L 738.55422 187.310041 
L 740.384062 187.70379 
L 742.213903 187.427619 
L 744.043745 188.418458 
L 749.533269 190.70154 
L 751.363111 191.222199 
L 753.192952 190.470543 
L 755.022794 191.301187 
L 756.852635 191.231757 
L 758.682477 190.371551 
L 760.512318 191.00814 
L 762.34216 191.225498 
L 764.172001 191.860998 
L 766.001843 191.908063 
L 767.831684 189.932064 
L 769.661526 190.675948 
L 771.491367 190.553535 
L 773.321209 190.009217 
L 775.15105 190.753933 
L 776.980892 189.727864 
L 778.810733 187.812719 
L 780.640575 188.556862 
L 782.470416 189.482229 
L 784.300258 188.198966 
L 786.130099 187.45641 
L 787.959941 187.996188 
L 789.789782 188.863752 
L 791.619624 188.583673 
L 793.449465 189.121178 
L 795.279307 189.047603 
L 797.109148 188.097564 
L 798.93899 188.840445 
L 800.768831 188.04266 
L 802.598673 186.27108 
L 804.428514 185.481746 
L 806.258356 184.188946 
L 808.088197 182.631881 
L 809.918039 183.570407 
L 811.74788 181.738631 
L 813.577722 181.670905 
L 815.407563 182.386914 
L 817.237405 180.924299 
L 819.067246 181.461568 
L 824.556771 183.652188 
L 826.386612 181.923962 
L 828.216454 182.559541 
L 831.876137 184.020961 
L 833.705978 182.87061 
L 835.53582 182.990483 
L 837.365661 183.580034 
L 839.195503 184.336875 
L 841.025344 185.232167 
L 842.855186 185.982027 
L 844.685027 186.191189 
L 846.514869 186.886691 
L 848.34471 185.92371 
L 850.174552 184.724203 
L 852.004393 185.53818 
L 853.834235 185.251258 
L 855.664076 183.535286 
L 857.493918 184.382507 
L 859.323759 183.712936 
L 861.153601 182.323195 
L 862.983442 180.676921 
L 864.813284 179.246939 
L 866.643125 180.096715 
L 868.472967 180.205857 
L 872.13265 181.536779 
L 873.962491 180.857628 
L 875.792333 181.712736 
L 879.452016 182.164141 
L 881.281857 181.506561 
L 883.111699 181.870852 
L 884.94154 182.106001 
L 886.771382 182.585838 
L 888.601223 181.496803 
L 890.431065 180.122515 
L 892.260906 180.2036 
L 894.090748 180.773987 
L 895.920589 180.345142 
L 897.750431 180.093421 
L 899.580272 180.744215 
L 901.410114 179.892 
L 903.239955 180.69975 
L 905.069797 179.107927 
L 908.72948 180.706726 
L 910.559321 179.130936 
L 912.389163 179.697007 
L 914.219004 180.458913 
L 916.048846 180.3993 
L 917.878687 181.157612 
L 919.708529 181.370226 
L 921.53837 179.832326 
L 923.368212 180.474224 
L 925.198053 180.682924 
L 928.857736 179.031998 
L 930.687578 179.106324 
L 932.517419 177.595378 
L 936.177103 176.830818 
L 938.006944 176.267439 
L 939.836786 176.972625 
L 941.666627 176.945759 
L 943.496469 176.096888 
L 947.156152 177.566364 
L 948.985993 176.115917 
L 950.815835 176.58998 
L 954.475518 174.567514 
L 959.965042 176.844724 
L 961.794884 177.506164 
L 963.624725 178.019545 
L 965.454567 176.972376 
L 967.284408 176.431568 
L 969.11425 175.489351 
L 970.944091 176.267232 
L 972.773933 174.994927 
L 974.603774 175.721171 
L 976.433616 175.841434 
L 978.263457 176.519296 
L 980.093299 175.137552 
L 981.92314 175.719837 
L 983.752982 175.971798 
L 987.412665 177.329717 
L 989.242506 178.056342 
L 991.072348 178.101254 
L 992.902189 176.850578 
L 994.732031 177.385098 
L 996.561872 175.908217 
L 998.391714 176.484133 
L 1003.881238 177.505565 
L 1005.71108 177.428229 
L 1005.71108 177.428229 
" style="fill:none;stroke:#1f77b4;stroke-linecap:square;stroke-width:1.5;"/>
   </g>
   <g id="patch_3">
    <path d="M 46.965625 576.718125 
L 46.965625 22.318125 
" style="fill:none;stroke:#000000;stroke-linecap:square;stroke-linejoin:miter;stroke-width:0.8;"/>
   </g>
   <g id="patch_4">
    <path d="M 1051.365625 576.718125 
L 1051.365625 22.318125 
" style="fill:none;stroke:#000000;stroke-linecap:square;stroke-linejoin:miter;stroke-width:0.8;"/>
   </g>
   <g id="patch_5">
    <path d="M 46.965625 576.718125 
L 1051.365625 576.718125 
" style="fill:none;stroke:#000000;stroke-linecap:square;stroke-linejoin:miter;stroke-width:0.8;"/>
   </g>
   <g id="patch_6">
    <path d="M 46.965625 22.318125 
L 1051.365625 22.318125 
" style="fill:none;stroke:#000000;stroke-linecap:square;stroke-linejoin:miter;stroke-width:0.8;"/>
   </g>
   <g id="text_17">
    <!-- Varianza a lo largo de 500 tiradas -->
    <g transform="translate(448.04125 16.318125)scale(0.12 -0.12)">
     <defs>
      <path d="M 45.40625 27.984375 
Q 45.40625 37.75 41.375 43.109375 
Q 37.359375 48.484375 30.078125 48.484375 
Q 22.859375 48.484375 18.828125 43.109375 
Q 14.796875 37.75 14.796875 27.984375 
Q 14.796875 18.265625 18.828125 12.890625 
Q 22.859375 7.515625 30.078125 7.515625 
Q 37.359375 7.515625 41.375 12.890625 
Q 45.40625 18.265625 45.40625 27.984375 
z
M 54.390625 6.78125 
Q 54.390625 -7.171875 48.1875 -13.984375 
Q 42 -20.796875 29.203125 -20.796875 
Q 24.46875 -20.796875 20.265625 -20.09375 
Q 16.0625 -19.390625 12.109375 -17.921875 
L 12.109375 -9.1875 
Q 16.0625 -11.328125 19.921875 -12.34375 
Q 23.78125 -13.375 27.78125 -13.375 
Q 36.625 -13.375 41.015625 -8.765625 
Q 45.40625 -4.15625 45.40625 5.171875 
L 45.40625 9.625 
Q 42.625 4.78125 38.28125 2.390625 
Q 33.9375 0 27.875 0 
Q 17.828125 0 11.671875 7.65625 
Q 5.515625 15.328125 5.515625 27.984375 
Q 5.515625 40.671875 11.671875 48.328125 
Q 17.828125 56 27.875 56 
Q 33.9375 56 38.28125 53.609375 
Q 42.625 51.21875 45.40625 46.390625 
L 45.40625 54.6875 
L 54.390625 54.6875 
z
" id="DejaVuSans-103"/>
      <path d="M 18.3125 70.21875 
L 18.3125 54.6875 
L 36.8125 54.6875 
L 36.8125 47.703125 
L 18.3125 47.703125 
L 18.3125 18.015625 
Q 18.3125 11.328125 20.140625 9.421875 
Q 21.96875 7.515625 27.59375 7.515625 
L 36.8125 7.515625 
L 36.8125 0 
L 27.59375 0 
Q 17.1875 0 13.234375 3.875 
Q 9.28125 7.765625 9.28125 18.015625 
L 9.28125 47.703125 
L 2.6875 47.703125 
L 2.6875 54.6875 
L 9.28125 54.6875 
L 9.28125 70.21875 
z
" id="DejaVuSans-116"/>
     </defs>
     <use xlink:href="#DejaVuSans-86"/>
     <use x="60.658203" xlink:href="#DejaVuSans-97"/>
     <use x="121.9375" xlink:href="#DejaVuSans-114"/>
     <use x="163.050781" xlink:href="#DejaVuSans-105"/>
     <use x="190.833984" xlink:href="#DejaVuSans-97"/>
     <use x="252.113281" xlink:href="#DejaVuSans-110"/>
     <use x="315.492188" xlink:href="#DejaVuSans-122"/>
     <use x="367.982422" xlink:href="#DejaVuSans-97"/>
     <use x="429.261719" xlink:href="#DejaVuSans-32"/>
     <use x="461.048828" xlink:href="#DejaVuSans-97"/>
     <use x="522.328125" xlink:href="#DejaVuSans-32"/>
     <use x="554.115234" xlink:href="#DejaVuSans-108"/>
     <use x="581.898438" xlink:href="#DejaVuSans-111"/>
     <use x="643.080078" xlink:href="#DejaVuSans-32"/>
     <use x="674.867188" xlink:href="#DejaVuSans-108"/>
     <use x="702.650391" xlink:href="#DejaVuSans-97"/>
     <use x="763.929688" xlink:href="#DejaVuSans-114"/>
     <use x="803.292969" xlink:href="#DejaVuSans-103"/>
     <use x="866.769531" xlink:href="#DejaVuSans-111"/>
     <use x="927.951172" xlink:href="#DejaVuSans-32"/>
     <use x="959.738281" xlink:href="#DejaVuSans-100"/>
     <use x="1023.214844" xlink:href="#DejaVuSans-101"/>
     <use x="1084.738281" xlink:href="#DejaVuSans-32"/>
     <use x="1116.525391" xlink:href="#DejaVuSans-53"/>
     <use x="1180.148438" xlink:href="#DejaVuSans-48"/>
     <use x="1243.771484" xlink:href="#DejaVuSans-48"/>
     <use x="1307.394531" xlink:href="#DejaVuSans-32"/>
     <use x="1339.181641" xlink:href="#DejaVuSans-116"/>
     <use x="1378.390625" xlink:href="#DejaVuSans-105"/>
     <use x="1406.173828" xlink:href="#DejaVuSans-114"/>
     <use x="1447.287109" xlink:href="#DejaVuSans-97"/>
     <use x="1508.566406" xlink:href="#DejaVuSans-100"/>
     <use x="1572.042969" xlink:href="#DejaVuSans-97"/>
     <use x="1633.322266" xlink:href="#DejaVuSans-115"/>
    </g>
   </g>
  </g>
 </g>
 <defs>
  <clipPath id="p7a2cc6b888">
   <rect height="554.4" width="1004.4" x="46.965625" y="22.318125"/>
  </clipPath>
 </defs>
</svg>
