<?xml version="1.0" encoding="utf-8" standalone="no"?>
<!DOCTYPE svg PUBLIC "-//W3C//DTD SVG 1.1//EN"
  "http://www.w3.org/Graphics/SVG/1.1/DTD/svg11.dtd">
<!-- Created with matplotlib (https://matplotlib.org/) -->
<svg height="614.274375pt" version="1.1" viewBox="0 0 1058.565625 614.274375" width="1058.565625pt" xmlns="http://www.w3.org/2000/svg" xmlns:xlink="http://www.w3.org/1999/xlink">
 <metadata>
  <rdf:RDF xmlns:cc="http://creativecommons.org/ns#" xmlns:dc="http://purl.org/dc/elements/1.1/" xmlns:rdf="http://www.w3.org/1999/02/22-rdf-syntax-ns#">
   <cc:Work>
    <dc:type rdf:resource="http://purl.org/dc/dcmitype/StillImage"/>
    <dc:date>2021-03-25T00:14:00.800251</dc:date>
    <dc:format>image/svg+xml</dc:format>
    <dc:creator>
     <cc:Agent>
      <dc:title>Matplotlib v3.3.4, https://matplotlib.org/</dc:title>
     </cc:Agent>
    </dc:creator>
   </cc:Work>
  </rdf:RDF>
 </metadata>
 <defs>
  <style type="text/css">*{stroke-linecap:butt;stroke-linejoin:round;}</style>
 </defs>
 <g id="figure_1">
  <g id="patch_1">
   <path d="M 0 614.274375 
L 1058.565625 614.274375 
L 1058.565625 0 
L 0 0 
z
" style="fill:#ffffff;"/>
  </g>
  <g id="axes_1">
   <g id="patch_2">
    <path d="M 46.965625 576.718125 
L 1051.365625 576.718125 
L 1051.365625 22.318125 
L 46.965625 22.318125 
z
" style="fill:#ffffff;"/>
   </g>
   <g id="matplotlib.axis_1">
    <g id="xtick_1">
     <g id="line2d_1">
      <defs>
       <path d="M 0 0 
L 0 3.5 
" id="m9623003013" style="stroke:#000000;stroke-width:0.8;"/>
      </defs>
      <g>
       <use style="stroke:#000000;stroke-width:0.8;" x="92.62017" xlink:href="#m9623003013" y="576.718125"/>
      </g>
     </g>
     <g id="text_1">
      <!-- 0 -->
      <g transform="translate(89.43892 591.316563)scale(0.1 -0.1)">
       <defs>
        <path d="M 31.78125 66.40625 
Q 24.171875 66.40625 20.328125 58.90625 
Q 16.5 51.421875 16.5 36.375 
Q 16.5 21.390625 20.328125 13.890625 
Q 24.171875 6.390625 31.78125 6.390625 
Q 39.453125 6.390625 43.28125 13.890625 
Q 47.125 21.390625 47.125 36.375 
Q 47.125 51.421875 43.28125 58.90625 
Q 39.453125 66.40625 31.78125 66.40625 
z
M 31.78125 74.21875 
Q 44.046875 74.21875 50.515625 64.515625 
Q 56.984375 54.828125 56.984375 36.375 
Q 56.984375 17.96875 50.515625 8.265625 
Q 44.046875 -1.421875 31.78125 -1.421875 
Q 19.53125 -1.421875 13.0625 8.265625 
Q 6.59375 17.96875 6.59375 36.375 
Q 6.59375 54.828125 13.0625 64.515625 
Q 19.53125 74.21875 31.78125 74.21875 
z
" id="DejaVuSans-48"/>
       </defs>
       <use xlink:href="#DejaVuSans-48"/>
      </g>
     </g>
    </g>
    <g id="xtick_2">
     <g id="line2d_2">
      <g>
       <use style="stroke:#000000;stroke-width:0.8;" x="275.421153" xlink:href="#m9623003013" y="576.718125"/>
      </g>
     </g>
     <g id="text_2">
      <!-- 200 -->
      <g transform="translate(265.877403 591.316563)scale(0.1 -0.1)">
       <defs>
        <path d="M 19.1875 8.296875 
L 53.609375 8.296875 
L 53.609375 0 
L 7.328125 0 
L 7.328125 8.296875 
Q 12.9375 14.109375 22.625 23.890625 
Q 32.328125 33.6875 34.8125 36.53125 
Q 39.546875 41.84375 41.421875 45.53125 
Q 43.3125 49.21875 43.3125 52.78125 
Q 43.3125 58.59375 39.234375 62.25 
Q 35.15625 65.921875 28.609375 65.921875 
Q 23.96875 65.921875 18.8125 64.3125 
Q 13.671875 62.703125 7.8125 59.421875 
L 7.8125 69.390625 
Q 13.765625 71.78125 18.9375 73 
Q 24.125 74.21875 28.421875 74.21875 
Q 39.75 74.21875 46.484375 68.546875 
Q 53.21875 62.890625 53.21875 53.421875 
Q 53.21875 48.921875 51.53125 44.890625 
Q 49.859375 40.875 45.40625 35.40625 
Q 44.1875 33.984375 37.640625 27.21875 
Q 31.109375 20.453125 19.1875 8.296875 
z
" id="DejaVuSans-50"/>
       </defs>
       <use xlink:href="#DejaVuSans-50"/>
       <use x="63.623047" xlink:href="#DejaVuSans-48"/>
       <use x="127.246094" xlink:href="#DejaVuSans-48"/>
      </g>
     </g>
    </g>
    <g id="xtick_3">
     <g id="line2d_3">
      <g>
       <use style="stroke:#000000;stroke-width:0.8;" x="458.222136" xlink:href="#m9623003013" y="576.718125"/>
      </g>
     </g>
     <g id="text_3">
      <!-- 400 -->
      <g transform="translate(448.678386 591.316563)scale(0.1 -0.1)">
       <defs>
        <path d="M 37.796875 64.3125 
L 12.890625 25.390625 
L 37.796875 25.390625 
z
M 35.203125 72.90625 
L 47.609375 72.90625 
L 47.609375 25.390625 
L 58.015625 25.390625 
L 58.015625 17.1875 
L 47.609375 17.1875 
L 47.609375 0 
L 37.796875 0 
L 37.796875 17.1875 
L 4.890625 17.1875 
L 4.890625 26.703125 
z
" id="DejaVuSans-52"/>
       </defs>
       <use xlink:href="#DejaVuSans-52"/>
       <use x="63.623047" xlink:href="#DejaVuSans-48"/>
       <use x="127.246094" xlink:href="#DejaVuSans-48"/>
      </g>
     </g>
    </g>
    <g id="xtick_4">
     <g id="line2d_4">
      <g>
       <use style="stroke:#000000;stroke-width:0.8;" x="641.023119" xlink:href="#m9623003013" y="576.718125"/>
      </g>
     </g>
     <g id="text_4">
      <!-- 600 -->
      <g transform="translate(631.479369 591.316563)scale(0.1 -0.1)">
       <defs>
        <path d="M 33.015625 40.375 
Q 26.375 40.375 22.484375 35.828125 
Q 18.609375 31.296875 18.609375 23.390625 
Q 18.609375 15.53125 22.484375 10.953125 
Q 26.375 6.390625 33.015625 6.390625 
Q 39.65625 6.390625 43.53125 10.953125 
Q 47.40625 15.53125 47.40625 23.390625 
Q 47.40625 31.296875 43.53125 35.828125 
Q 39.65625 40.375 33.015625 40.375 
z
M 52.59375 71.296875 
L 52.59375 62.3125 
Q 48.875 64.0625 45.09375 64.984375 
Q 41.3125 65.921875 37.59375 65.921875 
Q 27.828125 65.921875 22.671875 59.328125 
Q 17.53125 52.734375 16.796875 39.40625 
Q 19.671875 43.65625 24.015625 45.921875 
Q 28.375 48.1875 33.59375 48.1875 
Q 44.578125 48.1875 50.953125 41.515625 
Q 57.328125 34.859375 57.328125 23.390625 
Q 57.328125 12.15625 50.6875 5.359375 
Q 44.046875 -1.421875 33.015625 -1.421875 
Q 20.359375 -1.421875 13.671875 8.265625 
Q 6.984375 17.96875 6.984375 36.375 
Q 6.984375 53.65625 15.1875 63.9375 
Q 23.390625 74.21875 37.203125 74.21875 
Q 40.921875 74.21875 44.703125 73.484375 
Q 48.484375 72.75 52.59375 71.296875 
z
" id="DejaVuSans-54"/>
       </defs>
       <use xlink:href="#DejaVuSans-54"/>
       <use x="63.623047" xlink:href="#DejaVuSans-48"/>
       <use x="127.246094" xlink:href="#DejaVuSans-48"/>
      </g>
     </g>
    </g>
    <g id="xtick_5">
     <g id="line2d_5">
      <g>
       <use style="stroke:#000000;stroke-width:0.8;" x="823.824102" xlink:href="#m9623003013" y="576.718125"/>
      </g>
     </g>
     <g id="text_5">
      <!-- 800 -->
      <g transform="translate(814.280352 591.316563)scale(0.1 -0.1)">
       <defs>
        <path d="M 31.78125 34.625 
Q 24.75 34.625 20.71875 30.859375 
Q 16.703125 27.09375 16.703125 20.515625 
Q 16.703125 13.921875 20.71875 10.15625 
Q 24.75 6.390625 31.78125 6.390625 
Q 38.8125 6.390625 42.859375 10.171875 
Q 46.921875 13.96875 46.921875 20.515625 
Q 46.921875 27.09375 42.890625 30.859375 
Q 38.875 34.625 31.78125 34.625 
z
M 21.921875 38.8125 
Q 15.578125 40.375 12.03125 44.71875 
Q 8.5 49.078125 8.5 55.328125 
Q 8.5 64.0625 14.71875 69.140625 
Q 20.953125 74.21875 31.78125 74.21875 
Q 42.671875 74.21875 48.875 69.140625 
Q 55.078125 64.0625 55.078125 55.328125 
Q 55.078125 49.078125 51.53125 44.71875 
Q 48 40.375 41.703125 38.8125 
Q 48.828125 37.15625 52.796875 32.3125 
Q 56.78125 27.484375 56.78125 20.515625 
Q 56.78125 9.90625 50.3125 4.234375 
Q 43.84375 -1.421875 31.78125 -1.421875 
Q 19.734375 -1.421875 13.25 4.234375 
Q 6.78125 9.90625 6.78125 20.515625 
Q 6.78125 27.484375 10.78125 32.3125 
Q 14.796875 37.15625 21.921875 38.8125 
z
M 18.3125 54.390625 
Q 18.3125 48.734375 21.84375 45.5625 
Q 25.390625 42.390625 31.78125 42.390625 
Q 38.140625 42.390625 41.71875 45.5625 
Q 45.3125 48.734375 45.3125 54.390625 
Q 45.3125 60.0625 41.71875 63.234375 
Q 38.140625 66.40625 31.78125 66.40625 
Q 25.390625 66.40625 21.84375 63.234375 
Q 18.3125 60.0625 18.3125 54.390625 
z
" id="DejaVuSans-56"/>
       </defs>
       <use xlink:href="#DejaVuSans-56"/>
       <use x="63.623047" xlink:href="#DejaVuSans-48"/>
       <use x="127.246094" xlink:href="#DejaVuSans-48"/>
      </g>
     </g>
    </g>
    <g id="xtick_6">
     <g id="line2d_6">
      <g>
       <use style="stroke:#000000;stroke-width:0.8;" x="1006.625084" xlink:href="#m9623003013" y="576.718125"/>
      </g>
     </g>
     <g id="text_6">
      <!-- 1000 -->
      <g transform="translate(993.900084 591.316563)scale(0.1 -0.1)">
       <defs>
        <path d="M 12.40625 8.296875 
L 28.515625 8.296875 
L 28.515625 63.921875 
L 10.984375 60.40625 
L 10.984375 69.390625 
L 28.421875 72.90625 
L 38.28125 72.90625 
L 38.28125 8.296875 
L 54.390625 8.296875 
L 54.390625 0 
L 12.40625 0 
z
" id="DejaVuSans-49"/>
       </defs>
       <use xlink:href="#DejaVuSans-49"/>
       <use x="63.623047" xlink:href="#DejaVuSans-48"/>
       <use x="127.246094" xlink:href="#DejaVuSans-48"/>
       <use x="190.869141" xlink:href="#DejaVuSans-48"/>
      </g>
     </g>
    </g>
    <g id="text_7">
     <!-- Tiradas -->
     <g transform="translate(530.916406 604.994688)scale(0.1 -0.1)">
      <defs>
       <path d="M -0.296875 72.90625 
L 61.375 72.90625 
L 61.375 64.59375 
L 35.5 64.59375 
L 35.5 0 
L 25.59375 0 
L 25.59375 64.59375 
L -0.296875 64.59375 
z
" id="DejaVuSans-84"/>
       <path d="M 9.421875 54.6875 
L 18.40625 54.6875 
L 18.40625 0 
L 9.421875 0 
z
M 9.421875 75.984375 
L 18.40625 75.984375 
L 18.40625 64.59375 
L 9.421875 64.59375 
z
" id="DejaVuSans-105"/>
       <path d="M 41.109375 46.296875 
Q 39.59375 47.171875 37.8125 47.578125 
Q 36.03125 48 33.890625 48 
Q 26.265625 48 22.1875 43.046875 
Q 18.109375 38.09375 18.109375 28.8125 
L 18.109375 0 
L 9.078125 0 
L 9.078125 54.6875 
L 18.109375 54.6875 
L 18.109375 46.1875 
Q 20.953125 51.171875 25.484375 53.578125 
Q 30.03125 56 36.53125 56 
Q 37.453125 56 38.578125 55.875 
Q 39.703125 55.765625 41.0625 55.515625 
z
" id="DejaVuSans-114"/>
       <path d="M 34.28125 27.484375 
Q 23.390625 27.484375 19.1875 25 
Q 14.984375 22.515625 14.984375 16.5 
Q 14.984375 11.71875 18.140625 8.90625 
Q 21.296875 6.109375 26.703125 6.109375 
Q 34.1875 6.109375 38.703125 11.40625 
Q 43.21875 16.703125 43.21875 25.484375 
L 43.21875 27.484375 
z
M 52.203125 31.203125 
L 52.203125 0 
L 43.21875 0 
L 43.21875 8.296875 
Q 40.140625 3.328125 35.546875 0.953125 
Q 30.953125 -1.421875 24.3125 -1.421875 
Q 15.921875 -1.421875 10.953125 3.296875 
Q 6 8.015625 6 15.921875 
Q 6 25.140625 12.171875 29.828125 
Q 18.359375 34.515625 30.609375 34.515625 
L 43.21875 34.515625 
L 43.21875 35.40625 
Q 43.21875 41.609375 39.140625 45 
Q 35.0625 48.390625 27.6875 48.390625 
Q 23 48.390625 18.546875 47.265625 
Q 14.109375 46.140625 10.015625 43.890625 
L 10.015625 52.203125 
Q 14.9375 54.109375 19.578125 55.046875 
Q 24.21875 56 28.609375 56 
Q 40.484375 56 46.34375 49.84375 
Q 52.203125 43.703125 52.203125 31.203125 
z
" id="DejaVuSans-97"/>
       <path d="M 45.40625 46.390625 
L 45.40625 75.984375 
L 54.390625 75.984375 
L 54.390625 0 
L 45.40625 0 
L 45.40625 8.203125 
Q 42.578125 3.328125 38.25 0.953125 
Q 33.9375 -1.421875 27.875 -1.421875 
Q 17.96875 -1.421875 11.734375 6.484375 
Q 5.515625 14.40625 5.515625 27.296875 
Q 5.515625 40.1875 11.734375 48.09375 
Q 17.96875 56 27.875 56 
Q 33.9375 56 38.25 53.625 
Q 42.578125 51.265625 45.40625 46.390625 
z
M 14.796875 27.296875 
Q 14.796875 17.390625 18.875 11.75 
Q 22.953125 6.109375 30.078125 6.109375 
Q 37.203125 6.109375 41.296875 11.75 
Q 45.40625 17.390625 45.40625 27.296875 
Q 45.40625 37.203125 41.296875 42.84375 
Q 37.203125 48.484375 30.078125 48.484375 
Q 22.953125 48.484375 18.875 42.84375 
Q 14.796875 37.203125 14.796875 27.296875 
z
" id="DejaVuSans-100"/>
       <path d="M 44.28125 53.078125 
L 44.28125 44.578125 
Q 40.484375 46.53125 36.375 47.5 
Q 32.28125 48.484375 27.875 48.484375 
Q 21.1875 48.484375 17.84375 46.4375 
Q 14.5 44.390625 14.5 40.28125 
Q 14.5 37.15625 16.890625 35.375 
Q 19.28125 33.59375 26.515625 31.984375 
L 29.59375 31.296875 
Q 39.15625 29.25 43.1875 25.515625 
Q 47.21875 21.78125 47.21875 15.09375 
Q 47.21875 7.46875 41.1875 3.015625 
Q 35.15625 -1.421875 24.609375 -1.421875 
Q 20.21875 -1.421875 15.453125 -0.5625 
Q 10.6875 0.296875 5.421875 2 
L 5.421875 11.28125 
Q 10.40625 8.6875 15.234375 7.390625 
Q 20.0625 6.109375 24.8125 6.109375 
Q 31.15625 6.109375 34.5625 8.28125 
Q 37.984375 10.453125 37.984375 14.40625 
Q 37.984375 18.0625 35.515625 20.015625 
Q 33.0625 21.96875 24.703125 23.78125 
L 21.578125 24.515625 
Q 13.234375 26.265625 9.515625 29.90625 
Q 5.8125 33.546875 5.8125 39.890625 
Q 5.8125 47.609375 11.28125 51.796875 
Q 16.75 56 26.8125 56 
Q 31.78125 56 36.171875 55.265625 
Q 40.578125 54.546875 44.28125 53.078125 
z
" id="DejaVuSans-115"/>
      </defs>
      <use xlink:href="#DejaVuSans-84"/>
      <use x="57.958984" xlink:href="#DejaVuSans-105"/>
      <use x="85.742188" xlink:href="#DejaVuSans-114"/>
      <use x="126.855469" xlink:href="#DejaVuSans-97"/>
      <use x="188.134766" xlink:href="#DejaVuSans-100"/>
      <use x="251.611328" xlink:href="#DejaVuSans-97"/>
      <use x="312.890625" xlink:href="#DejaVuSans-115"/>
     </g>
    </g>
   </g>
   <g id="matplotlib.axis_2">
    <g id="ytick_1">
     <g id="line2d_7">
      <defs>
       <path d="M 0 0 
L -3.5 0 
" id="m4c2d9c7001" style="stroke:#000000;stroke-width:0.8;"/>
      </defs>
      <g>
       <use style="stroke:#000000;stroke-width:0.8;" x="46.965625" xlink:href="#m4c2d9c7001" y="551.518125"/>
      </g>
     </g>
     <g id="text_8">
      <!-- 0 -->
      <g transform="translate(33.603125 555.317344)scale(0.1 -0.1)">
       <use xlink:href="#DejaVuSans-48"/>
      </g>
     </g>
    </g>
    <g id="ytick_2">
     <g id="line2d_8">
      <g>
       <use style="stroke:#000000;stroke-width:0.8;" x="46.965625" xlink:href="#m4c2d9c7001" y="484.91262"/>
      </g>
     </g>
     <g id="text_9">
      <!-- 25 -->
      <g transform="translate(27.240625 488.711839)scale(0.1 -0.1)">
       <defs>
        <path d="M 10.796875 72.90625 
L 49.515625 72.90625 
L 49.515625 64.59375 
L 19.828125 64.59375 
L 19.828125 46.734375 
Q 21.96875 47.46875 24.109375 47.828125 
Q 26.265625 48.1875 28.421875 48.1875 
Q 40.625 48.1875 47.75 41.5 
Q 54.890625 34.8125 54.890625 23.390625 
Q 54.890625 11.625 47.5625 5.09375 
Q 40.234375 -1.421875 26.90625 -1.421875 
Q 22.3125 -1.421875 17.546875 -0.640625 
Q 12.796875 0.140625 7.71875 1.703125 
L 7.71875 11.625 
Q 12.109375 9.234375 16.796875 8.0625 
Q 21.484375 6.890625 26.703125 6.890625 
Q 35.15625 6.890625 40.078125 11.328125 
Q 45.015625 15.765625 45.015625 23.390625 
Q 45.015625 31 40.078125 35.4375 
Q 35.15625 39.890625 26.703125 39.890625 
Q 22.75 39.890625 18.8125 39.015625 
Q 14.890625 38.140625 10.796875 36.28125 
z
" id="DejaVuSans-53"/>
       </defs>
       <use xlink:href="#DejaVuSans-50"/>
       <use x="63.623047" xlink:href="#DejaVuSans-53"/>
      </g>
     </g>
    </g>
    <g id="ytick_3">
     <g id="line2d_9">
      <g>
       <use style="stroke:#000000;stroke-width:0.8;" x="46.965625" xlink:href="#m4c2d9c7001" y="418.307116"/>
      </g>
     </g>
     <g id="text_10">
      <!-- 50 -->
      <g transform="translate(27.240625 422.106335)scale(0.1 -0.1)">
       <use xlink:href="#DejaVuSans-53"/>
       <use x="63.623047" xlink:href="#DejaVuSans-48"/>
      </g>
     </g>
    </g>
    <g id="ytick_4">
     <g id="line2d_10">
      <g>
       <use style="stroke:#000000;stroke-width:0.8;" x="46.965625" xlink:href="#m4c2d9c7001" y="351.701611"/>
      </g>
     </g>
     <g id="text_11">
      <!-- 75 -->
      <g transform="translate(27.240625 355.50083)scale(0.1 -0.1)">
       <defs>
        <path d="M 8.203125 72.90625 
L 55.078125 72.90625 
L 55.078125 68.703125 
L 28.609375 0 
L 18.3125 0 
L 43.21875 64.59375 
L 8.203125 64.59375 
z
" id="DejaVuSans-55"/>
       </defs>
       <use xlink:href="#DejaVuSans-55"/>
       <use x="63.623047" xlink:href="#DejaVuSans-53"/>
      </g>
     </g>
    </g>
    <g id="ytick_5">
     <g id="line2d_11">
      <g>
       <use style="stroke:#000000;stroke-width:0.8;" x="46.965625" xlink:href="#m4c2d9c7001" y="285.096107"/>
      </g>
     </g>
     <g id="text_12">
      <!-- 100 -->
      <g transform="translate(20.878125 288.895325)scale(0.1 -0.1)">
       <use xlink:href="#DejaVuSans-49"/>
       <use x="63.623047" xlink:href="#DejaVuSans-48"/>
       <use x="127.246094" xlink:href="#DejaVuSans-48"/>
      </g>
     </g>
    </g>
    <g id="ytick_6">
     <g id="line2d_12">
      <g>
       <use style="stroke:#000000;stroke-width:0.8;" x="46.965625" xlink:href="#m4c2d9c7001" y="218.490602"/>
      </g>
     </g>
     <g id="text_13">
      <!-- 125 -->
      <g transform="translate(20.878125 222.289821)scale(0.1 -0.1)">
       <use xlink:href="#DejaVuSans-49"/>
       <use x="63.623047" xlink:href="#DejaVuSans-50"/>
       <use x="127.246094" xlink:href="#DejaVuSans-53"/>
      </g>
     </g>
    </g>
    <g id="ytick_7">
     <g id="line2d_13">
      <g>
       <use style="stroke:#000000;stroke-width:0.8;" x="46.965625" xlink:href="#m4c2d9c7001" y="151.885097"/>
      </g>
     </g>
     <g id="text_14">
      <!-- 150 -->
      <g transform="translate(20.878125 155.684316)scale(0.1 -0.1)">
       <use xlink:href="#DejaVuSans-49"/>
       <use x="63.623047" xlink:href="#DejaVuSans-53"/>
       <use x="127.246094" xlink:href="#DejaVuSans-48"/>
      </g>
     </g>
    </g>
    <g id="ytick_8">
     <g id="line2d_14">
      <g>
       <use style="stroke:#000000;stroke-width:0.8;" x="46.965625" xlink:href="#m4c2d9c7001" y="85.279593"/>
      </g>
     </g>
     <g id="text_15">
      <!-- 175 -->
      <g transform="translate(20.878125 89.078812)scale(0.1 -0.1)">
       <use xlink:href="#DejaVuSans-49"/>
       <use x="63.623047" xlink:href="#DejaVuSans-55"/>
       <use x="127.246094" xlink:href="#DejaVuSans-53"/>
      </g>
     </g>
    </g>
    <g id="text_16">
     <!-- Valor de la varianza -->
     <g transform="translate(14.798438 348.979063)rotate(-90)scale(0.1 -0.1)">
      <defs>
       <path d="M 28.609375 0 
L 0.78125 72.90625 
L 11.078125 72.90625 
L 34.1875 11.53125 
L 57.328125 72.90625 
L 67.578125 72.90625 
L 39.796875 0 
z
" id="DejaVuSans-86"/>
       <path d="M 9.421875 75.984375 
L 18.40625 75.984375 
L 18.40625 0 
L 9.421875 0 
z
" id="DejaVuSans-108"/>
       <path d="M 30.609375 48.390625 
Q 23.390625 48.390625 19.1875 42.75 
Q 14.984375 37.109375 14.984375 27.296875 
Q 14.984375 17.484375 19.15625 11.84375 
Q 23.34375 6.203125 30.609375 6.203125 
Q 37.796875 6.203125 41.984375 11.859375 
Q 46.1875 17.53125 46.1875 27.296875 
Q 46.1875 37.015625 41.984375 42.703125 
Q 37.796875 48.390625 30.609375 48.390625 
z
M 30.609375 56 
Q 42.328125 56 49.015625 48.375 
Q 55.71875 40.765625 55.71875 27.296875 
Q 55.71875 13.875 49.015625 6.21875 
Q 42.328125 -1.421875 30.609375 -1.421875 
Q 18.84375 -1.421875 12.171875 6.21875 
Q 5.515625 13.875 5.515625 27.296875 
Q 5.515625 40.765625 12.171875 48.375 
Q 18.84375 56 30.609375 56 
z
" id="DejaVuSans-111"/>
       <path id="DejaVuSans-32"/>
       <path d="M 56.203125 29.59375 
L 56.203125 25.203125 
L 14.890625 25.203125 
Q 15.484375 15.921875 20.484375 11.0625 
Q 25.484375 6.203125 34.421875 6.203125 
Q 39.59375 6.203125 44.453125 7.46875 
Q 49.3125 8.734375 54.109375 11.28125 
L 54.109375 2.78125 
Q 49.265625 0.734375 44.1875 -0.34375 
Q 39.109375 -1.421875 33.890625 -1.421875 
Q 20.796875 -1.421875 13.15625 6.1875 
Q 5.515625 13.8125 5.515625 26.8125 
Q 5.515625 40.234375 12.765625 48.109375 
Q 20.015625 56 32.328125 56 
Q 43.359375 56 49.78125 48.890625 
Q 56.203125 41.796875 56.203125 29.59375 
z
M 47.21875 32.234375 
Q 47.125 39.59375 43.09375 43.984375 
Q 39.0625 48.390625 32.421875 48.390625 
Q 24.90625 48.390625 20.390625 44.140625 
Q 15.875 39.890625 15.1875 32.171875 
z
" id="DejaVuSans-101"/>
       <path d="M 2.984375 54.6875 
L 12.5 54.6875 
L 29.59375 8.796875 
L 46.6875 54.6875 
L 56.203125 54.6875 
L 35.6875 0 
L 23.484375 0 
z
" id="DejaVuSans-118"/>
       <path d="M 54.890625 33.015625 
L 54.890625 0 
L 45.90625 0 
L 45.90625 32.71875 
Q 45.90625 40.484375 42.875 44.328125 
Q 39.84375 48.1875 33.796875 48.1875 
Q 26.515625 48.1875 22.3125 43.546875 
Q 18.109375 38.921875 18.109375 30.90625 
L 18.109375 0 
L 9.078125 0 
L 9.078125 54.6875 
L 18.109375 54.6875 
L 18.109375 46.1875 
Q 21.34375 51.125 25.703125 53.5625 
Q 30.078125 56 35.796875 56 
Q 45.21875 56 50.046875 50.171875 
Q 54.890625 44.34375 54.890625 33.015625 
z
" id="DejaVuSans-110"/>
       <path d="M 5.515625 54.6875 
L 48.1875 54.6875 
L 48.1875 46.484375 
L 14.40625 7.171875 
L 48.1875 7.171875 
L 48.1875 0 
L 4.296875 0 
L 4.296875 8.203125 
L 38.09375 47.515625 
L 5.515625 47.515625 
z
" id="DejaVuSans-122"/>
      </defs>
      <use xlink:href="#DejaVuSans-86"/>
      <use x="60.658203" xlink:href="#DejaVuSans-97"/>
      <use x="121.9375" xlink:href="#DejaVuSans-108"/>
      <use x="149.720703" xlink:href="#DejaVuSans-111"/>
      <use x="210.902344" xlink:href="#DejaVuSans-114"/>
      <use x="252.015625" xlink:href="#DejaVuSans-32"/>
      <use x="283.802734" xlink:href="#DejaVuSans-100"/>
      <use x="347.279297" xlink:href="#DejaVuSans-101"/>
      <use x="408.802734" xlink:href="#DejaVuSans-32"/>
      <use x="440.589844" xlink:href="#DejaVuSans-108"/>
      <use x="468.373047" xlink:href="#DejaVuSans-97"/>
      <use x="529.652344" xlink:href="#DejaVuSans-32"/>
      <use x="561.439453" xlink:href="#DejaVuSans-118"/>
      <use x="620.619141" xlink:href="#DejaVuSans-97"/>
      <use x="681.898438" xlink:href="#DejaVuSans-114"/>
      <use x="723.011719" xlink:href="#DejaVuSans-105"/>
      <use x="750.794922" xlink:href="#DejaVuSans-97"/>
      <use x="812.074219" xlink:href="#DejaVuSans-110"/>
      <use x="875.453125" xlink:href="#DejaVuSans-122"/>
      <use x="927.943359" xlink:href="#DejaVuSans-97"/>
     </g>
    </g>
   </g>
   <g id="line2d_15">
    <path clip-path="url(#p1f6e66d051)" d="M 92.62017 551.518125 
L 93.534175 550.85207 
L 94.44818 526.060021 
L 95.362185 505.560327 
L 96.27619 514.645318 
L 97.190195 314.698553 
L 98.1042 209.193017 
L 99.018205 138.73051 
L 99.93221 96.956113 
L 101.76022 47.518125 
L 102.674225 86.112162 
L 103.588229 116.698474 
L 104.502234 139.474725 
L 105.416239 166.638957 
L 106.330244 163.21844 
L 107.244249 177.900424 
L 108.158254 189.710446 
L 109.072259 196.903776 
L 109.986264 208.339923 
L 110.900269 216.358018 
L 112.728279 243.808248 
L 113.642283 203.911397 
L 114.556288 198.707169 
L 115.470293 204.507387 
L 116.384298 211.959791 
L 117.298303 221.06307 
L 118.212308 213.900287 
L 119.126313 197.446223 
L 120.954323 217.991061 
L 121.868328 223.395801 
L 122.782333 231.495961 
L 123.696338 234.130118 
L 124.610342 239.304822 
L 125.524347 247.147024 
L 126.438352 245.590371 
L 127.352357 247.394151 
L 128.266362 248.131717 
L 129.180367 239.352666 
L 130.094372 246.763959 
L 131.008377 247.269655 
L 131.922382 244.468125 
L 133.750392 233.46362 
L 134.664396 230.152143 
L 135.578401 233.533502 
L 136.492406 217.319943 
L 137.406411 223.839291 
L 139.234421 234.748848 
L 140.148426 230.65648 
L 141.062431 228.390976 
L 141.976436 231.388951 
L 142.890441 231.819349 
L 143.804446 221.802632 
L 144.718451 217.495875 
L 146.54646 228.617599 
L 147.460465 230.70907 
L 148.37447 224.361728 
L 149.288475 225.999957 
L 150.20248 226.041611 
L 151.116485 229.115323 
L 152.03049 230.910786 
L 152.944495 230.678119 
L 153.8585 225.697364 
L 154.772505 225.489426 
L 155.68651 220.801949 
L 156.600514 215.317955 
L 157.514519 219.189549 
L 158.428524 210.209972 
L 159.342529 204.408573 
L 161.170539 213.169542 
L 162.084544 207.755084 
L 162.998549 205.293429 
L 163.912554 209.636478 
L 165.740564 207.108076 
L 166.654568 209.379001 
L 167.568573 213.147079 
L 168.482578 215.504682 
L 169.396583 215.854407 
L 170.310588 217.627144 
L 172.138598 222.110212 
L 173.052603 219.943966 
L 173.966608 221.717598 
L 175.794618 228.399587 
L 176.708623 223.641921 
L 178.536632 230.417157 
L 179.450637 228.289763 
L 180.364642 228.886696 
L 181.278647 231.732642 
L 182.192652 230.439498 
L 183.106657 227.635538 
L 184.020662 226.462369 
L 184.934667 229.197674 
L 185.848672 225.043293 
L 186.762677 221.929505 
L 187.676682 217.329461 
L 188.590686 213.605803 
L 189.504691 216.71112 
L 190.418696 218.455198 
L 191.332701 219.711152 
L 193.160711 225.0985 
L 194.074716 226.300607 
L 194.988721 228.485444 
L 195.902726 227.033286 
L 196.816731 229.393457 
L 197.730736 232.122951 
L 198.64474 234.38153 
L 199.558745 231.66992 
L 200.47275 230.832257 
L 201.386755 232.839648 
L 202.30076 235.331363 
L 203.214765 231.311938 
L 204.12877 229.50479 
L 205.042775 232.070397 
L 205.95678 230.941078 
L 207.78479 235.360142 
L 208.698795 236.863217 
L 209.612799 237.338667 
L 211.440809 241.84759 
L 213.268819 245.057948 
L 214.182824 241.851789 
L 215.096829 241.52803 
L 216.010834 238.496597 
L 216.924839 239.003919 
L 217.838844 241.030291 
L 218.752849 239.795952 
L 219.666854 239.900738 
L 220.580858 241.049435 
L 221.494863 238.183423 
L 222.408868 238.27702 
L 223.322873 237.547691 
L 224.236878 236.380603 
L 225.150883 237.541101 
L 226.064888 236.332826 
L 226.978893 236.082434 
L 227.892898 238.092019 
L 228.806903 239.636695 
L 229.720908 238.517298 
L 230.634912 240.070509 
L 231.548917 242.07434 
L 232.462922 243.534339 
L 233.376927 243.216672 
L 234.290932 241.094106 
L 235.204937 241.836495 
L 236.118942 239.233078 
L 237.032947 240.022614 
L 238.860957 243.050743 
L 239.774962 242.460361 
L 240.688967 242.820952 
L 241.602971 243.580888 
L 242.516976 243.605122 
L 243.430981 244.597852 
L 244.344986 242.218679 
L 245.258991 242.722697 
L 247.087001 245.357281 
L 248.001006 244.494379 
L 248.915011 245.892607 
L 249.829016 245.064705 
L 251.657025 248.362491 
L 252.57103 248.273171 
L 254.39904 251.551015 
L 255.313045 252.866701 
L 256.22705 252.71399 
L 257.141055 254.351164 
L 258.05506 252.239026 
L 258.969065 251.016459 
L 259.88307 252.635996 
L 260.797075 252.508159 
L 261.71108 253.763411 
L 262.625084 250.791672 
L 263.539089 250.310485 
L 264.453094 250.789787 
L 265.367099 252.134389 
L 266.281104 250.939082 
L 267.195109 250.82318 
L 268.109114 252.327393 
L 269.023119 252.494875 
L 269.937124 253.90767 
L 270.851129 251.501244 
L 271.765134 251.664877 
L 272.679139 252.322474 
L 273.593143 253.709291 
L 274.507148 250.930214 
L 275.421153 249.786831 
L 276.335158 250.456217 
L 277.249163 249.693379 
L 278.163168 249.586295 
L 279.077173 246.866623 
L 279.991178 247.729722 
L 280.905183 246.644885 
L 281.819188 247.911564 
L 282.733193 245.223012 
L 283.647197 245.654472 
L 284.561202 243.021642 
L 285.475207 240.835812 
L 286.389212 238.252364 
L 287.303217 239.12039 
L 289.131227 241.640869 
L 290.045232 241.813745 
L 290.959237 242.229766 
L 293.701252 246.135357 
L 294.615256 243.651817 
L 295.529261 242.665096 
L 296.443266 242.32607 
L 298.271276 244.578793 
L 299.185281 245.183938 
L 300.099286 246.482801 
L 301.013291 246.866495 
L 301.927296 247.774663 
L 302.841301 249.044431 
L 303.755306 248.42353 
L 304.669311 246.465626 
L 305.583315 247.716644 
L 306.49732 248.583096 
L 307.411325 249.852639 
L 308.32533 250.832686 
L 309.239335 251.174428 
L 310.15334 251.101215 
L 311.067345 249.487324 
L 311.98135 249.646992 
L 312.895355 250.345648 
L 314.723365 251.045363 
L 315.637369 248.745269 
L 316.551374 249.591441 
L 318.379384 251.694286 
L 319.293389 250.78434 
L 320.207394 249.26047 
L 322.035404 251.446524 
L 322.949409 251.357004 
L 323.863414 251.867438 
L 324.777419 250.0405 
L 325.691424 249.944954 
L 326.605428 248.120366 
L 327.519433 247.550631 
L 328.433438 248.46569 
L 329.347443 246.682623 
L 330.261448 247.812668 
L 331.175453 248.165235 
L 332.089458 246.089079 
L 333.003463 246.631007 
L 333.917468 247.509831 
L 334.831473 248.573856 
L 335.745478 247.530785 
L 336.659482 247.623574 
L 337.573487 245.632688 
L 338.487492 246.321982 
L 339.401497 244.165332 
L 340.315502 243.706346 
L 341.229507 242.433122 
L 342.143512 243.251284 
L 343.057517 244.305231 
L 343.971522 244.332447 
L 344.885527 244.73478 
L 345.799532 243.846095 
L 346.713537 244.945346 
L 347.627541 244.763211 
L 348.541546 243.262711 
L 350.369556 244.391078 
L 351.283561 245.361781 
L 352.197566 244.996846 
L 353.111571 246.050767 
L 354.025576 245.138141 
L 354.939581 244.745846 
L 355.853586 245.693234 
L 356.767591 246.362432 
L 357.681596 246.893125 
L 358.5956 247.662163 
L 359.509605 248.643812 
L 360.42361 249.026987 
L 361.337615 247.907971 
L 363.165625 249.645961 
L 364.07963 248.542822 
L 365.90764 250.141656 
L 366.821645 250.317419 
L 367.73565 251.31364 
L 368.649654 251.950188 
L 369.563659 250.881017 
L 370.477664 251.821207 
L 371.391669 252.053471 
L 372.305674 252.985199 
L 373.219679 253.218172 
L 375.047689 254.985262 
L 375.961694 254.667787 
L 376.875699 254.144937 
L 377.789704 254.665055 
L 378.703709 253.929951 
L 379.617713 254.743195 
L 380.531718 255.263036 
L 381.445723 254.322878 
L 382.359728 255.177797 
L 383.273733 254.923534 
L 384.187738 255.195335 
L 385.101743 256.107635 
L 386.015748 256.741834 
L 386.929753 256.298453 
L 387.843758 255.05876 
L 388.757763 255.970763 
L 389.671768 255.67507 
L 390.585772 255.183658 
L 391.499777 255.119766 
L 392.413782 253.434958 
L 393.327787 253.663177 
L 394.241792 254.032594 
L 395.155797 254.145407 
L 396.983807 255.515396 
L 397.897812 256.189442 
L 398.811817 255.906074 
L 399.725822 254.787866 
L 400.639826 255.629893 
L 401.553831 254.000486 
L 402.467836 253.383958 
L 403.381841 252.065743 
L 404.295846 252.5305 
L 405.209851 251.097243 
L 406.123856 249.943624 
L 407.037861 248.365481 
L 407.951866 248.724659 
L 408.865871 249.485668 
L 410.693881 249.531815 
L 411.607885 248.150463 
L 412.52189 248.979911 
L 413.435895 248.949203 
L 414.3499 247.674727 
L 416.17791 249.268185 
L 417.091915 248.899345 
L 418.00592 249.54102 
L 418.919925 249.526364 
L 419.83393 250.202452 
L 420.747935 249.924782 
L 421.661939 249.910598 
L 422.575944 249.246016 
L 423.489949 247.771629 
L 424.403954 248.55268 
L 425.317959 247.678237 
L 428.973979 250.782979 
L 429.887984 249.337932 
L 430.801989 249.00025 
L 431.715994 248.130417 
L 432.629998 247.608557 
L 433.544003 247.456216 
L 434.458008 247.881446 
L 435.372013 247.888554 
L 437.200023 245.14457 
L 438.114028 244.263934 
L 439.028033 245.056346 
L 439.942038 244.935815 
L 440.856043 245.65247 
L 441.770048 245.3661 
L 442.684053 245.873461 
L 443.598057 244.778156 
L 445.426067 246.209226 
L 446.340072 246.787659 
L 447.254077 246.667995 
L 448.168082 247.364653 
L 449.082087 247.526177 
L 449.996092 245.981826 
L 450.910097 246.00687 
L 451.824102 244.47926 
L 452.738107 243.855395 
L 453.652111 244.03999 
L 454.566116 242.734179 
L 455.480121 241.673509 
L 456.394126 241.228491 
L 457.308131 241.722752 
L 458.222136 240.692647 
L 460.050146 242.069531 
L 461.878156 241.562237 
L 462.792161 241.966501 
L 464.62017 243.395325 
L 465.534175 242.567711 
L 466.44818 243.186465 
L 467.362185 242.567916 
L 468.27619 243.277907 
L 469.190195 243.021861 
L 470.1042 242.029739 
L 471.018205 241.623706 
L 472.846215 243.063789 
L 473.76022 242.790015 
L 474.674225 243.26569 
L 476.502234 244.647237 
L 477.416239 244.794997 
L 478.330244 244.186452 
L 479.244249 244.077303 
L 480.158254 244.786488 
L 481.986264 245.695942 
L 482.900269 245.105403 
L 483.814274 245.745366 
L 484.728279 245.483576 
L 485.642283 245.375718 
L 486.556288 244.411373 
L 487.470293 243.030675 
L 488.384298 243.700352 
L 489.298303 243.611794 
L 491.126313 245.004245 
L 492.040318 245.513139 
L 492.954323 245.782529 
L 493.868328 246.213024 
L 494.782333 245.790458 
L 495.696338 245.677201 
L 496.610342 245.423555 
L 497.524347 245.451046 
L 498.438352 246.137398 
L 499.352357 245.737489 
L 500.266362 246.407452 
L 501.180367 245.0496 
L 502.094372 244.807747 
L 503.008377 245.371413 
L 503.922382 244.818168 
L 504.836387 245.064328 
L 505.750392 244.662548 
L 506.664396 244.696001 
L 507.578401 244.450344 
L 508.492406 243.726906 
L 509.406411 244.362441 
L 510.320416 243.629712 
L 511.234421 244.05464 
L 513.062431 242.623281 
L 513.976436 242.093074 
L 514.890441 242.746727 
L 515.804446 242.503443 
L 516.718451 242.136322 
L 517.632455 242.689567 
L 518.54646 242.329466 
L 519.460465 241.223726 
L 520.37447 241.652873 
L 521.288475 241.67542 
L 523.116485 242.913067 
L 524.03049 242.371293 
L 525.8585 243.60446 
L 526.772505 243.37141 
L 527.68651 243.903285 
L 528.600514 243.809241 
L 529.514519 243.119587 
L 530.428524 242.746523 
L 531.342529 241.881343 
L 532.256534 241.515206 
L 533.170539 242.144545 
L 534.084544 242.057662 
L 534.998549 242.462196 
L 535.912554 242.704104 
L 536.826559 242.489388 
L 537.740564 242.528414 
L 538.654568 242.925038 
L 539.568573 242.845236 
L 540.482578 243.410848 
L 541.396583 242.399949 
L 542.310588 243.026225 
L 543.224593 243.358422 
L 545.052603 244.455356 
L 545.966608 243.270043 
L 546.880613 242.793871 
L 547.794618 243.403646 
L 548.708623 243.40997 
L 549.622627 242.36452 
L 550.536632 242.745944 
L 551.450637 242.677565 
L 553.278647 243.78692 
L 554.192652 243.834054 
L 555.106657 242.800149 
L 556.934667 243.954055 
L 557.848672 243.278513 
L 558.762677 242.44275 
L 559.676682 242.93667 
L 560.590686 242.278746 
L 561.504691 242.501539 
L 562.418696 242.88616 
L 564.246706 243.163921 
L 565.160711 242.019351 
L 566.074716 242.60215 
L 566.988721 241.783306 
L 567.902726 241.318058 
L 568.816731 240.50553 
L 569.730736 240.530406 
L 570.64474 240.339321 
L 572.47275 241.462891 
L 573.386755 240.976105 
L 574.30076 241.553943 
L 575.214765 241.932181 
L 576.12877 241.721758 
L 577.042775 241.858941 
L 577.95678 240.923853 
L 578.870785 241.40051 
L 580.698795 241.644944 
L 581.612799 242.210894 
L 583.440809 242.645119 
L 584.354814 242.042486 
L 585.268819 242.082107 
L 586.182824 242.626026 
L 587.096829 242.763833 
L 588.010834 242.669704 
L 589.838844 243.597418 
L 590.752849 243.153469 
L 591.666854 242.570341 
L 592.580858 242.396235 
L 594.408868 243.044681 
L 595.322873 242.093681 
L 596.236878 241.520634 
L 597.150883 240.741875 
L 598.064888 240.855057 
L 600.806903 242.460855 
L 601.720908 242.91191 
L 603.548917 243.182766 
L 604.462922 243.192709 
L 605.376927 243.688244 
L 606.290932 243.980277 
L 607.204937 244.473257 
L 608.118942 244.828421 
L 609.032947 243.794415 
L 609.946952 244.183721 
L 610.860957 244.28343 
L 611.774962 243.521102 
L 612.688967 243.854331 
L 614.516976 244.118698 
L 616.344986 243.019636 
L 618.172996 243.889379 
L 620.001006 244.951037 
L 620.915011 244.483607 
L 622.743021 245.504741 
L 623.657025 245.096119 
L 624.57103 245.572787 
L 625.485035 245.572258 
L 626.39904 245.85378 
L 627.313045 244.94948 
L 628.22705 244.990542 
L 629.141055 245.308064 
L 630.05506 244.852076 
L 630.969065 244.687142 
L 631.88307 245.19336 
L 632.797075 244.458752 
L 633.71108 244.639757 
L 634.625084 243.761346 
L 636.453094 244.512441 
L 637.367099 244.228793 
L 638.281104 243.693277 
L 639.195109 242.821466 
L 640.109114 243.324094 
L 641.023119 243.448619 
L 641.937124 243.819374 
L 642.851129 243.288918 
L 643.765134 243.562305 
L 644.679139 242.752049 
L 645.593143 242.796442 
L 647.421153 243.683102 
L 648.335158 243.53141 
L 649.249163 244.022896 
L 650.163168 243.925052 
L 651.077173 244.284878 
L 651.991178 244.189835 
L 652.905183 244.630964 
L 653.819188 244.802827 
L 654.733193 244.287681 
L 655.647197 244.458737 
L 657.475207 245.339823 
L 658.389212 245.604802 
L 659.303217 246.074916 
L 660.217222 246.272213 
L 662.045232 247.237551 
L 662.959237 247.035499 
L 663.873242 247.509578 
L 664.787247 246.665393 
L 665.701252 246.962307 
L 666.615256 246.409309 
L 667.529261 246.722603 
L 668.443266 246.911442 
L 669.357271 246.752431 
L 670.271276 246.372029 
L 671.185281 246.408343 
L 672.099286 245.981449 
L 673.013291 245.889858 
L 673.927296 245.343469 
L 674.841301 244.419682 
L 675.755306 244.121203 
L 677.583315 244.979499 
L 678.49732 244.720654 
L 679.411325 245.185972 
L 680.32533 244.693127 
L 681.239335 245.166739 
L 682.15334 245.478054 
L 683.98135 244.629786 
L 684.895355 245.029151 
L 685.80936 245.253473 
L 686.723365 245.158811 
L 687.637369 245.616307 
L 689.465379 244.539634 
L 690.379384 244.768063 
L 691.293389 245.235253 
L 692.207394 245.086864 
L 693.121399 245.392036 
L 694.035404 245.428997 
L 695.863414 246.140519 
L 696.777419 245.537783 
L 697.691424 245.816355 
L 698.605428 245.72437 
L 699.519433 245.368973 
L 700.433438 245.228854 
L 702.261448 246.036512 
L 703.175453 246.07719 
L 704.089458 245.216108 
L 705.003463 245.208883 
L 706.831473 246.036516 
L 707.745478 245.902513 
L 708.659482 245.368857 
L 709.573487 245.412072 
L 710.487492 245.824289 
L 711.401497 245.293555 
L 712.315502 245.744382 
L 713.229507 245.035828 
L 715.057517 245.875127 
L 715.971522 245.424173 
L 716.885527 245.671985 
L 717.799532 245.477686 
L 719.627541 246.34503 
L 720.541546 246.388749 
L 721.455551 246.091381 
L 722.369556 246.444237 
L 723.283561 246.435099 
L 724.197566 245.867425 
L 725.111571 246.277808 
L 726.939581 245.430922 
L 727.853586 245.207008 
L 728.767591 245.64136 
L 729.681596 245.315749 
L 731.509605 244.031997 
L 732.42361 243.810938 
L 733.337615 244.16069 
L 734.25162 243.526274 
L 735.165625 243.733628 
L 736.07963 243.297484 
L 736.993635 242.668685 
L 737.90764 243.100024 
L 738.821645 243.282486 
L 740.649654 243.212615 
L 742.477664 243.761614 
L 743.391669 243.47911 
L 744.305674 243.872735 
L 746.133684 244.016537 
L 747.047689 244.40722 
L 747.961694 244.188959 
L 748.875699 244.562551 
L 749.789704 244.439742 
L 750.703709 244.675756 
L 751.617713 244.289626 
L 752.531718 244.42857 
L 753.445723 244.711632 
L 754.359728 244.753926 
L 756.187738 245.515145 
L 757.101743 245.200331 
L 758.015748 245.191945 
L 758.929753 244.4072 
L 759.843758 244.197621 
L 761.671768 244.728055 
L 762.585772 244.546227 
L 764.413782 243.75128 
L 765.327787 244.16407 
L 766.241792 243.39266 
L 767.155797 243.44035 
L 768.069802 243.140477 
L 768.983807 243.552339 
L 769.897812 243.74321 
L 770.811817 243.01056 
L 771.725822 242.921173 
L 772.639826 242.967918 
L 773.553831 243.160634 
L 774.467836 242.526957 
L 775.381841 242.719052 
L 776.295846 241.996747 
L 777.209851 242.39301 
L 778.123856 242.586272 
L 779.037861 242.992327 
L 779.951866 242.879732 
L 780.865871 242.286232 
L 782.693881 242.97962 
L 783.607885 242.808691 
L 784.52189 242.445802 
L 785.435895 242.279303 
L 787.263905 242.96742 
L 788.17791 242.933328 
L 790.00592 242.316571 
L 790.919925 242.317742 
L 791.83393 241.859704 
L 793.661939 240.660497 
L 795.489949 241.024535 
L 796.403954 240.461189 
L 799.145969 241.446827 
L 800.059974 241.292694 
L 800.973979 241.581494 
L 801.887984 241.460756 
L 802.801989 240.713642 
L 805.544003 240.022402 
L 806.458008 240.420434 
L 807.372013 240.083093 
L 808.286018 240.479993 
L 809.200023 240.558283 
L 810.114028 240.321061 
L 811.028033 240.201242 
L 811.942038 240.533031 
L 813.770048 239.254512 
L 814.684053 239.290737 
L 815.598057 239.67538 
L 817.426067 238.481876 
L 819.254077 239.25894 
L 820.168082 238.934977 
L 821.082087 239.092727 
L 821.996092 239.483301 
L 822.910097 239.443699 
L 823.824102 239.831907 
L 824.738107 240.041205 
L 825.652111 240.120062 
L 826.566116 240.489019 
L 827.480121 239.959256 
L 829.308131 240.579052 
L 830.222136 240.675247 
L 831.136141 240.635742 
L 832.050146 240.435277 
L 832.964151 240.444594 
L 833.878156 240.696262 
L 834.792161 241.078231 
L 835.706166 240.934404 
L 836.62017 241.314068 
L 837.534175 241.345496 
L 838.44818 241.14655 
L 839.362185 241.280442 
L 840.27619 240.643963 
L 843.018205 241.715657 
L 843.93221 241.746439 
L 845.76022 242.293157 
L 846.674225 242.53845 
L 848.502234 242.433504 
L 849.416239 242.017399 
L 850.330244 241.819642 
L 851.244249 242.003712 
L 852.158254 242.306107 
L 853.072259 241.893919 
L 853.986264 242.263859 
L 854.900269 241.781292 
L 855.814274 241.854769 
L 859.470293 243.087702 
L 860.384298 242.389141 
L 861.298303 242.75594 
L 862.212308 242.061998 
L 864.040318 242.723519 
L 865.868328 243.110893 
L 866.782333 243.43148 
L 867.696338 242.744882 
L 869.524347 242.960114 
L 870.438352 242.341378 
L 871.352357 241.875037 
L 872.266362 241.259205 
L 873.180367 241.329291 
L 875.008377 241.964063 
L 875.922382 241.900779 
L 876.836387 242.137459 
L 878.664396 242.374999 
L 879.578401 242.267133 
L 882.320416 242.883393 
L 883.234421 242.743206 
L 884.148426 243.031619 
L 885.976436 242.594724 
L 886.890441 242.8518 
L 887.804446 242.81287 
L 890.54646 243.775993 
L 891.460465 243.843681 
L 893.288475 243.267764 
L 894.20248 242.808822 
L 895.116485 243.151575 
L 896.03049 243.01662 
L 897.8585 243.497964 
L 899.68651 242.683496 
L 900.600514 242.824868 
L 901.514519 242.609483 
L 902.428524 242.122499 
L 903.342529 242.063037 
L 904.256534 241.853116 
L 906.084544 242.483565 
L 906.998549 242.656193 
L 907.912554 242.386203 
L 911.568573 242.794922 
L 912.482578 242.686131 
L 913.396583 242.332696 
L 914.310588 242.544567 
L 915.224593 241.99996 
L 916.138598 242.066372 
L 917.966608 241.146101 
L 919.794618 241.296456 
L 920.708623 240.917501 
L 921.622627 241.165738 
L 922.536632 240.626054 
L 923.450637 240.448126 
L 924.364642 240.749902 
L 925.278647 240.461658 
L 926.192652 240.802029 
L 927.106657 240.745714 
L 928.020662 240.956611 
L 928.934667 240.518594 
L 929.848672 240.604771 
L 930.762677 240.401404 
L 931.676682 240.538471 
L 932.590686 240.362339 
L 933.504691 240.370428 
L 934.418696 240.67591 
L 935.332701 240.742807 
L 936.246706 241.063429 
L 937.160711 240.631503 
L 938.074716 240.966947 
L 938.988721 240.84002 
L 939.902726 241.154343 
L 940.816731 241.18262 
L 941.730736 240.720207 
L 944.47275 241.485353 
L 947.214765 240.209183 
L 949.042775 240.75912 
L 949.95678 240.589708 
L 950.870785 240.85721 
L 951.78479 240.488227 
L 952.698795 240.797725 
L 955.440809 239.14197 
L 957.268819 239.330551 
L 960.010834 240.155255 
L 960.924839 240.182294 
L 961.838844 240.448856 
L 962.752849 240.566504 
L 965.494863 241.529281 
L 966.408868 241.645739 
L 968.236878 240.758934 
L 969.150883 240.962123 
L 970.064888 240.346274 
L 970.978893 240.464854 
L 971.892898 240.787409 
L 972.806903 240.671634 
L 974.634912 241.298656 
L 975.548917 241.047712 
L 976.462922 240.437781 
L 977.376927 240.753589 
L 978.290932 240.924619 
L 979.204937 240.949728 
L 981.032947 241.544519 
L 982.860957 242.069426 
L 983.774962 242.379132 
L 986.516976 241.422472 
L 987.430981 241.44634 
L 988.344986 241.76205 
L 989.258991 241.351366 
L 991.087001 241.915332 
L 992.001006 241.817418 
L 992.915011 241.223679 
L 994.743021 241.072706 
L 995.657025 241.27905 
L 996.57103 240.786368 
L 997.485035 240.847119 
L 998.39904 240.44677 
L 1001.141055 240.737945 
L 1002.05506 240.249875 
L 1002.969065 240.502761 
L 1003.88307 240.01707 
L 1005.71108 240.62781 
L 1005.71108 240.62781 
" style="fill:none;stroke:#1f77b4;stroke-linecap:square;stroke-width:1.5;"/>
   </g>
   <g id="patch_3">
    <path d="M 46.965625 576.718125 
L 46.965625 22.318125 
" style="fill:none;stroke:#000000;stroke-linecap:square;stroke-linejoin:miter;stroke-width:0.8;"/>
   </g>
   <g id="patch_4">
    <path d="M 1051.365625 576.718125 
L 1051.365625 22.318125 
" style="fill:none;stroke:#000000;stroke-linecap:square;stroke-linejoin:miter;stroke-width:0.8;"/>
   </g>
   <g id="patch_5">
    <path d="M 46.965625 576.718125 
L 1051.365625 576.718125 
" style="fill:none;stroke:#000000;stroke-linecap:square;stroke-linejoin:miter;stroke-width:0.8;"/>
   </g>
   <g id="patch_6">
    <path d="M 46.965625 22.318125 
L 1051.365625 22.318125 
" style="fill:none;stroke:#000000;stroke-linecap:square;stroke-linejoin:miter;stroke-width:0.8;"/>
   </g>
   <g id="text_17">
    <!-- Varianza a lo largo de 1000 tiradas -->
    <g transform="translate(444.22375 16.318125)scale(0.12 -0.12)">
     <defs>
      <path d="M 45.40625 27.984375 
Q 45.40625 37.75 41.375 43.109375 
Q 37.359375 48.484375 30.078125 48.484375 
Q 22.859375 48.484375 18.828125 43.109375 
Q 14.796875 37.75 14.796875 27.984375 
Q 14.796875 18.265625 18.828125 12.890625 
Q 22.859375 7.515625 30.078125 7.515625 
Q 37.359375 7.515625 41.375 12.890625 
Q 45.40625 18.265625 45.40625 27.984375 
z
M 54.390625 6.78125 
Q 54.390625 -7.171875 48.1875 -13.984375 
Q 42 -20.796875 29.203125 -20.796875 
Q 24.46875 -20.796875 20.265625 -20.09375 
Q 16.0625 -19.390625 12.109375 -17.921875 
L 12.109375 -9.1875 
Q 16.0625 -11.328125 19.921875 -12.34375 
Q 23.78125 -13.375 27.78125 -13.375 
Q 36.625 -13.375 41.015625 -8.765625 
Q 45.40625 -4.15625 45.40625 5.171875 
L 45.40625 9.625 
Q 42.625 4.78125 38.28125 2.390625 
Q 33.9375 0 27.875 0 
Q 17.828125 0 11.671875 7.65625 
Q 5.515625 15.328125 5.515625 27.984375 
Q 5.515625 40.671875 11.671875 48.328125 
Q 17.828125 56 27.875 56 
Q 33.9375 56 38.28125 53.609375 
Q 42.625 51.21875 45.40625 46.390625 
L 45.40625 54.6875 
L 54.390625 54.6875 
z
" id="DejaVuSans-103"/>
      <path d="M 18.3125 70.21875 
L 18.3125 54.6875 
L 36.8125 54.6875 
L 36.8125 47.703125 
L 18.3125 47.703125 
L 18.3125 18.015625 
Q 18.3125 11.328125 20.140625 9.421875 
Q 21.96875 7.515625 27.59375 7.515625 
L 36.8125 7.515625 
L 36.8125 0 
L 27.59375 0 
Q 17.1875 0 13.234375 3.875 
Q 9.28125 7.765625 9.28125 18.015625 
L 9.28125 47.703125 
L 2.6875 47.703125 
L 2.6875 54.6875 
L 9.28125 54.6875 
L 9.28125 70.21875 
z
" id="DejaVuSans-116"/>
     </defs>
     <use xlink:href="#DejaVuSans-86"/>
     <use x="60.658203" xlink:href="#DejaVuSans-97"/>
     <use x="121.9375" xlink:href="#DejaVuSans-114"/>
     <use x="163.050781" xlink:href="#DejaVuSans-105"/>
     <use x="190.833984" xlink:href="#DejaVuSans-97"/>
     <use x="252.113281" xlink:href="#DejaVuSans-110"/>
     <use x="315.492188" xlink:href="#DejaVuSans-122"/>
     <use x="367.982422" xlink:href="#DejaVuSans-97"/>
     <use x="429.261719" xlink:href="#DejaVuSans-32"/>
     <use x="461.048828" xlink:href="#DejaVuSans-97"/>
     <use x="522.328125" xlink:href="#DejaVuSans-32"/>
     <use x="554.115234" xlink:href="#DejaVuSans-108"/>
     <use x="581.898438" xlink:href="#DejaVuSans-111"/>
     <use x="643.080078" xlink:href="#DejaVuSans-32"/>
     <use x="674.867188" xlink:href="#DejaVuSans-108"/>
     <use x="702.650391" xlink:href="#DejaVuSans-97"/>
     <use x="763.929688" xlink:href="#DejaVuSans-114"/>
     <use x="803.292969" xlink:href="#DejaVuSans-103"/>
     <use x="866.769531" xlink:href="#DejaVuSans-111"/>
     <use x="927.951172" xlink:href="#DejaVuSans-32"/>
     <use x="959.738281" xlink:href="#DejaVuSans-100"/>
     <use x="1023.214844" xlink:href="#DejaVuSans-101"/>
     <use x="1084.738281" xlink:href="#DejaVuSans-32"/>
     <use x="1116.525391" xlink:href="#DejaVuSans-49"/>
     <use x="1180.148438" xlink:href="#DejaVuSans-48"/>
     <use x="1243.771484" xlink:href="#DejaVuSans-48"/>
     <use x="1307.394531" xlink:href="#DejaVuSans-48"/>
     <use x="1371.017578" xlink:href="#DejaVuSans-32"/>
     <use x="1402.804688" xlink:href="#DejaVuSans-116"/>
     <use x="1442.013672" xlink:href="#DejaVuSans-105"/>
     <use x="1469.796875" xlink:href="#DejaVuSans-114"/>
     <use x="1510.910156" xlink:href="#DejaVuSans-97"/>
     <use x="1572.189453" xlink:href="#DejaVuSans-100"/>
     <use x="1635.666016" xlink:href="#DejaVuSans-97"/>
     <use x="1696.945312" xlink:href="#DejaVuSans-115"/>
    </g>
   </g>
  </g>
 </g>
 <defs>
  <clipPath id="p1f6e66d051">
   <rect height="554.4" width="1004.4" x="46.965625" y="22.318125"/>
  </clipPath>
 </defs>
</svg>
